<?xml version="1.0" encoding="utf-8"?>
<!-- Generator: Adobe Illustrator 24.0.0, SVG Export Plug-In . SVG Version: 6.00 Build 0)  -->
<svg version="1.1" id="Ebene_1" xmlns="http://www.w3.org/2000/svg" xmlns:xlink="http://www.w3.org/1999/xlink" x="0px" y="0px"
	 viewBox="0 0 254.1 100.4" style="enable-background:new 0 0 254.1 100.4;" xml:space="preserve">
<style type="text/css">
	.st0{fill:#7F7A91;}
	.st1{fill:#FFFFFF;}
</style>
<g>
	<circle class="st0" cx="52.1" cy="49.3" r="45"/>
	<polyline class="st1" points="19.8,28.8 52.2,28.8 52.2,71.3 48,71.3 48,33 24,33 24,71.3 19.8,71.3 	"/>
	<polyline class="st1" points="52.8,28.8 85.3,28.8 85.3,71.3 81.1,71.3 81.1,33 57,33 57,58.7 52.8,58.7 	"/>
</g>
<g>
	<path class="st0" d="M89.9,69.9V53h22.3c1,0,1.8,0.3,2.5,1c0.7,0.7,1,1.5,1,2.5v13.3h-2.4V56.5c0-0.3-0.1-0.6-0.3-0.8
		c-0.2-0.2-0.5-0.3-0.8-0.3h-7c-0.3,0-0.6,0.1-0.8,0.3c-0.2,0.2-0.3,0.5-0.3,0.8v13.3h-2.4V56.5c0-0.3-0.1-0.6-0.3-0.8
		c-0.2-0.2-0.5-0.3-0.8-0.3h-7c-0.3,0-0.6,0.1-0.8,0.3c-0.2,0.2-0.3,0.5-0.3,0.8v13.3H89.9z"/>
	<path class="st0" d="M121.8,69.9c-1,0-1.8-0.3-2.5-1c-0.7-0.7-1-1.5-1-2.5v-9.8c0-1,0.3-1.8,1-2.5c0.7-0.7,1.5-1,2.5-1h10.1
		c1,0,1.8,0.3,2.5,1c0.7,0.7,1,1.5,1,2.5v9.8c0,1-0.3,1.8-1,2.5c-0.7,0.7-1.5,1-2.5,1H121.8z M121.8,67.5h10.1
		c0.3,0,0.6-0.1,0.8-0.3c0.2-0.2,0.3-0.5,0.3-0.8v-9.8c0-0.3-0.1-0.6-0.3-0.8c-0.2-0.2-0.5-0.3-0.8-0.3h-10.1
		c-0.3,0-0.6,0.1-0.8,0.3c-0.2,0.2-0.3,0.5-0.3,0.8v9.8c0,0.3,0.1,0.6,0.3,0.8C121.2,67.4,121.4,67.5,121.8,67.5z"/>
	<path class="st0" d="M138.1,69.9V56.5c0-1,0.3-1.8,1-2.5c0.7-0.7,1.5-1,2.5-1h9.5v2.4h-9.5c-0.3,0-0.6,0.1-0.8,0.3
		c-0.2,0.2-0.3,0.5-0.3,0.8v13.3H138.1z"/>
	<path class="st0" d="M153.1,76.6V53h13.7c1,0,1.8,0.3,2.5,1c0.7,0.7,1,1.5,1,2.5v9.8c0,1-0.3,1.8-1,2.5c-0.7,0.7-1.5,1-2.5,1h-11.3
		v6.7H153.1z M156.6,67.5h10.1c0.3,0,0.6-0.1,0.8-0.3c0.2-0.2,0.3-0.5,0.3-0.8v-9.8c0-0.3-0.1-0.6-0.3-0.8c-0.2-0.2-0.5-0.3-0.8-0.3
		h-10.1c-0.3,0-0.6,0.1-0.8,0.3c-0.2,0.2-0.3,0.5-0.3,0.8v9.8c0,0.3,0.1,0.6,0.3,0.8C156,67.4,156.3,67.5,156.6,67.5z"/>
	<path class="st0" d="M172.4,69.9V29.3h2.4V53H186c0.9,0,1.8,0.3,2.5,1c0.7,0.7,1,1.5,1,2.5v13.3h-2.4V56.5c0-0.3-0.1-0.6-0.3-0.8
		c-0.2-0.2-0.5-0.3-0.8-0.3h-10.1c-0.3,0-0.6,0.1-0.8,0.3c-0.2,0.2-0.3,0.5-0.3,0.8v13.3H172.4z"/>
	<path class="st0" d="M195.2,69.9c-1,0-1.8-0.3-2.5-1c-0.7-0.7-1-1.5-1-2.5v-9.8c0-1,0.3-1.8,1-2.5c0.7-0.7,1.5-1,2.5-1h10.1
		c1,0,1.8,0.3,2.5,1c0.7,0.7,1,1.5,1,2.5v6.1h-14.8v3.7c0,0.3,0.1,0.6,0.3,0.8c0.2,0.2,0.5,0.3,0.8,0.3h13.7v2.4H195.2z M194.1,60.3
		h12.4v-3.7c0-0.3-0.1-0.6-0.3-0.8c-0.2-0.2-0.5-0.3-0.8-0.3h-10.1c-0.3,0-0.6,0.1-0.8,0.3c-0.2,0.2-0.3,0.5-0.3,0.8V60.3z"/>
	<path class="st0" d="M215.4,69.9c-1,0-1.8-0.3-2.5-1c-0.7-0.7-1-1.5-1-2.5V53h2.4v13.4c0,0.3,0.1,0.6,0.3,0.8
		c0.2,0.2,0.5,0.3,0.8,0.3h10.1c0.3,0,0.6-0.1,0.8-0.3c0.2-0.2,0.3-0.5,0.3-0.8V53h2.4v13.4c0,1-0.3,1.8-1,2.5c-0.7,0.7-1.5,1-2.5,1
		H215.4z"/>
	<path class="st0" d="M235,69.9c-1,0-1.8-0.3-2.5-1c-0.7-0.7-1-1.5-1-2.5v-0.2h2.4v0.2c0,0.3,0.1,0.6,0.3,0.8
		c0.2,0.2,0.5,0.3,0.8,0.3h10.1c0.3,0,0.6-0.1,0.8-0.3c0.2-0.2,0.3-0.5,0.3-0.8v-2.6c0-0.3-0.1-0.6-0.3-0.8
		c-0.2-0.2-0.5-0.3-0.8-0.3H235c-1,0-1.8-0.3-2.5-1c-0.7-0.7-1-1.5-1-2.5v-2.6c0-1,0.3-1.8,1-2.5c0.7-0.7,1.5-1,2.5-1h10.1
		c1,0,1.8,0.3,2.5,1c0.7,0.7,1,1.5,1,2.5v0.2h-2.4v-0.2c0-0.3-0.1-0.6-0.3-0.8c-0.2-0.2-0.5-0.3-0.8-0.3H235c-0.3,0-0.6,0.1-0.8,0.3
		c-0.2,0.2-0.3,0.5-0.3,0.8v2.6c0,0.3,0.1,0.6,0.3,0.8c0.2,0.2,0.5,0.3,0.8,0.3h10.1c1,0,1.8,0.3,2.5,1c0.7,0.7,1,1.5,1,2.5v2.6
		c0,1-0.3,1.8-1,2.5c-0.7,0.7-1.5,1-2.5,1H235z"/>
</g>
</svg>
