<svg xmlns="http://www.w3.org/2000/svg" xmlns:xlink="http://www.w3.org/1999/xlink" width="622.079" height="615.746" viewBox="0 0 622.079 615.746">
  <defs>
    <clipPath id="clip-path">
      <rect id="Rectangle_26" data-name="Rectangle 26" width="622.079" height="615.746" transform="translate(0 0)" fill="none"/>
    </clipPath>
  </defs>
  <g id="Group_34" data-name="Group 34" transform="translate(0 -0.003)">
    <g id="Group_34-2" data-name="Group 34" transform="translate(0 0.003)" clip-path="url(#clip-path)">
      <path id="Path_394" data-name="Path 394" d="M621.875,445.869s-7.931,121.267-104.484,138.9-179.463,10.342-253.57,75.2c-107.064,93.7-285.028-8.761-261.745-206.351S246.7,241.816,296.3,237.834c44.05-3.537,334.57-22.571,325.573,208.035" transform="translate(0 -130.108)" fill="#ffd800" fill-rule="evenodd"/>
      <path id="Path_395" data-name="Path 395" d="M823.527,84.486c-18.025,46.464-18.024,122.5,0,168.964l32.781,84.481,32.78-84.481c18.028-46.468,18.028-122.5,0-168.964L856.307,0Z" transform="translate(-446.637 -0.002)" fill="#689c39" fill-rule="evenodd"/>
      <path id="Path_396" data-name="Path 396" d="M1049.63,342C1010.839,359.1,965.1,404.839,948,443.632l-32.856,74.048s17.615-5.186,31.832-12.428,40.46-22.184,40.46-22.184c38.794-17.106,84.528-62.841,101.633-101.634l31.1-70.536Z" transform="translate(-504.607 -171.43)" fill="#689c39" fill-rule="evenodd"/>
      <path id="Path_397" data-name="Path 397" d="M1073.691,721.148c-27.777-10.776-73.231-10.776-101.011,0l-50.5,19.6,50.5,19.6c27.78,10.779,73.234,10.779,101.011,0l50.506-19.6Z" transform="translate(-508.486 -393.184)" fill="#689c39" fill-rule="evenodd"/>
      <path id="Path_398" data-name="Path 398" d="M993.439,839.993c-7.265-16.474-26.688-35.9-43.162-43.163l-29.955-13.206,13.207,29.955c7.265,16.475,26.688,35.9,43.163,43.162l29.955,13.207Z" transform="translate(-507.464 -432.09)" fill="#689c39" fill-rule="evenodd"/>
      <path id="Path_399" data-name="Path 399" d="M524.8,342c38.792,17.106,84.526,62.841,101.634,101.634l31.1,70.535L587,483.068c-38.8-17.106-84.529-62.841-101.634-101.634l-31.1-70.536Z" transform="translate(-250.479 -171.43)" fill="#689c39" fill-rule="evenodd"/>
      <path id="Path_400" data-name="Path 400" d="M504.431,721.147c27.777-10.776,73.231-10.776,101.01,0l50.5,19.6-50.5,19.6c-27.779,10.779-73.233,10.779-101.01,0l-50.506-19.6Z" transform="translate(-250.293 -393.184)" fill="#689c39" fill-rule="evenodd"/>
      <path id="Path_401" data-name="Path 401" d="M726.892,839.993c7.265-16.474,26.687-35.9,43.162-43.163l29.955-13.206L786.8,813.579c-7.265,16.475-26.686,35.9-43.162,43.162l-29.955,13.207Z" transform="translate(-393.524 -432.09)" fill="#689c39" fill-rule="evenodd"/>
      <path id="Path_402" data-name="Path 402" d="M673.615,1310.444c0,9.924-92.619,17.97-206.871,17.97s-206.87-8.046-206.87-17.97,92.619-17.97,206.87-17.97,206.871,8.045,206.871,17.97" transform="translate(-143.294 -712.669)" fill="#e6e6e6"/>
      <path id="Path_403" data-name="Path 403" d="M637.546,522.781V469.607a43.968,43.968,0,1,1,87.936,0v53.174" transform="translate(-351.541 -234.698)" fill="none" stroke="#666" stroke-linecap="round" stroke-linejoin="round" stroke-width="5.848"/>
      <path id="Path_404" data-name="Path 404" d="M679.111,918.931h-314L396.679,592.3H601.756Z" transform="translate(-201.322 -326.596)" fill="#b3b3b3"/>
      <path id="Path_405" data-name="Path 405" d="M969.982,918.931H892.628V592.3h35.555Z" transform="translate(-492.193 -326.596)" fill="gray"/>
      <path id="Path_406" data-name="Path 406" d="M892.628,935.448,931.3,908.424,911.226,622.258" transform="translate(-492.193 -343.113)" fill="none" stroke="#666" stroke-linecap="round" stroke-linejoin="round" stroke-width="5.848"/>
      <path id="Path_407" data-name="Path 407" d="M560.662,640.009a7.143,7.143,0,1,1-7.143-7.143,7.143,7.143,0,0,1,7.143,7.143" transform="translate(-301.271 -348.962)" fill="#666"/>
      <path id="Path_408" data-name="Path 408" d="M756.683,640.009a7.143,7.143,0,1,1-7.143-7.143,7.143,7.143,0,0,1,7.143,7.143" transform="translate(-409.356 -348.962)" fill="#666"/>
      <path id="Path_409" data-name="Path 409" d="M562.3,528.325V475.151a43.968,43.968,0,0,1,87.936,0v53.174" transform="translate(-310.05 -237.755)" fill="none" stroke="gray" stroke-linecap="round" stroke-linejoin="round" stroke-width="5.848"/>
      <path id="Path_410" data-name="Path 410" d="M1071.278,362.634a9.3,9.3,0,1,1-9.3-9.3A9.3,9.3,0,0,1,1071.278,362.634Z" transform="translate(-580.448 -194.831)" fill="none" stroke="#006837" stroke-linecap="round" stroke-linejoin="round" stroke-width="3.807"/>
      <path id="Path_411" data-name="Path 411" d="M1142.354,873.379a9.3,9.3,0,1,1-9.3-9.3A9.3,9.3,0,0,1,1142.354,873.379Z" transform="translate(-619.639 -476.454)" fill="none" stroke="#006837" stroke-linecap="round" stroke-linejoin="round" stroke-width="3.807"/>
      <path id="Path_412" data-name="Path 412" d="M196.251,630.1a9.3,9.3,0,1,1-9.3-9.3A9.3,9.3,0,0,1,196.251,630.1Z" transform="translate(-97.96 -342.311)" fill="none" stroke="#006837" stroke-linecap="round" stroke-linejoin="round" stroke-width="3.807"/>
      <path id="Path_413" data-name="Path 413" d="M832.926,956.681H803.8l-2.015,6.309c-19.468,11.144-23.935,22.049-23.935,44.589v112.683a14.286,14.286,0,0,0,14.245,14.245h40.829Z" transform="translate(-428.906 -527.513)" fill="#448a39"/>
      <path id="Path_414" data-name="Path 414" d="M867.3,956.681h47.644l2.015,6.309c19.468,11.144,23.936,22.049,23.936,44.589v112.683a14.287,14.287,0,0,1-14.245,14.245H872.08Z" transform="translate(-478.228 -527.513)" fill="#448a39"/>
      <rect id="Rectangle_24" data-name="Rectangle 24" width="70.288" height="31.387" transform="translate(371.169 407.13)" fill="#448a39"/>
      <path id="Path_415" data-name="Path 415" d="M925.559,937.53V907.556h-17.72V937.53c17.155,10.607,21.209,21.519,21.209,42.963v112.684a14.286,14.286,0,0,1-14.245,14.245h17.72a14.286,14.286,0,0,0,14.245-14.245V980.492c0-21.444-4.053-32.356-21.209-42.963" transform="translate(-484.101 -500.426)" fill="#447e39"/>
      <path id="Path_416" data-name="Path 416" d="M866.108,1084.045H795.341V1184.28h70.767a3.353,3.353,0,0,0,3.352-3.353V1087.4a3.353,3.353,0,0,0-3.352-3.353" transform="translate(-438.549 -597.741)" fill="#fff"/>
      <path id="Path_417" data-name="Path 417" d="M849.961,1136.685H814.739a2.751,2.751,0,1,1,0-5.5h35.222a2.751,2.751,0,1,1,0,5.5" transform="translate(-447.728 -623.733)" fill="gray"/>
      <path id="Path_418" data-name="Path 418" d="M828.533,1180.206H816.712a2.751,2.751,0,1,1,0-5.5h11.821a2.751,2.751,0,1,1,0,5.5" transform="translate(-448.816 -647.731)" fill="gray"/>
      <path id="Path_419" data-name="Path 419" d="M891.539,898.33H813.17a4.358,4.358,0,0,1-4.358-4.358V883.886a4.358,4.358,0,0,1,4.358-4.358h78.37a4.358,4.358,0,0,1,4.358,4.358v10.087a4.358,4.358,0,0,1-4.358,4.358" transform="translate(-445.977 -484.971)" fill="#a67c52"/>
      <path id="Path_420" data-name="Path 420" d="M895.185,936.562H812.358a1.719,1.719,0,0,1-1.719-1.719v-1.424a1.719,1.719,0,0,1,1.719-1.719h82.827a1.719,1.719,0,0,1,1.719,1.719v1.424a1.719,1.719,0,0,1-1.719,1.719" transform="translate(-446.985 -513.738)" fill="#a67c52"/>
      <path id="Path_421" data-name="Path 421" d="M962.831,879.527H938.1v18.8h24.727a4.358,4.358,0,0,0,4.358-4.358V883.885a4.358,4.358,0,0,0-4.358-4.358" transform="translate(-517.268 -484.971)" fill="#8c6239"/>
      <path id="Path_422" data-name="Path 422" d="M964.757,931.7H938.1v4.863h26.653a2.431,2.431,0,0,0,0-4.863" transform="translate(-517.268 -513.738)" fill="#8c6239"/>
      <path id="Path_423" data-name="Path 423" d="M436.156,829.951l6.407-3.763,10.079,1.772S430.433,843.582,430.5,843.8s5.651-13.847,5.651-13.847" transform="translate(-237.379 -455.56)" fill="#d16d53"/>
      <path id="Path_424" data-name="Path 424" d="M336.761,830.14s41.638,25.866,39.56,31.365l-.851,2.453c-1.105,3.186-6.109,6.563-8.93,4.714l-22.1-10.586-1.88-7.855Z" transform="translate(-185.689 -457.739)" fill="#fff" fill-rule="evenodd"/>
      <path id="Path_425" data-name="Path 425" d="M236.844,801.69a4.1,4.1,0,0,0-.938-3.206c-5.877-7.388,5.516-13.261,8.8-15.892,3.431-2.745-.98-8.725,6.47-11.568s10.068,1.016,10.423.882c.522-.2-.62,7.352-.62,7.352s-3.718,1.372-3.333,8.921,2.549,11.39-1.863,17.52-23.234-.756-23.234-.756c3.073-.162,4.041-1.807,4.29-3.254" transform="translate(-128.23 -424.565)" fill="#6b3328" fill-rule="evenodd"/>
      <path id="Path_426" data-name="Path 426" d="M459.069,825.573l6.341.605a5.319,5.319,0,0,0,3.576-.952l4.21-2.978a2.573,2.573,0,0,0-.041-4.23l-8.012-.31a8.009,8.009,0,0,0-5.168,1.781l-2.589,2.021Z" transform="translate(-252.202 -450.881)" fill="#d16d53"/>
      <path id="Path_427" data-name="Path 427" d="M246.361,1346.822c0,2.315-25.191,4.191-56.266,4.191s-56.267-1.876-56.267-4.191,25.192-4.191,56.267-4.191,56.266,1.876,56.266,4.191" transform="translate(-73.792 -740.325)" fill="#e6e6e6" fill-rule="evenodd"/>
      <path id="Path_428" data-name="Path 428" d="M300.964,1163.411s-7.616-50.914,2.218-71.059l-5.369-69.068L330,1025.5l-21.693,138.308Z" transform="translate(-164.213 -564.238)" fill="#d16d53" fill-rule="evenodd"/>
      <path id="Path_429" data-name="Path 429" d="M309.756,1331.188l6.39,4.654c1.256,1.15,8.111,3.384,8.111,3.384.683,1.429-.653,2.181-1.785,2.369l-20.226-.424s-4.67-.97-.528-9.973c3.68,1.625,7.078,2.79,8.037-.01" transform="translate(-165.422 -734.015)" fill="#333" fill-rule="evenodd"/>
      <path id="Path_430" data-name="Path 430" d="M324.414,1050.047l-7.447,58.492-9.8,58.638H283.612s2.2-10.2,1.94-13.431-1.116-33.919,6.064-48.036l-.57-57.491Z" transform="translate(-156.383 -577.986)" fill="#a67c52" fill-rule="evenodd"/>
      <path id="Path_431" data-name="Path 431" d="M291.246,1105.71l-.57-57.491,11.182.613.417,42.1a93.3,93.3,0,0,1-2.931,23.476c-3.821,15.318-3.2,36.67-2.986,39.339.26,3.235-1.94,13.43-1.94,13.43H283.242s2.2-10.2,1.94-13.43-1.117-33.92,6.064-48.036" transform="translate(-156.179 -577.987)" fill="#8c6239" fill-rule="evenodd"/>
      <path id="Path_432" data-name="Path 432" d="M208.569,1179.951l-29.8,55.309c-5.786,2.095-6.15-1.271-4.518-6.647,6.837-23.324,3.837-37.561,23.08-58.357Z" transform="translate(-95.618 -645.278)" fill="#d16d53" fill-rule="evenodd"/>
      <path id="Path_433" data-name="Path 433" d="M232.684,1034.342l-17.575,57.6a52.82,52.82,0,0,1-3.643,9.068l-28.351,50.2-17.936-3.789c3.727-24.018,11.256-40.384,27.613-63.518l6.376-55.674,15.229.611Z" transform="translate(-91.08 -566.966)" fill="#a67c52" fill-rule="evenodd"/>
      <path id="Path_434" data-name="Path 434" d="M170.409,1307.031l.225,7.9c-.142,1.7,2.282,8.487,2.282,8.487-.713,1.414-2.125.817-2.966.036l-12.032-16.263s-2.089-4.289,7.568-6.516c.965,3.906,2.121,7.307,4.923,6.353" transform="translate(-86.971 -717.192)" fill="#333" fill-rule="evenodd"/>
      <path id="Path_435" data-name="Path 435" d="M252.364,946.986l44,3.351c7.157,2.628,4.3,43.89,4.3,43.89l-28.93,1.34c-13.441-.28-29.339,10.261-31.011-12.135-1.912-25.6,11.645-36.446,11.645-36.446" transform="translate(-132.63 -522.167)" fill="#a67c52" fill-rule="evenodd"/>
      <path id="Path_436" data-name="Path 436" d="M280.873,827.816l-16.16-1.89-4.431.174-16.84,5.873a12.38,12.38,0,0,0-6.136,15.364l4.122,19.274c-4.379,14.538-6.639,24.731-5.878,39.692,23.877,8.867,56.7,8.432,64.234-2.522-1.27-29.949-7.282-56.691-18.91-75.965" transform="translate(-129.801 -455.415)" fill="#006837" fill-rule="evenodd"/>
      <path id="Path_437" data-name="Path 437" d="M305.309,800.336l-1.549,11.628a3.911,3.911,0,0,1-2.409,3.118,3.845,3.845,0,0,1-3.871-.6l-1.034-.844a5.055,5.055,0,0,1-1.706-5.09c1.161-4.836,3.275-13.645,3.275-13.645Z" transform="translate(-162.442 -438.312)" fill="#d16d53" fill-rule="evenodd"/>
      <path id="Path_438" data-name="Path 438" d="M313.225,814.81l-.8,3.777-3.16-3.776Z" transform="translate(-170.529 -449.286)" fill="#873b24" fill-rule="evenodd"/>
      <path id="Path_439" data-name="Path 439" d="M298.73,825.515s5.295,13.106-3.7,13.682-13.921-13.047-13.921-13.047l6.572-2.919Z" transform="translate(-155.002 -453.929)" fill="#d16d53"/>
      <path id="Path_440" data-name="Path 440" d="M294.773,783.7a3.4,3.4,0,0,1,2.1-4.314L303,777.3c1.761-.6,3.41.47,4.275,2.137a36.819,36.819,0,0,1,2.593,9.693c.247,1.864-.577,3.942-2.338,4.543-1.88.641-8.123.752-9.812-2.462a49.494,49.494,0,0,1-2.951-7.506" transform="translate(-162.438 -428.508)" fill="#d16d53" fill-rule="evenodd"/>
      <path id="Path_441" data-name="Path 441" d="M283.254,789.268s.046-9.651,2.35-12.79c3.1-4.219,7.749-7.034,13.966-3.364,0,0-2.2,7.822-13.963,15.86Z" transform="translate(-156.186 -425.358)" fill="#6b3328" fill-rule="evenodd"/>
      <path id="Path_442" data-name="Path 442" d="M295.082,804.052a2.55,2.55,0,0,0,3.519.741,2.61,2.61,0,0,0,.052-3.631,2.551,2.551,0,0,0-3.52-.741,2.61,2.61,0,0,0-.052,3.631" transform="translate(-162.32 -441.112)" fill="#d16d53" fill-rule="evenodd"/>
      <path id="Path_443" data-name="Path 443" d="M322.258,801.44l-3.08.982s.729,2.108,2.154,1.458.926-2.44.926-2.44" transform="translate(-175.994 -441.914)" fill="#fff" fill-rule="evenodd"/>
      <path id="Path_444" data-name="Path 444" d="M211.293,887.911l18.038-22.047A11.115,11.115,0,0,0,226.6,849.15a4.94,4.94,0,0,0-6.743,1.614l-17.8,28.508Z" transform="translate(-111.417 -467.828)" fill="#d16d53" fill-rule="evenodd"/>
      <line id="Line_20" data-name="Line 20" x2="3.273" y2="10.587" transform="translate(107.226 433.611)" fill="none" stroke="#bd6174" stroke-linecap="round" stroke-linejoin="round" stroke-width="2.992"/>
      <path id="Path_445" data-name="Path 445" d="M290.7,774.631s-4.093-.252-4.923,5.527" transform="translate(-157.574 -427.13)" fill="none" stroke="#8b939c" stroke-linecap="round" stroke-linejoin="round" stroke-width="1.657"/>
      <path id="Path_446" data-name="Path 446" d="M216.36,841.253l2,30.639L213.216,899.7s-2.68,55.049-4.144,64.4-12.38,26.8-12.38,26.8,16.452,4.922,24.715,2.6c0,0,12.441-44.284,14.277-53.045s6.232-63.28,6.371-76.528S231.489,832.1,231.489,832.1l-9.937,3.069s-4.7,2.348-5.192,6.082" transform="translate(-108.456 -458.821)" fill="#fff" fill-rule="evenodd"/>
      <path id="Path_447" data-name="Path 447" d="M203.853,909.543c-5.716,2.376-9.074,7.6-7.1,14.5L213.043,955.1l4.738-5.559-8.337-25.007Z" transform="translate(-108.175 -501.521)" fill="#d16d53" fill-rule="evenodd"/>
      <path id="Path_448" data-name="Path 448" d="M234.9,996.81l.847,6.331a5.332,5.332,0,0,1-.818,3.618l-2.823,4.331a2.578,2.578,0,0,1-4.239.118l-.615-8.016a8.029,8.029,0,0,1,1.588-5.245l1.926-2.67Z" transform="translate(-125.297 -548.795)" fill="#d16d53"/>
      <path id="Path_449" data-name="Path 449" d="M216.247,912.605l-10.682,2.843s-12.156-22.645-13.136-25.292a13.836,13.836,0,0,1,2.255-12.647c3.529-4.412,18.968-28.043,18.968-28.043s6.973-7.835,13.089,4.408c4.313,8.636-18.234,31.771-18.234,31.771Z" transform="translate(-105.747 -467.034)" fill="#fff" fill-rule="evenodd"/>
      <path id="Path_450" data-name="Path 450" d="M247.319,889.918l7.97-13.084v-2.882" transform="translate(-136.371 -481.896)" fill="none" stroke="#b3b3b3" stroke-linecap="round" stroke-linejoin="round" stroke-width="2.974"/>
      <path id="Path_451" data-name="Path 451" d="M325.23,828.791s15.572,38.129,16.663,64.3-4.986,97.374-4.986,97.374l8.215-1.247,5.807-87.247s.623-26.179-8.413-51.182l-8.32-15.1-3.793-6.3Z" transform="translate(-179.331 -456.995)" fill="#fff" fill-rule="evenodd"/>
      <path id="Path_452" data-name="Path 452" d="M400.4,861.664c1.506-1.3,21.793-29.29,21.793-29.29l-9.323-7.667-30.338,23.266Z" transform="translate(-210.93 -454.743)" fill="#fff" fill-rule="evenodd"/>
      <path id="Path_453" data-name="Path 453" d="M638.444,1119.614l4.311,7.841v93.317a3.577,3.577,0,0,0,3.576,3.577H705.21a3.577,3.577,0,0,0,3.576-3.577V1128.28l4.31-8.666Z" transform="translate(-352.037 -617.354)" fill="#c69c6d"/>
      <path id="Path_454" data-name="Path 454" d="M675.22,1119.614c44.675,9.392,40.94,50.555,40.488,89.564,0,12.614-17.217,15.171-19.193,15.171h28.973a3.577,3.577,0,0,0,3.577-3.577V1128.28l4.31-8.666Z" transform="translate(-372.315 -617.354)" fill="#a67c52"/>
      <path id="Path_455" data-name="Path 455" d="M706.527,1053.8H647.556a5.639,5.639,0,0,0-5.639,5.64v8.759h70.249v-8.759a5.639,5.639,0,0,0-5.639-5.64" transform="translate(-353.952 -581.065)" fill="#8c6239"/>
      <path id="Path_456" data-name="Path 456" d="M710.814,1101.024H627.4v-9.3a5.825,5.825,0,0,1,5.825-5.825h71.768a5.825,5.825,0,0,1,5.825,5.825Z" transform="translate(-345.945 -598.764)" fill="#8c6239"/>
      <rect id="Rectangle_25" data-name="Rectangle 25" width="33.016" height="46.858" transform="translate(290.718 531.651)" fill="#fff"/>
      <line id="Line_21" data-name="Line 21" x2="68.747" transform="translate(287.966 487.135)" fill="none" stroke="#754c24" stroke-linecap="round" stroke-linejoin="round" stroke-width="3.256"/>
      <line id="Line_22" data-name="Line 22" y2="11.394" transform="translate(298.164 475.015)" fill="none" stroke="#754c24" stroke-linecap="round" stroke-linejoin="round" stroke-width="3.256"/>
      <line id="Line_23" data-name="Line 23" y2="11.394" transform="translate(310.907 475.015)" fill="none" stroke="#754c24" stroke-linecap="round" stroke-linejoin="round" stroke-width="3.256"/>
      <line id="Line_24" data-name="Line 24" y2="11.394" transform="translate(323.65 475.015)" fill="none" stroke="#754c24" stroke-linecap="round" stroke-linejoin="round" stroke-width="3.256"/>
      <line id="Line_25" data-name="Line 25" y2="11.394" transform="translate(336.393 475.015)" fill="none" stroke="#754c24" stroke-linecap="round" stroke-linejoin="round" stroke-width="3.256"/>
      <line id="Line_26" data-name="Line 26" y2="11.394" transform="translate(346.325 475.015)" fill="none" stroke="#754c24" stroke-linecap="round" stroke-linejoin="round" stroke-width="3.256"/>
    </g>
  </g>
</svg>
