<?xml version="1.0" encoding="UTF-8"?>
<svg id="Ebene_1" xmlns="http://www.w3.org/2000/svg" version="1.1" viewBox="0 0 500 500">
  <!-- Generator: Adobe Illustrator 29.3.1, SVG Export Plug-In . SVG Version: 2.1.0 Build 151)  -->
  <defs>
    <style>
      .st0 {
        fill: #fff;
        stroke: #fff;
        stroke-miterlimit: 10;
        stroke-width: 2px;
      }

      .st1 {
        fill: #d8c049;
      }
    </style>
  </defs>
  <path class="st1" d="M250,5C114.7,5,5,114.7,5,250s109.7,245,245,245,245-109.7,245-245S385.3,5,250,5h0Z"/>
  <g>
    <path class="st0" d="M195.1,118.3h105.1c2.1,0,3.8,1.7,3.8,3.8v33.6c0,4.7,2.2,9.2,5.9,12,29.7,22.2,45.1,57.5,41.2,94.6-5.1,48.1-43.6,86.9-91.7,92.1-30.1,3.3-59-5.9-81.3-25.9-22-19.7-34.7-48-34.7-77.5s15.2-63.5,41.8-83.4c3.7-2.7,5.9-7.2,5.9-11.9v-33.6c0-2.1,1.7-3.8,3.8-3.8ZM296.3,126h-97.4v29.8c0,7.2-3.4,13.9-9,18.1-24.6,18.5-38.7,46.6-38.7,77.2s11.7,53.5,32.1,71.8c20.7,18.5,47.5,27,75.4,24,44.5-4.9,80.2-40.8,84.9-85.3,3.6-34.3-10.7-67.1-38.2-87.6-5.6-4.3-9-11-9-18.2v-29.8Z"/>
    <g>
      <path class="st0" d="M250,384.2c2.1,0,3.8,1.7,3.8,3.8v41.1c0,2.1-1.7,3.8-3.8,3.8s-3.8-1.7-3.8-3.8v-41.1c0-2.1,1.7-3.8,3.8-3.8Z"/>
      <path class="st0" d="M319.3,365.7c1.3,0,2.6.7,3.3,1.9l20.5,35.6c1.1,1.8.4,4.2-1.4,5.2-1.8,1.1-4.2.4-5.2-1.4l-20.5-35.6c-1.1-1.8-.4-4.2,1.4-5.2.6-.4,1.3-.5,1.9-.5Z"/>
      <path class="st0" d="M370,314.9c.7,0,1.3.2,1.9.5l35.6,20.5c1.8,1.1,2.5,3.4,1.4,5.2-1.1,1.8-3.4,2.5-5.2,1.4l-35.6-20.5c-1.8-1.1-2.5-3.4-1.4-5.2.7-1.2,2-1.9,3.3-1.9Z"/>
      <path class="st0" d="M388.6,245.6h41.1c2.1,0,3.8,1.7,3.8,3.8s-1.7,3.8-3.8,3.8h-41.1c-2.1,0-3.8-1.7-3.8-3.8s1.7-3.8,3.8-3.8Z"/>
      <path class="st0" d="M405.6,155.8c1.3,0,2.6.7,3.3,1.9,1.1,1.8.4,4.2-1.4,5.2l-35.6,20.5c-1.8,1.1-4.2.4-5.2-1.4-1.1-1.8-.4-4.2,1.4-5.2l35.6-20.5c.6-.4,1.3-.5,1.9-.5Z"/>
      <path class="st0" d="M94.4,155.8c.7,0,1.3.2,1.9.5l35.6,20.5c1.8,1.1,2.5,3.4,1.4,5.2-1.1,1.8-3.4,2.5-5.2,1.4l-35.6-20.5c-1.8-1.1-2.5-3.4-1.4-5.2.7-1.2,2-1.9,3.3-1.9Z"/>
      <path class="st0" d="M70.3,245.6h41.1c2.1,0,3.8,1.7,3.8,3.8s-1.7,3.8-3.8,3.8h-41.1c-2.1,0-3.8-1.7-3.8-3.8s1.7-3.8,3.8-3.8Z"/>
      <path class="st0" d="M130,314.9c1.3,0,2.6.7,3.3,1.9,1.1,1.8.4,4.2-1.4,5.2l-35.6,20.5c-1.8,1.1-4.2.4-5.2-1.4-1.1-1.8-.4-4.2,1.4-5.2l35.6-20.5c.6-.4,1.3-.5,1.9-.5Z"/>
      <path class="st0" d="M180.7,365.7c.7,0,1.3.2,1.9.5,1.8,1.1,2.5,3.4,1.4,5.2l-20.5,35.6c-1.1,1.8-3.4,2.5-5.2,1.4-1.8-1.1-2.5-3.4-1.4-5.2l20.5-35.6c.7-1.2,2-1.9,3.3-1.9Z"/>
    </g>
    <path class="st0" d="M201.1,78.4h92.9c2.1,0,3.8,1.7,3.8,3.8v39.9c0,2.1-1.7,3.8-3.8,3.8h-92.9c-2.1,0-3.8-1.7-3.8-3.8v-39.9c0-2.1,1.7-3.8,3.8-3.8ZM290.2,86.1h-85.3v32.2h85.3v-32.2Z"/>
    <path class="st0" d="M221.1,41h53c8,0,14.5,6.5,14.5,14.5v26.8c0,2.1-1.7,3.8-3.8,3.8h-74.3c-2.1,0-3.8-1.7-3.8-3.8v-26.8c0-8,6.5-14.5,14.5-14.5ZM280.9,78.4v-22.9c0-3.8-3.1-6.8-6.8-6.8h-53c-3.8,0-6.8,3.1-6.8,6.8v22.9h66.7Z"/>
    <path class="st0" d="M227.9,118.3h39.5c1.9,0,3.5,1.4,3.8,3.3l15.9,105.4c.2,1.6-.5,3.1-1.9,3.9-1.4.8-3.1.7-4.3-.3l-15.4-12.3-15.4,12.3c-1.4,1.1-3.4,1.1-4.8,0l-15.5-12.3-15.4,12.3c-1.2,1-2.9,1.1-4.3.3-1.4-.8-2.1-2.3-1.9-3.9l15.9-105.4c.3-1.9,1.9-3.3,3.8-3.3ZM264.1,126h-32.9l-14,92.4,10.2-8.1c1.4-1.1,3.4-1.1,4.8,0l15.5,12.3,15.4-12.3c1.4-1.1,3.4-1.1,4.8,0l10.1,8.1-13.9-92.4Z"/>
  </g>
</svg>