<?xml version="1.0" encoding="UTF-8"?>
<svg id="Ebene_1" xmlns="http://www.w3.org/2000/svg" version="1.1" viewBox="0 0 313 312">
  <!-- Generator: Adobe Illustrator 29.3.1, SVG Export Plug-In . SVG Version: 2.1.0 Build 151)  -->
  <defs>
    <style>
      .st0 {
        fill: #da664c;
      }

      .st1 {
        stroke-width: 5.3px;
      }

      .st1, .st2 {
        fill: none;
        stroke: #fff;
      }

      .st3 {
        fill: #fff;
      }
    </style>
  </defs>
  <g>
    <path class="st0" d="M157.2,306.1c82.5,0,149.3-66.8,149.3-149.3S239.7,7.5,157.2,7.5,7.9,74.3,7.9,156.8s66.8,149.3,149.3,149.3"/>
    <path class="st3" d="M212,111c.5-.5,1.2-.8,1.9-.7.7,0,1.2.3,1.7.9.5.5.7,1.2.7,1.9v5.1c0,.7-.3,1.4-.8,1.9s-1.1.7-1.8.7-1.3-.2-1.8-.7-.8-1.1-.8-1.9v-5.2c0-.7.3-1.4.8-1.9M225.5,122v-4.4c0-1.5-.4-3-1.1-4.3-.8-1.3-1.8-2.4-3.1-3.1-1.3-.8-2.7-1.1-4.3-1.1h-5.7c-2.5,0-4.7.9-6.4,2.7s-2.7,3.9-2.7,6.4v7.3c0,2.5.9,4.7,2.7,6.4,1.8,1.8,3.9,2.7,6.4,2.7h5.7c2.4,0,4.4-.8,6.1-2.5,1.7-1.7,2.5-3.7,2.5-6.1h-9.1v4.5c0,.7-.2,1.4-.7,1.9s-1.1.8-1.7.9c-.7,0-1.4-.2-1.9-.7-.6-.5-.8-1.1-.8-1.9v-8.7h14.3-.2ZM198.6,111c-1.3-1.3-2.8-1.9-4.7-1.9h-9.9c-1.2,0-2.3.3-3.4.9-1.1.6-1.9,1.4-2.5,2.5-.9,1.5-1.2,2.9-.9,4.2.3,1.3.9,2.4,1.9,3.3s2.2,1.8,3.6,2.7c1.4.9,2.7,1.6,4,2.2s2.4,1.2,3.3,1.7,1.4,1.1,1.4,1.5v2.6c0,.7-.2,1.4-.7,1.9s-1.1.8-1.7.9c-.7,0-1.4-.2-1.9-.7-.6-.5-.8-1.1-.8-1.9v-2.7c0-.6-.2-1-.6-1.4-.4-.4-.9-.6-1.4-.6h-7.1v2c0,1.8.6,3.4,1.9,4.7,1.3,1.3,2.8,1.9,4.7,1.9h10.2c1.8,0,3.4-.6,4.7-1.9s1.9-2.8,1.9-4.7-.4-2.1-1.1-3.1c-.7-1-1.6-1.8-2.6-2.6-1-.7-2.2-1.4-3.4-2.1s-2.4-1.2-3.5-1.7-1.9-1-2.7-1.5c-.7-.5-1.1-1-1.1-1.4v-2.6c0-.7.2-1.4.7-1.9s1.1-.8,1.8-.9c.7,0,1.4.2,1.9.7s.8,1.1.8,1.9v2.7c0,.6.2,1,.6,1.4.4.4.9.6,1.4.6h7.1v-2c0-1.8-.6-3.4-1.9-4.7M165.9,102c0,1.5.5,2.7,1.5,3.7s2.3,1.5,3.7,1.5h3.8v-5.7h-9.1v.5h0ZM175,109h-9.1v25.5h9.1v-25.5ZM150.3,111c.5-.5,1.2-.8,1.9-.7.7,0,1.2.3,1.7.9.5.5.7,1.2.7,1.9v5.1c0,.7-.3,1.4-.8,1.9s-1.1.7-1.8.7-1.3-.2-1.8-.7-.8-1.1-.8-1.9v-5.2c0-.7.3-1.4.8-1.9M163.7,122v-4.4c0-1.5-.4-3-1.1-4.3-.8-1.3-1.8-2.4-3.1-3.1s-2.7-1.1-4.3-1.1h-5.7c-2.5,0-4.7.9-6.4,2.7-1.8,1.8-2.7,3.9-2.7,6.4v7.3c0,2.5.9,4.7,2.7,6.4,1.8,1.8,3.9,2.7,6.4,2.7h5.7c2.4,0,4.4-.8,6.1-2.5,1.7-1.7,2.5-3.7,2.5-6.1h-9.1v4.5c0,.7-.2,1.4-.7,1.9s-1.1.8-1.7.9c-.7,0-1.4-.2-1.9-.7-.6-.5-.8-1.1-.8-1.9v-8.7h14.3-.2ZM115.8,109v25.5h9.1v-21.6c0-.7.3-1.4.8-1.9s1.1-.7,1.8-.7,1.3.2,1.8.7.8,1.1.8,1.9v7.1c0,.5.2,1,.6,1.4.4.4.9.6,1.4.6h7.1v-5.8c0-2-.7-3.7-2.1-5.1-1.4-1.4-3.1-2.1-5-2.1h-16.3,0ZM103.7,123.7c-.5.5-1.1.8-1.8.8s-1.3-.3-1.8-.8-.8-1.1-.8-1.8v-16.5c0-.7.3-1.3.8-1.8s1.1-.8,1.8-.8,1.3.3,1.8.8.8,1.1.8,1.8v16.5c0,.7-.3,1.3-.8,1.8M90.2,101.5v33.1h9.1v-8.8h7.2c1.9,0,3.6-.7,5-2.1s2.1-3.1,2.1-5.1v-9.9c0-2-.7-3.7-2.1-5.1-1.4-1.4-3.1-2.1-5-2.1h-16.3Z"/>
    <path class="st3" d="M199.6,68.5c.5-.5,1.2-.8,1.9-.7.7,0,1.2.3,1.7.9.5.5.7,1.2.7,1.9v5.1c0,.7-.3,1.4-.8,1.9s-1.1.7-1.8.7-1.3-.2-1.8-.7-.8-1.1-.8-1.9v-5.2c0-.7.3-1.4.8-1.9M213.1,79.5v-4.4c0-1.5-.4-3-1.1-4.3-.8-1.3-1.8-2.4-3.1-3.1-1.3-.8-2.7-1.1-4.3-1.1h-5.7c-2.5,0-4.7.9-6.4,2.7-1.8,1.8-2.7,3.9-2.7,6.4v7.3c0,2.5.9,4.7,2.7,6.4,1.8,1.8,3.9,2.7,6.4,2.7h5.7c2.4,0,4.4-.8,6.1-2.5,1.7-1.7,2.5-3.7,2.5-6.1h-9.1v4.5c0,.7-.2,1.4-.7,1.9s-1.1.8-1.7.9c-.7,0-1.4-.2-1.9-.7-.6-.5-.8-1.1-.8-1.9v-8.7h14.3-.2ZM165.2,66.5v25.5h9.1v-21.6c0-.7.3-1.4.8-1.9s1.1-.7,1.8-.7,1.3.2,1.8.7.8,1.1.8,1.9v7.1c0,.5.2,1,.6,1.4.4.4.9.6,1.4.6h7.1v-5.8c0-2-.7-3.7-2.1-5.1-1.4-1.4-3.1-2.1-5-2.1h-16.3,0ZM153.2,59.4c0,1.5.5,2.7,1.5,3.7s2.3,1.5,3.7,1.5h3.8v-5.7h-9.1v.5h0ZM162.3,66.5h-9.1v25.5h9.1v-25.5ZM140.9,90c-.5.5-1.1.7-1.8.7s-1.3-.2-1.9-.7c-.5-.5-.8-1.1-.8-1.9v-6.1c0-.7.3-1.3.8-1.8s1.1-.8,1.9-.8,1.3.3,1.8.8.7,1.1.7,1.8v6.1c0,.7-.2,1.4-.7,1.9M139,66.5c-.9,0-1.7,0-2.6.2-2.6.4-4.8,1.4-6.5,3s-2.6,3.4-2.6,5.4h9.1v-1.2c.2-1.7.5-3.2.9-4.3.5-1.2,1-1.7,1.7-1.7s1.2.6,1.7,1.7c.5,1.2.8,2.6.9,4.3v4.3h-5.2c-2.5,0-4.7.7-6.4,2-1.8,1.3-2.7,3-2.7,4.9s.9,3.5,2.7,4.9c1.8,1.3,3.9,2,6.4,2h14.3v-17c0-2-.9-3.8-2.6-5.4-1.7-1.6-3.9-2.6-6.5-3-.9-.1-1.8-.2-2.6-.2M116.9,62.8c0,1.1.4,2.1,1.2,2.9s1.8,1.2,2.9,1.2h5v-8h-23.4v33.1h9.1v-9.9c0-.7.3-1.3.8-1.8s1.1-.8,1.8-.8,1.3.3,1.8.8.8,1.1.8,1.8v1.2h5.2c1.1,0,2-.4,2.8-1.2.8-.8,1.1-1.7,1.1-2.8s-.4-2-1.1-2.8c-.8-.8-1.7-1.2-2.8-1.2h-5.2v.3c0,.7-.3,1.4-.8,1.9s-1.1.7-1.8.7-1.3-.2-1.8-.7-.8-1.1-.8-1.9v-12.8c0-.7.3-1.3.8-1.8s1.1-.8,1.8-.8,1.3.3,1.8.8.8,1.1.8,1.8"/>
    <path class="st3" d="M235.9,232.4v-1.3h-3c-.6,0-1.1-.2-1.6-.7-.4-.4-.7-1-.7-1.6v.3c0-1.5-.6-2.8-1.6-3.9-1.1-1.1-2.4-1.6-4-1.6h-3.5v7.6h-1.2v1.3h1.2v18.8c0,1.5.5,2.8,1.6,3.8,1.1,1.1,2.3,1.6,3.8,1.6h8.9v-1.3h-3c-.6,0-1.2-.2-1.6-.6-.4-.4-.6-1-.6-1.6v-18.5c0-.6.2-1.2.6-1.6.4-.4,1-.6,1.6-.6h3.1ZM211.5,228.9c.5-.4.7-1,.7-1.6s0-.8-.3-1.2c-.2-.4-.5-.6-.9-.9-.4-.2-.7-.3-1.2-.3s-1.2.2-1.6.7c-.4.5-.7,1-.7,1.6s0,.8.3,1.1c.2.4.5.6.8.9.4.2.7.3,1.2.3s1.2-.2,1.6-.7M204.9,229.3c.3-.1.5-.3.7-.5s.4-.4.5-.7c0-.3.2-.6.2-.9,0-.6-.2-1.2-.7-1.6-.5-.5-1-.7-1.6-.7s-1.2.2-1.6.7c-.4.5-.7,1-.7,1.6s0,.8.3,1.1c.2.4.5.6.8.9.4.2.7.3,1.2.3s.6,0,.9-.2M208.7,254.6c-.5.5-1.1.7-1.8.7s-1.3-.2-1.9-.7c-.5-.5-.8-1.1-.8-1.9v-6.1c0-.7.3-1.3.8-1.8s1.1-.8,1.9-.8,1.3.3,1.8.8.7,1.1.7,1.8v6.1c0,.7-.2,1.4-.7,1.9M206.9,231.1c-.9,0-1.7,0-2.6.2-2.6.4-4.8,1.4-6.5,3s-2.6,3.3-2.6,5.4h9.1v-1.2c.2-1.7.5-3.2.9-4.3.5-1.2,1-1.7,1.7-1.7s1.2.6,1.7,1.7c.5,1.2.8,2.6.9,4.3v4.3h-5.2c-2.5,0-4.7.7-6.4,2-1.8,1.3-2.7,3-2.7,4.9s.9,3.5,2.7,4.9c1.8,1.3,3.9,2,6.4,2h14.3v-17c0-2-.9-3.8-2.6-5.4-1.7-1.6-3.9-2.6-6.5-3-.9-.1-1.8-.2-2.6-.2M194.8,232.4v-1.3h-3c-.6,0-1.1-.2-1.6-.7-.4-.4-.7-1-.7-1.6v.3c0-1.5-.6-2.8-1.6-3.9-1.1-1.1-2.4-1.6-4-1.6h-3.5v7.6h-1.2v1.3h1.2v18.8c0,1.5.5,2.8,1.6,3.8,1.1,1.1,2.3,1.6,3.8,1.6h8.9v-1.3h-3c-.6,0-1.2-.2-1.6-.6-.4-.4-.6-1-.6-1.6v-18.5c0-.6.2-1.2.6-1.6.4-.4,1-.6,1.6-.6h3.1ZM168.1,224c0,1.5.5,2.7,1.5,3.7s2.3,1.5,3.7,1.5h3.8v-5.7h-9.1v.5h0ZM177.2,231.1h-9.1v25.5h9.1v-25.5ZM157.3,224.7c-.7.7-1.1,1.6-1.1,2.6v29.4h9.1v-33.1h-5.4c-1,0-1.9.4-2.6,1.1M143.9,254.6c-.5.5-1.1.7-1.8.7s-1.3-.2-1.9-.7c-.5-.5-.8-1.1-.8-1.9v-6.1c0-.7.3-1.3.8-1.8s1.1-.8,1.9-.8,1.3.3,1.8.8.7,1.1.7,1.8v6.1c0,.7-.2,1.4-.7,1.9M142,231.1c-.9,0-1.7,0-2.6.2-2.6.4-4.8,1.4-6.5,3s-2.6,3.3-2.6,5.4h9.1v-1.2c.2-1.7.5-3.2.9-4.3.5-1.2,1-1.7,1.7-1.7s1.2.6,1.7,1.7c.5,1.2.8,2.6.9,4.3v4.3h-5.2c-2.5,0-4.7.7-6.4,2-1.8,1.3-2.7,3-2.7,4.9s.9,3.5,2.7,4.9c1.8,1.3,3.9,2,6.4,2h14.3v-17c0-2-.9-3.8-2.6-5.4-1.7-1.6-3.9-2.6-6.5-3-.9-.1-1.8-.2-2.6-.2M121.1,232.9c-1.2,1.2-1.8,2.6-1.8,4.3v15.6c0,.7-.3,1.3-.8,1.8s-1.1.8-1.8.8-1.3-.3-1.8-.8-.8-1.1-.8-1.8v-15.6c0-1.7-.6-3.1-1.8-4.3-1.2-1.2-2.6-1.8-4.2-1.8h-3.1v20.6c0,1.4.5,2.6,1.4,3.5s2.1,1.4,3.5,1.4h13.5c1.4,0,2.6-.5,3.5-1.4s1.4-2.1,1.4-3.5v-20.6h-3.1c-1.7,0-3.1.6-4.3,1.8M89.2,254.4c-.4-.5-.6-1-.6-1.6v-25.3c0-.7.3-1.3.8-1.8s1.1-.8,1.8-.8,1.3.3,1.8.8.8,1.1.8,1.8v25.3c0,.6-.2,1.1-.6,1.6-.4.5-.8.8-1.4.9v-2.8h-1.2v2.8c-.6-.1-1.1-.5-1.5-.9M100.8,254.5c1.4-1.4,2.1-3.1,2.1-5.1v-18.7c0-2-.7-3.7-2.1-5.1-1.4-1.4-3.1-2.1-5-2.1h-9.1c-2,0-3.7.7-5.1,2.1s-2.1,3.1-2.1,5.1v18.7c0,2,.7,3.7,2.1,5.1,1.4,1.4,3.1,2.1,5.1,2.1h3.9v2.3c0,.7.2,1.3.7,1.8s1.1.7,1.7.7h9.8v-1.5c0-.7-.2-1.3-.7-1.8s-1.1-.7-1.7-.7h-8.6v-.9h3.9c1.9,0,3.6-.7,5-2.1"/>
    <path class="st3" d="M238.6,190.6c.5-.5,1.2-.8,1.9-.7.7,0,1.2.3,1.7.9.5.5.7,1.2.7,1.9v5.1c0,.7-.3,1.4-.8,1.9s-1.1.7-1.8.7-1.3-.2-1.8-.7-.8-1.1-.8-1.9v-5.2c0-.7.3-1.4.8-1.9M252,201.6v-4.4c0-1.5-.4-3-1.1-4.3-.8-1.3-1.8-2.4-3.1-3.1-1.3-.8-2.7-1.1-4.3-1.1h-5.7c-2.5,0-4.7.9-6.4,2.7-1.8,1.8-2.7,3.9-2.7,6.4v7.3c0,2.5.9,4.7,2.7,6.4s3.9,2.7,6.4,2.7h5.7c2.4,0,4.4-.8,6.1-2.5,1.7-1.7,2.5-3.7,2.5-6.1h-9.1v4.5c0,.7-.2,1.4-.7,1.9s-1.1.8-1.7.9c-.7,0-1.4-.2-1.9-.7s-.8-1.1-.8-1.9v-8.7h14.3-.2ZM230.4,189.9v-1.3h-3c-.6,0-1.1-.2-1.6-.7-.4-.4-.7-1-.7-1.6v.3c0-1.5-.6-2.8-1.6-3.9-1.1-1.1-2.4-1.6-4-1.6h-3.5v7.6h-1.2v1.3h1.2v18.8c0,1.5.5,2.8,1.6,3.8,1.1,1.1,2.3,1.6,3.8,1.6h8.9v-1.3h-3c-.6,0-1.2-.2-1.6-.6-.4-.4-.6-1-.6-1.6v-18.5c0-.6.2-1.2.6-1.6.4-.4,1-.6,1.6-.6h3.1ZM213.3,190.2c0-2.5-.9-4.7-2.7-6.5s-3.9-2.7-6.4-2.7h-5.2c-1.2,0-2.4.2-3.5.7s-2.1,1.1-2.9,1.9c-.8.8-1.5,1.8-1.9,2.9-.5,1.1-.7,2.3-.7,3.6v23.9h9.1v-9.9c0-.7.3-1.3.8-1.8s1.1-.8,1.8-.8h2.7c.2,1,.6,1.9,1.2,2.7.6.8,1.4,1.5,2.3,1.9.9.5,1.9.7,2.9.7h2.5v-6.6h-11.7c-.7,0-1.3-.2-1.8-.7s-.8-1.1-.8-1.9v-12.8c0-.7.3-1.3.8-1.8s1.1-.8,1.8-.8,1.3.3,1.8.8.8,1.1.8,1.8v12.2h9.1v-7,.2ZM180.7,186.8c0-.6-.2-1.2-.7-1.6-.5-.5-1-.7-1.6-.7s-.6,0-.9.2c-.3.1-.5.3-.7.5s-.4.5-.5.7c0,.3-.2.6-.2.9,0,.6.2,1.2.7,1.6.4.4,1,.7,1.6.7s1.2-.2,1.6-.7c.5-.4.7-1,.7-1.6M174.9,186.8c0-.6-.2-1.2-.7-1.6-.5-.5-1-.7-1.6-.7s-.6,0-.9.2c-.3.1-.5.3-.7.5s-.4.5-.5.7c0,.3-.2.6-.2.9,0,.6.2,1.2.7,1.6.4.4,1,.7,1.6.7s1.2-.2,1.6-.7c.5-.4.7-1,.7-1.6M179.8,190.3c-1.2,1.2-1.8,2.6-1.8,4.3v15.6c0,.7-.3,1.3-.8,1.8s-1.1.8-1.8.8-1.3-.3-1.8-.8-.8-1.1-.8-1.8v-15.6c0-1.7-.6-3.1-1.8-4.3-1.2-1.2-2.6-1.8-4.2-1.8h-3.1v20.6c0,1.4.5,2.6,1.4,3.5,1,1,2.1,1.4,3.5,1.4h13.5c1.4,0,2.6-.5,3.5-1.4,1-1,1.4-2.1,1.4-3.5v-20.6h-3.1c-1.7,0-3.1.6-4.3,1.8M138.7,188.6v25.5h9.1v-21.6c0-.7.3-1.4.8-1.9s1.1-.7,1.8-.7,1.3.2,1.8.7.8,1.1.8,1.9v7.1c0,.5.2,1,.6,1.4.4.4.9.6,1.4.6h7.1v-5.8c0-2-.7-3.7-2.1-5.1-1.4-1.4-3.1-2.1-5-2.1h-16.3,0ZM126.5,212.1c-.5.5-1.1.7-1.8.7s-1.3-.2-1.8-.7-.8-1.1-.8-1.9v-17.8c0-.7.3-1.4.8-1.9s1.1-.7,1.8-.7,1.3.2,1.8.7.8,1.1.8,1.9v17.8c0,.7-.3,1.4-.8,1.9M113,188.6v33.1h9.1v-7.6h7.6c1.8,0,3.4-.7,4.7-2s2-2.9,2-4.8v-12c0-1.9-.7-3.5-2-4.8s-2.9-2-4.7-2h-16.7,0ZM97.3,190.6c.5-.5,1.2-.8,1.9-.7.7,0,1.2.3,1.7.9.5.5.7,1.2.7,1.9v5.1c0,.7-.3,1.4-.8,1.9s-1.1.7-1.8.7-1.3-.2-1.8-.7-.8-1.1-.8-1.9v-5.2c0-.7.3-1.4.8-1.9M110.8,201.6v-4.4c0-1.5-.4-3-1.1-4.3-.8-1.3-1.8-2.4-3.1-3.1-1.3-.8-2.7-1.1-4.3-1.1h-5.7c-2.5,0-4.7.9-6.4,2.7s-2.7,3.9-2.7,6.4v7.3c0,2.5.9,4.7,2.7,6.4,1.8,1.8,3.9,2.7,6.4,2.7h5.7c2.4,0,4.4-.8,6.1-2.5,1.7-1.7,2.5-3.7,2.5-6.1h-9.1v4.5c0,.7-.2,1.4-.7,1.9s-1.1.8-1.7.9c-.7,0-1.4-.2-1.9-.7s-.8-1.1-.8-1.9v-8.7h14.3-.2ZM83.8,183.1c-1.3-1.3-3-2-4.8-2h-9.6c-1.9,0-3.5.7-4.9,2-1.3,1.3-2,3-2,4.9v19.2c0,1.9.7,3.5,2,4.9,1.3,1.3,3,2,4.9,2h9.6c1.9,0,3.5-.7,4.8-2s2-3,2-4.9v-9.6h-11.7v1.3c.7,0,1.3.3,1.8.8s.8,1.1.8,1.8v8.8c0,.7-.3,1.4-.8,1.9s-1.1.7-1.8.7-1.3-.2-1.8-.7-.8-1.1-.8-1.9v-25.3c0-.7.3-1.3.8-1.8s1.1-.8,1.8-.8,1.3.3,1.8.8.8,1.1.8,1.8v4.7h9.1v-1.7c0-1.9-.7-3.5-2-4.9"/>
  </g>
  <line class="st1" x1="122.6" y1="159.6" x2="191.9" y2="159.6"/>
  <circle class="st2" cx="157.2" cy="156.8" r="137"/>
</svg>