<?xml version="1.0" encoding="UTF-8"?>
<svg id="Ebene_1" xmlns="http://www.w3.org/2000/svg" version="1.1" viewBox="0 0 252.8 257">
  <!-- Generator: Adobe Illustrator 29.3.1, SVG Export Plug-In . SVG Version: 2.1.0 Build 151)  -->
  <defs>
    <style>
      .st0 {
        stroke-miterlimit: 4;
        stroke-width: 1px;
      }

      .st0, .st1 {
        fill: none;
        stroke: #fff;
      }

      .st1 {
        stroke-width: 4.3px;
      }

      .st2 {
        fill: #fff;
      }

      .st3 {
        fill: #a2bed2;
      }
    </style>
  </defs>
  <g>
    <path class="st3" d="M122.5,252.2c67.7,0,122.5-54.8,122.5-122.5S190.2,7.2,122.5,7.2,0,62,0,129.7s54.8,122.5,122.5,122.5"/>
    <path class="st2" d="M184.9,81.7c-.6.6-.9,1.3-.9,2.1v23.6h7.3v-26.6h-4.4c-.8,0-1.5.3-2.1.9M170.5,86.9v-6.1h-4.4c-.8,0-1.5.3-2.1.9s-.9,1.3-.9,2.1v23.6h7.3v-17.4c0-.6.2-1.1.6-1.5.4-.4.9-.6,1.5-.6s1.1.2,1.5.6.6.9.6,1.5v17.4h7.3v-13.2c0-2-.7-3.7-2.1-5.2-1.4-1.4-3.1-2.1-5.2-2.1h-4.2.1ZM153.3,105.8c-.4.4-.9.6-1.5.6s-1.1-.2-1.5-.6-.6-.9-.6-1.5v-4.9c0-.6.2-1.1.6-1.5.4-.4.9-.6,1.5-.6s1.1.2,1.5.6.6.9.6,1.5v4.9c0,.6-.2,1.1-.6,1.5M151.8,86.9c-.7,0-1.4,0-2.1.2-2.1.3-3.9,1.1-5.2,2.4-1.4,1.3-2.1,2.7-2.1,4.3h7.3v-1c0-1.4.4-2.6.7-3.5.4-.9.8-1.4,1.3-1.4s1,.5,1.3,1.4c.4.9.6,2.1.7,3.5v3.5h-4.2c-2,0-3.7.5-5.2,1.6-1.4,1.1-2.1,2.4-2.1,3.9s.7,2.8,2.1,3.9c1.4,1.1,3.1,1.6,5.2,1.6h11.5v-13.6c0-1.6-.7-3.1-2.1-4.3-1.4-1.3-3.1-2.1-5.2-2.4-.7-.1-1.4-.2-2.1-.2M134.6,88.8c-1,1.3-1.3,2.7-.9,4.2l2.6,10.8-.5,1.7-5.2-18.6h-7.3l4.4,15.8-.8,2.9-4-14.4c-.3-1.3-1-2.3-2.1-3.1-1-.8-2.2-1.2-3.5-1.2h-2.9l5.8,20.5h7.3l.8-2.9.8,2.9h7.3l.5-1.6,5.3-18.9h-3.6c-1.6,0-2.9.6-3.9,1.9M112.3,88.5c-1-1-2.3-1.6-3.7-1.6h-7.9c-1,0-1.9.2-2.7.7-.9.5-1.5,1.1-2,2-.7,1.2-1,2.3-.7,3.4.2,1,.8,1.9,1.6,2.7.8.8,1.8,1.5,2.9,2.2,1.1.7,2.2,1.3,3.2,1.7,1,.5,1.9.9,2.7,1.4.7.5,1.1.9,1.1,1.2v2.1c0,.6-.2,1.1-.6,1.5-.4.4-.8.7-1.4.7s-1.1-.2-1.6-.6c-.4-.4-.7-.9-.7-1.5v-2.2c0-.5-.2-.8-.5-1.2s-.7-.5-1.1-.5h-5.7v1.6c0,1.5.5,2.7,1.6,3.7,1,1,2.3,1.6,3.7,1.6h8.2c1.5,0,2.7-.5,3.8-1.6,1-1,1.5-2.3,1.5-3.7s-.3-1.7-.9-2.5c-.6-.8-1.3-1.5-2.1-2.1s-1.8-1.1-2.8-1.7c-1-.5-1.9-1-2.8-1.4-.9-.4-1.6-.8-2.1-1.2-.6-.4-.9-.8-.9-1.1v-2.1c0-.6.2-1.1.6-1.5.4-.4.9-.7,1.4-.7s1.1.2,1.5.6.6.9.6,1.5v2.2c0,.5.2.8.5,1.1.3.3.7.4,1.1.4h5.7v-1.6c0-1.5-.5-2.7-1.6-3.7M87.6,88.3c-.9.9-1.4,2.1-1.4,3.4v12.6c0,.6-.2,1.1-.6,1.5-.4.4-.9.6-1.5.6s-1.1-.2-1.5-.6-.6-.9-.6-1.5v-12.6c0-1.3-.5-2.5-1.4-3.4s-2.1-1.4-3.4-1.4h-2.5v16.5c0,1.1.4,2.1,1.2,2.8s1.7,1.2,2.8,1.2h10.9c1.1,0,2.1-.4,2.8-1.2.8-.8,1.2-1.7,1.2-2.8v-16.5h-2.5c-1.3,0-2.5.5-3.4,1.4M65.1,95.7c-.4.4-.9.6-1.5.6s-1.1-.2-1.5-.6-.6-.9-.6-1.5v-10.3c0-.6.2-1.1.6-1.5.4-.4.9-.6,1.5-.6s1.1.2,1.5.6.6.9.6,1.5v10.3c0,.6-.2,1.1-.6,1.5M60,80.8c-1.6,0-3,.6-4.1,1.7s-1.7,2.5-1.7,4.1v20.8h7.3v-8c0-.6.2-1.1.6-1.5.4-.4.9-.6,1.5-.6s1.1.2,1.5.6.6.9.6,1.5v8h7.3v-20.8c0-1.6-.6-3-1.7-4.1-1.1-1.1-2.5-1.7-4-1.7h-7.3,0Z"/>
    <path class="st2" d="M162,54.3c.4-.4,1-.6,1.6-.6s1,.3,1.4.7c.4.4.6.9.6,1.5v4.1c0,.6-.2,1.1-.6,1.5-.4.4-.9.6-1.5.6s-1.1-.2-1.5-.6-.6-.9-.6-1.5v-4.2c0-.6.2-1.1.7-1.5M172.8,63.1v-3.5c0-1.2-.3-2.4-.9-3.4-.6-1.1-1.4-1.9-2.5-2.5s-2.2-.9-3.5-.9h-4.6c-2,0-3.7.7-5.2,2.1s-2.1,3.1-2.1,5.2v5.9c0,2,.7,3.7,2.1,5.2s3.1,2.1,5.2,2.1h4.6c1.9,0,3.5-.7,4.9-2,1.3-1.3,2-3,2-4.9h-7.3v3.6c0,.6-.2,1.1-.6,1.5-.4.4-.8.7-1.4.7s-1.1-.2-1.6-.6c-.4-.4-.7-.9-.7-1.5v-7h11.6ZM141.3,58.6h-.5v-10.3c0-.2.2-.4.4-.5s.5-.2.9-.2h.4c.7,0,1.4.5,1.9,1.6s.8,2.4.8,3.8-.2,2.9-.6,3.9c-.4,1-1.1,1.5-2,1.5h-1.1l-.2.2ZM149.3,58.6c.8-.5,1.5-1.2,2-2,.7-1.1,1-2.3,1-3.5s-.3-2.4-1-3.5c-.5-.8-1.2-1.5-2-2-1.1-.7-2.2-1-3.5-1h-8.8c-1,0-1.8.3-2.5,1s-1,1.5-1,2.5v23.1h7.3v-13.7h.5c1.3,0,2.2.6,2.8,1.9s.9,3.4.9,6.4,0,1.2,0,1.7-.2,1-.3,1.4-.3.7-.6.9c-.3.2-.5.3-.9.3h-1.2v1h2.8c1.7,0,3.3-.4,4.7-1.4s2.3-2.3,2.7-4c.5-1.8.3-3.5-.5-5.1s-2-2.7-3.6-3.5c.5-.2.9-.4,1.3-.6M124.1,71.6c-.4.4-.9.6-1.5.6s-1.1-.2-1.5-.6-.6-.9-.6-1.5v-14.3c0-.6.2-1.1.6-1.5.4-.4.9-.6,1.5-.6s1.1.2,1.5.6.6.9.6,1.5v14.3c0,.6-.2,1.1-.6,1.5M117.9,54.1c-1.4.9-2.6,2.2-3.4,3.7-.8,1.6-1.3,3.3-1.3,5.2,0,2.8.9,5.2,2.8,7.2,1.8,2,4.1,3,6.6,3s4.8-1,6.6-3,2.8-4.4,2.8-7.2-.9-5.2-2.8-7.2c-1.8-2-4.1-3-6.6-3s-3.3.5-4.7,1.4M93.8,52.7v20.5h7.3v-17.4c0-.6.2-1.1.6-1.5.4-.4.9-.6,1.5-.6s1.1.2,1.5.6.6.9.6,1.5v5.7c0,.4.2.8.5,1.1.3.3.7.5,1.1.5h5.7v-4.7c0-1.6-.6-3-1.7-4.1-1.1-1.1-2.5-1.7-4-1.7h-13.1,0ZM90.4,48.3c-1.1-1.1-2.4-1.6-3.9-1.6h-7.7c-1.5,0-2.8.5-3.9,1.6-1.1,1.1-1.6,2.4-1.6,3.9v15.5c0,1.5.5,2.8,1.6,3.9s2.4,1.6,3.9,1.6h7.7c1.5,0,2.8-.5,3.9-1.6,1.1-1.1,1.6-2.4,1.6-3.9v-7.7h-9.4v1c.6,0,1.1.2,1.5.6s.6.9.6,1.5v7.1c0,.6-.2,1.1-.6,1.5-.4.4-.9.6-1.5.6s-1.1-.2-1.5-.6-.6-.9-.6-1.5v-20.3c0-.6.2-1.1.6-1.5.4-.4.9-.6,1.5-.6s1.1.2,1.5.6.6.9.6,1.5v3.8h7.3v-1.4c0-1.5-.5-2.8-1.6-3.9"/>
    <path class="st2" d="M190.2,184.7v-1h-2.4c-.5,0-.9-.2-1.3-.5-.4-.4-.5-.8-.5-1.3v.3c0-1.2-.4-2.3-1.3-3.2-.9-.9-2-1.3-3.2-1.3h-2.8v6.1h-1v1h1v15.1c0,1.2.4,2.2,1.3,3.1.9.9,1.9,1.3,3.1,1.3h7.2v-1h-2.4c-.5,0-.9-.2-1.3-.5-.3-.3-.5-.8-.5-1.3v-14.9c0-.5.2-.9.5-1.3.3-.3.8-.5,1.3-.5h2.4,0ZM158.1,183.6v20.5h7.3v-17.4c0-.6.2-1.1.6-1.5.4-.4.9-.6,1.5-.6s1.1.2,1.5.6.6.9.6,1.5v5.7c0,.4.2.8.5,1.1.3.3.7.5,1.1.5h5.7v-4.7c0-1.6-.6-3-1.7-4.1-1.1-1.1-2.5-1.7-4-1.7h-13.1,0ZM148.7,202.5c-.4.4-.9.6-1.5.6s-1.1-.2-1.5-.6-.6-.9-.6-1.5v-14.3c0-.6.2-1.1.6-1.5.4-.4.9-.6,1.5-.6s1.1.2,1.5.6.6.9.6,1.5v14.3c0,.6-.2,1.1-.6,1.5M142.5,185c-1.4.9-2.6,2.2-3.4,3.7-.8,1.6-1.3,3.3-1.3,5.2,0,2.8.9,5.2,2.8,7.2,1.8,2,4.1,3,6.6,3s4.8-1,6.6-3,2.8-4.4,2.8-7.2-.9-5.2-2.8-7.2c-1.8-2-4.1-3-6.6-3s-3.3.5-4.7,1.4M128.7,202.5c-.4.4-.9.6-1.5.6s-1.1-.2-1.5-.6-.6-.9-.6-1.5v-14.3c0-.6.2-1.1.6-1.5.4-.4.9-.6,1.5-.6s1.1.2,1.5.6.6.9.6,1.5v14.3c0,.6-.2,1.1-.6,1.5M117.8,183.6v26.6h7.3v-6.1h6.1c1.5,0,2.7-.5,3.8-1.6s1.6-2.3,1.6-3.8v-9.7c0-1.5-.5-2.8-1.6-3.8-1.1-1.1-2.3-1.6-3.8-1.6h-13.4,0ZM108,202.5c-.4.4-.9.6-1.5.6s-1.1-.2-1.5-.6-.6-.9-.6-1.5v-14.3c0-.6.2-1.1.6-1.5.4-.4.9-.6,1.5-.6s1.1.2,1.5.6.6.9.6,1.5v14.3c0,.6-.2,1.1-.6,1.5M97.1,183.6v26.6h7.3v-6.1h6.1c1.5,0,2.7-.5,3.8-1.6s1.6-2.3,1.6-3.8v-9.7c0-1.5-.5-2.8-1.6-3.8-1.1-1.1-2.3-1.6-3.8-1.6h-13.4,0ZM89,185.1c-.9.9-1.4,2.1-1.4,3.4v12.6c0,.6-.2,1.1-.6,1.5-.4.4-.9.6-1.5.6s-1.1-.2-1.5-.6-.6-.9-.6-1.5v-12.6c0-1.3-.5-2.5-1.4-3.4s-2.1-1.4-3.4-1.4h-2.5v16.5c0,1.1.4,2.1,1.2,2.8.8.8,1.7,1.2,2.8,1.2h10.9c1.1,0,2.1-.4,2.8-1.2.8-.8,1.2-1.7,1.2-2.8v-16.5h-2.5c-1.3,0-2.5.5-3.4,1.4M74.5,188.7v-11.1h-12.5c-1.3,0-2.5.3-3.5,1-1.1.7-1.9,1.6-2.4,2.7-.3.8-.5,1.7-.3,2.6,0,1,.4,2,1,2.9.6,1,1.3,1.8,2.2,2.5.8.7,1.7,1.4,2.7,2.1s1.9,1.4,2.7,1.9c.8.6,1.5,1.2,2,1.8.5.7.8,1.3.8,1.9v3.8c0,.6-.2,1.1-.6,1.5-.4.4-.8.7-1.4.7s-1.1-.2-1.6-.6c-.4-.4-.7-.9-.7-1.5v-3c0-1.4-.5-2.5-1.4-3.5-1-1-2.1-1.5-3.5-1.5h-2.4v5.3c0,1.6.6,3,1.7,4.1,1.1,1.1,2.5,1.7,4.1,1.7h7.3c1.6,0,2.9-.6,4-1.7s1.7-2.5,1.7-4.1v-.6h0c0-.6-.2-1.2-.4-1.7,0-.1-.2-.3-.2-.4-.3-.6-.8-1.2-1.3-1.9-.6-.6-1.2-1.2-1.9-1.7s-1.3-1-2.1-1.6c-.7-.5-1.4-1-2.1-1.5-.6-.5-1.2-1-1.8-1.4-.5-.5-.9-1-1.3-1.5-.3-.5-.5-1-.5-1.6v-3.8c0-.6.2-1.1.6-1.5.4-.4.9-.7,1.4-.7s1.1.2,1.5.6.6.9.6,1.5v3.1c0,.9.2,1.7.7,2.5.4.8,1,1.4,1.8,1.8s1.6.7,2.5.7h2.3l.3.2Z"/>
    <path class="st2" d="M184,149.5v20.5h7.3v-17.4c0-.6.2-1.1.6-1.5.4-.4.9-.6,1.5-.6s1.1.2,1.5.6.6.9.6,1.5v5.7c0,.4.2.8.5,1.1.3.3.7.5,1.1.5h5.7v-4.7c0-1.6-.6-3-1.7-4.1-1.1-1.1-2.5-1.7-4-1.7h-13.1,0ZM171.4,151.1c.4-.4,1-.6,1.6-.6s1,.3,1.4.7c.4.4.6.9.6,1.5v4.1c0,.6-.2,1.1-.6,1.5-.4.4-.9.6-1.5.6s-1.1-.2-1.5-.6-.6-.9-.6-1.5v-4.2c0-.6.2-1.1.7-1.5M182.3,159.9v-3.5c0-1.2-.3-2.4-.9-3.4-.6-1.1-1.4-1.9-2.5-2.5s-2.2-.9-3.5-.9h-4.6c-2,0-3.7.7-5.2,2.1-1.4,1.4-2.1,3.1-2.1,5.2v5.9c0,2,.7,3.7,2.1,5.2,1.4,1.4,3.1,2.1,5.2,2.1h4.6c1.9,0,3.5-.7,4.9-2,1.3-1.3,2-3,2-4.9h-7.3v3.6c0,.6-.2,1.1-.6,1.5-.4.4-.8.7-1.4.7s-1.1-.2-1.6-.6c-.4-.4-.7-.9-.7-1.5v-7h11.6ZM155.2,144.3c-.6.6-.9,1.3-.9,2.1v23.6h7.3v-26.6h-4.4c-.8,0-1.5.3-2.1.9M145.6,144.3c-.6.6-.9,1.3-.9,2.1v23.6h7.3v-26.6h-4.4c-.8,0-1.5.3-2.1.9M132.2,151.1c.4-.4,1-.6,1.6-.6s1,.3,1.4.7c.4.4.6.9.6,1.5v4.1c0,.6-.2,1.1-.6,1.5-.4.4-.9.6-1.5.6s-1.1-.2-1.5-.6-.6-.9-.6-1.5v-4.2c0-.6.2-1.1.7-1.5M143,159.9v-3.5c0-1.2-.3-2.4-.9-3.4-.6-1.1-1.4-1.9-2.5-2.5s-2.2-.9-3.5-.9h-4.6c-2,0-3.7.7-5.2,2.1-1.4,1.4-2.1,3.1-2.1,5.2v5.9c0,2,.7,3.7,2.1,5.2,1.4,1.4,3.1,2.1,5.2,2.1h4.6c1.9,0,3.5-.7,4.9-2,1.3-1.3,2-3,2-4.9h-7.3v3.6c0,.6-.2,1.1-.6,1.5-.4.4-.8.7-1.4.7s-1.1-.2-1.6-.6c-.4-.4-.7-.9-.7-1.5v-7h11.6ZM103.8,149.5v20.5h7.3v-17.4c0-.6.2-1.1.6-1.5.4-.4.9-.6,1.5-.6s1.1.2,1.5.6.6.9.6,1.5v17.4h7.3v-13.5c0-1.9-.7-3.5-2-4.9-1.4-1.4-3-2.1-4.9-2.1h-11.9ZM90.3,149.5v-6.1h-4.4c-.8,0-1.5.3-2.1.9s-.9,1.3-.9,2.1v23.6h7.3v-17.4c0-.6.2-1.1.6-1.5.4-.4.9-.6,1.5-.6s1.1.2,1.5.6.6.9.6,1.5v17.4h7.3v-13.2c0-2-.7-3.7-2.1-5.2-1.4-1.4-3.1-2.1-5.2-2.1h-4.2.1ZM73.5,168.3c-.4.4-.9.6-1.5.6s-1.1-.2-1.5-.6-.6-.9-.6-1.5v-14.3c0-.6.2-1.1.6-1.5.4-.4.9-.6,1.5-.6s1.1.2,1.5.6.6.9.6,1.5v3.8h7.3c0-1.2-.3-2.4-.9-3.4-.6-1.1-1.4-1.9-2.5-2.5s-2.2-.9-3.5-.9h-4.6c-2,0-3.7.7-5.2,2.1-1.4,1.4-2.1,3.1-2.1,5.2v5.9c0,2,.7,3.7,2.1,5.2,1.4,1.4,3.1,2.1,5.2,2.1h4.6c1.9,0,3.5-.7,4.9-2,1.3-1.3,2-3,2-4.9h-7.3v3.8c0,.6-.2,1.1-.6,1.5M61.4,154.5v-11.1h-12.5c-1.3,0-2.5.3-3.5,1-1.1.7-1.9,1.6-2.4,2.7-.3.8-.5,1.7-.3,2.6,0,1,.4,2,1,2.9.6,1,1.3,1.8,2.2,2.5.8.7,1.7,1.4,2.7,2.1s1.9,1.4,2.7,1.9c.8.6,1.5,1.2,2,1.8s.8,1.3.8,1.9v3.8c0,.6-.2,1.1-.6,1.5-.4.4-.8.7-1.4.7s-1.1-.2-1.6-.6c-.4-.4-.7-.9-.7-1.5v-3c0-1.4-.5-2.5-1.4-3.5-1-1-2.1-1.5-3.5-1.5h-2.4v5.3c0,1.6.6,3,1.7,4.1,1.1,1.1,2.5,1.7,4.1,1.7h7.3c1.6,0,2.9-.6,4-1.7s1.7-2.5,1.7-4.1v-.6h0c0-.6-.2-1.2-.4-1.7,0-.1-.2-.3-.2-.4-.3-.6-.8-1.2-1.3-1.9-.6-.6-1.2-1.2-1.9-1.7s-1.3-1-2.1-1.6c-.7-.5-1.4-1-2.1-1.5-.6-.5-1.2-1-1.8-1.4-.5-.5-.9-1-1.3-1.5-.3-.5-.5-1-.5-1.6v-3.8c0-.6.2-1.1.6-1.5.4-.4.9-.7,1.4-.7s1.1.2,1.5.6.6.9.6,1.5v3.1c0,.9.2,1.7.7,2.5.4.8,1,1.4,1.8,1.8s1.6.7,2.5.7h2.3l.3.2Z"/>
  </g>
  <line class="st1" x1="94.7" y1="127.6" x2="150.4" y2="127.6"/>
  <circle class="st0" cx="122.9" cy="130" r="111.8"/>
</svg>