<svg id="Group_28" data-name="Group 28" xmlns="http://www.w3.org/2000/svg" xmlns:xlink="http://www.w3.org/1999/xlink" width="626.109" height="569.242" viewBox="0 0 626.109 569.242">
  <defs>
    <clipPath id="clip-path">
      <rect id="Rectangle_23" data-name="Rectangle 23" width="626.109" height="569.242" fill="none"/>
    </clipPath>
    <clipPath id="clip-path-2">
      <rect id="Rectangle_22" data-name="Rectangle 22" width="626.111" height="569.24" fill="none"/>
    </clipPath>
    <clipPath id="clip-path-3">
      <rect id="Rectangle_21" data-name="Rectangle 21" width="83.567" height="26.815" fill="none"/>
    </clipPath>
  </defs>
  <g id="Group_33" data-name="Group 33" clip-path="url(#clip-path)">
    <g id="Group_32" data-name="Group 32" transform="translate(0 0.001)">
      <g id="Group_31" data-name="Group 31" clip-path="url(#clip-path-2)">
        <path id="Path_298" data-name="Path 298" d="M597.913,321.87C679.736,172.7,557.39-4.236,374.15,3.059c-55.237,2.2-109.7,22.064-150.515,75.557C129.2,202.387,44.4,172.347,19.5,269.6s81.092,201.3,224.714,86.174C349.193,271.625,449.9,514.86,570.339,367.712c11.985-14.643,19.5-31.126,27.575-45.843" transform="translate(-10.088 -1.808)" fill="#ffd800"/>
        <path id="Path_299" data-name="Path 299" d="M1167.9,68.581c-14.631,37.716-14.631,99.433,0,137.151l26.609,68.575,26.608-68.575c14.634-37.718,14.634-99.435,0-137.151L1194.5,0Z" transform="translate(-735.641 -0.004)" fill="#689c39" fill-rule="evenodd"/>
        <path id="Path_300" data-name="Path 300" d="M1371.221,336.144c-31.487,13.886-68.611,51.009-82.5,82.5l-26.67,60.107a176.445,176.445,0,0,0,25.838-10.089c11.54-5.879,32.843-18.007,32.843-18.007,31.49-13.885,68.613-51.009,82.5-82.5l25.244-57.256Z" transform="translate(-802.49 -197.69)" fill="#689c39" fill-rule="evenodd"/>
        <path id="Path_301" data-name="Path 301" d="M1392.077,719.628c-22.547-8.747-59.443-8.747-81.993,0l-41,15.907,41,15.907c22.55,8.75,59.446,8.75,81.993,0l41-15.907Z" transform="translate(-806.963 -453.413)" fill="#689c39" fill-rule="evenodd"/>
        <path id="Path_302" data-name="Path 302" d="M1326.585,829.381c-5.9-13.372-21.663-29.138-35.035-35.036l-24.315-10.72,10.72,24.315c5.9,13.373,21.663,29.139,35.036,35.035l24.315,10.721Z" transform="translate(-805.784 -498.277)" fill="#689c39" fill-rule="evenodd"/>
        <path id="Path_303" data-name="Path 303" d="M858.43,336.144c31.488,13.886,68.612,51.009,82.5,82.5L966.172,475.9l-57.254-25.244c-31.491-13.885-68.614-51.009-82.5-82.5L801.175,310.9Z" transform="translate(-509.435 -197.69)" fill="#689c39" fill-rule="evenodd"/>
        <path id="Path_304" data-name="Path 304" d="M841.836,719.628c22.548-8.747,59.443-8.747,81.992,0l41,15.907-41,15.907c-22.549,8.75-59.444,8.75-81.992,0l-41-15.907Z" transform="translate(-509.222 -453.413)" fill="#689c39" fill-rule="evenodd"/>
        <path id="Path_305" data-name="Path 305" d="M1071.319,829.381c5.9-13.372,21.663-29.138,35.036-35.036l24.315-10.72-10.72,24.315c-5.9,13.373-21.663,29.139-35.035,35.035L1060.6,853.7Z" transform="translate(-674.392 -498.277)" fill="#689c39" fill-rule="evenodd"/>
        <path id="Path_306" data-name="Path 306" d="M887.846,1247.349l53.084-6.173,167.141-132.066c6.411-5.065,4.513-15.525-3.29-18.132l-80.208-22.058Z" transform="translate(-564.546 -679.685)" fill="#e6e6e6"/>
        <path id="Path_307" data-name="Path 307" d="M1281.97,618.035a7.051,7.051,0,0,0-.588-2.452s0-.01-.007-.015a10.005,10.005,0,0,0-4.776-4.856,9.568,9.568,0,0,0-1.355-.538c-.164-.053-.329-.1-.5-.142l-7.394-1.824-7.738,6.358c1.19.314,8.357,1.495,9.388,2.213,3.066,1.488,5.641,4.721,5.357,8.244l-.7,23.105c-.465-.114-5.167,6.973-5.01,7.059.02.011-.106,172.445-.106,172.445-.024.781-2.638,6.359-1.938,5.8l7.149-7.79a8.835,8.835,0,0,0,2.438-5.643l5.723-199.521c.024-1.064.079-1.942.055-2.4a.147.147,0,0,0,0-.039" transform="translate(-800.94 -386.736)" fill="#b3b3b3"/>
        <path id="Path_308" data-name="Path 308" d="M744.618,479.911,441.967,405.253l-.02-.005-.45-.111h0a9.239,9.239,0,0,0-2.728-.391h0a7.475,7.475,0,0,0-1.055.1,5.837,5.837,0,0,0-2.62,1.138l-4.672,3.726a36.469,36.469,0,0,0,4.594,1.766l303.121,74.775ZM439.261,406.333Z" transform="translate(-273.683 -257.362)" fill="#b3b3b3"/>
        <path id="Path_309" data-name="Path 309" d="M727.725,489.988,422.366,414.662c-4.144-1.023-7.59,1.129-7.7,4.807l-5.053,166.846c-.005.185,0,.37.015.554l-1.254,37.875c-.112,3.678,3.628,7.4,7.771,8.42L721.5,708.49c4.144,1.022,7.595-1.128,7.7-4.808l5.287-186.2a6.077,6.077,0,0,0-.017-.661l.556-18.323c.112-3.678-3.156-7.486-7.3-8.508" transform="translate(-259.666 -263.507)" fill="gray"/>
        <path id="Path_310" data-name="Path 310" d="M466.474,1094.09l-10.666,8.037-2.836-4.4-297.895-79.574c-3.588-.958-10.433.829-14.265,3.757l-119.406,90.81-.134-1.739-18.247,12.34L.3,1122.991l.946,7.547c.418,1.6,1.731-.281,2.947.044l309.5,85.6c3.588.958,9.678-.454,13.511-3.382l134.288-102.489c2.092-1.6,3.661-4.433,3.563-5.778Z" transform="translate(-0.191 -647.241)" fill="#b3b3b3"/>
        <path id="Path_311" data-name="Path 311" d="M154.886,1018.157c-3.588-.958-10.433.829-14.265,3.757l-119.406,90.81-.134-1.739-18.247,12.34L0,1120.647l.411,9.227c.005,1.521,1.2,2.117,2.416,2.442L313.5,1216.184a12.936,12.936,0,0,0,5.366.039l-7.495-76.961c2.092-1.6-156.489-121.1-156.489-121.1" transform="translate(0 -647.241)" fill="#b3b3b3"/>
        <path id="Path_312" data-name="Path 312" d="M312.564,1188.972,2.57,1106.166c-3.588-.958-3.388-4.138.444-7.065L142.939,994.317c3.832-2.928,10.422-3.915,14.01-2.956L463.9,1073.354c3.588.958,3.388,4.138-.444,7.066l-137.4,104.972c-3.832,2.928-9.9,4.539-13.491,3.581" transform="translate(-0.003 -630.143)" fill="#e6e6e6"/>
        <path id="Path_313" data-name="Path 313" d="M445.61,1051.286a2.712,2.712,0,0,1-2,.259l-18.437-4.813c-.665-.174-.851-.572-.414-.888l12.083-8.754a2.709,2.709,0,0,1,2-.259l18.437,4.813c.664.173.851.571.413.888Z" transform="translate(-269.939 -659.229)" fill="#b3b3b3"/>
        <path id="Path_314" data-name="Path 314" d="M504.84,1111.793a2.7,2.7,0,0,1-2,.261l-18.436-4.813c-.664-.173-.845-.57-.4-.889l12.088-8.757a2.7,2.7,0,0,1,1.985-.256l18.435,4.813c.674.176.851.573.422.884Z" transform="translate(-307.602 -697.705)" fill="#b3b3b3"/>
        <path id="Path_315" data-name="Path 315" d="M475.64,1149.222a2.7,2.7,0,0,1-1.992.256l-18.44-4.814c-.654-.171-.856-.567-.418-.885l12.09-8.759a2.735,2.735,0,0,1,1.989-.254l18.44,4.814c.663.173.848.573.421.883Z" transform="translate(-289.035 -721.504)" fill="#b3b3b3"/>
        <path id="Path_316" data-name="Path 316" d="M395.812,1173.421a2.712,2.712,0,0,1-1.988.259l-18.438-4.814c-.657-.172-.843-.572-.411-.885l12.087-8.757a2.726,2.726,0,0,1,1.993-.261l18.438,4.813c.66.172.84.573.407.887Z" transform="translate(-238.283 -736.89)" fill="#b3b3b3"/>
        <path id="Path_317" data-name="Path 317" d="M257.007,1185.262a2.707,2.707,0,0,1-1.994.258l-18.437-4.813c-.665-.174-.852-.571-.416-.887l14.191-10.281a2.735,2.735,0,0,1,2-.257l18.437,4.813c.664.173.842.577.416.886Z" transform="translate(-150.015 -743.451)" fill="#b3b3b3"/>
        <path id="Path_318" data-name="Path 318" d="M333.1,1205.18a3.349,3.349,0,0,1-2.373.159l-24.155-6.306c-.865-.226-1.224-.668-.788-.984l14.192-10.281a3.386,3.386,0,0,1,2.367-.16l24.155,6.306c.876.229,1.22.676.794.985Z" transform="translate(-194.318 -755.072)" fill="#b3b3b3"/>
        <path id="Path_319" data-name="Path 319" d="M780.229,1333.587a2.59,2.59,0,0,1-1.862.162l-18.423-4.81c-.673-.176-.925-.531-.562-.794l5.247-3.8a2.622,2.622,0,0,1,1.876-.158l18.423,4.81c.664.173.907.53.547.791Z" transform="translate(-482.755 -841.937)" fill="#b3b3b3"/>
        <path id="Path_320" data-name="Path 320" d="M847.888,1352.106a2.587,2.587,0,0,1-1.862.162l-18.423-4.81c-.673-.176-.925-.531-.562-.794l5.247-3.8a2.622,2.622,0,0,1,1.876-.158l18.423,4.809c.664.173.906.531.547.791Z" transform="translate(-525.777 -853.713)" fill="#b3b3b3"/>
        <path id="Path_321" data-name="Path 321" d="M919.614,1370.3a2.578,2.578,0,0,1-1.84.143l-18.43-4.811c-.661-.173-.93-.522-.58-.775l5.053-3.662a2.615,2.615,0,0,1,1.846-.142l18.43,4.811c.664.173.921.523.575.774Z" transform="translate(-571.39 -865.382)" fill="#b3b3b3"/>
        <path id="Path_322" data-name="Path 322" d="M875.225,1333.015a2.578,2.578,0,0,1-1.84.144l-18.43-4.812c-.661-.172-.93-.522-.58-.775l5.054-3.662a2.614,2.614,0,0,1,1.846-.142l18.429,4.811c.664.173.921.523.575.774Z" transform="translate(-543.165 -841.671)" fill="#b3b3b3"/>
        <path id="Path_323" data-name="Path 323" d="M515.27,1252.658a2.728,2.728,0,0,1-2,.255l-119.976-31.321c-.654-.171-.854-.571-.418-.887l14.191-10.281a2.762,2.762,0,0,1,2-.256l119.977,31.321c.667.174.852.58.426.889Z" transform="translate(-249.664 -769.449)" fill="#b3b3b3"/>
        <path id="Path_324" data-name="Path 324" d="M465.2,1191.51a2.718,2.718,0,0,1-2,.256l-18.435-4.813c-.654-.171-.85-.574-.419-.887l12.087-8.757a2.75,2.75,0,0,1,2-.259l18.435,4.813c.668.174.848.575.415.89Z" transform="translate(-282.4 -748.391)" fill="#b3b3b3"/>
        <path id="Path_325" data-name="Path 325" d="M534.925,1209.712a2.722,2.722,0,0,1-1.988.259l-18.434-4.812c-.661-.172-.852-.574-.42-.887l12.087-8.757a2.739,2.739,0,0,1,2-.259l18.434,4.813c.654.171.84.573.406.887Z" transform="translate(-326.738 -759.966)" fill="#b3b3b3"/>
        <path id="Path_326" data-name="Path 326" d="M604.647,1227.912a2.714,2.714,0,0,1-1.988.259l-18.438-4.814c-.658-.172-.842-.572-.41-.884l12.087-8.757a2.72,2.72,0,0,1,1.992-.261l18.438,4.813c.658.172.84.573.406.887Z" transform="translate(-371.074 -771.539)" fill="#b3b3b3"/>
        <path id="Path_327" data-name="Path 327" d="M674.352,1246.111a2.71,2.71,0,0,1-1.99.258l-18.438-4.814c-.667-.174-.85-.574-.419-.887l12.087-8.757a2.726,2.726,0,0,1,2-.259l18.438,4.814c.663.173.841.573.408.888Z" transform="translate(-415.389 -783.109)" fill="#b3b3b3"/>
        <path id="Path_328" data-name="Path 328" d="M744.078,1264.312a2.738,2.738,0,0,1-2,.255l-18.431-4.812c-.658-.172-.842-.572-.41-.884l12.087-8.757a2.72,2.72,0,0,1,1.992-.261l18.431,4.812c.667.174.855.577.422.891Z" transform="translate(-459.727 -794.682)" fill="#b3b3b3"/>
        <path id="Path_329" data-name="Path 329" d="M813.8,1282.488a2.723,2.723,0,0,1-1.994.257l-18.433-4.812c-.664-.173-.85-.574-.419-.887l12.087-8.757a2.731,2.731,0,0,1,2-.259l18.432,4.812c.661.173.846.575.413.889Z" transform="translate(-504.063 -806.24)" fill="#b3b3b3"/>
        <path id="Path_330" data-name="Path 330" d="M915.313,1308.988a2.718,2.718,0,0,1-1.994.257l-50.23-13.113c-.664-.173-.847-.573-.416-.886l12.087-8.757a2.723,2.723,0,0,1,2-.26l50.23,13.113c.664.173.846.575.412.889Z" transform="translate(-548.391 -817.813)" fill="#b3b3b3"/>
        <path id="Path_331" data-name="Path 331" d="M545.034,1167.308a2.667,2.667,0,0,1-1.983.258l-18.44-4.814c-.663-.173-.852-.566-.413-.883l12.089-8.759a2.709,2.709,0,0,1,1.985-.255l18.44,4.814c.667.174.84.571.412.881Z" transform="translate(-333.166 -733.005)" fill="#b3b3b3"/>
        <path id="Path_332" data-name="Path 332" d="M614.759,1185.511a2.7,2.7,0,0,1-1.987.257l-18.445-4.816c-.655-.171-.846-.565-.408-.882l12.09-8.759a2.706,2.706,0,0,1,1.979-.256l18.445,4.815c.657.171.844.572.416.881Z" transform="translate(-377.499 -744.579)" fill="#b3b3b3"/>
        <path id="Path_333" data-name="Path 333" d="M684.47,1203.713a2.706,2.706,0,0,1-1.992.256l-18.436-4.813c-.653-.17-.86-.568-.422-.885l12.09-8.759a2.75,2.75,0,0,1,1.993-.253l18.435,4.813c.658.172.848.573.421.883Z" transform="translate(-421.823 -756.153)" fill="#b3b3b3"/>
        <path id="Path_334" data-name="Path 334" d="M754.185,1221.91a2.693,2.693,0,0,1-1.989.256l-18.433-4.812c-.664-.173-.856-.567-.418-.885l12.09-8.759a2.715,2.715,0,0,1,1.989-.254l18.432,4.812c.661.173.846.572.418.882Z" transform="translate(-466.155 -767.724)" fill="#b3b3b3"/>
        <path id="Path_335" data-name="Path 335" d="M823.919,1240.087a2.7,2.7,0,0,1-1.989.256l-18.444-4.815c-.664-.173-.85-.566-.412-.883l12.09-8.759a2.7,2.7,0,0,1,1.984-.255l18.444,4.815c.658.172.846.572.418.882Z" transform="translate(-510.491 -779.281)" fill="#b3b3b3"/>
        <path id="Path_336" data-name="Path 336" d="M893.625,1258.286a2.686,2.686,0,0,1-1.986.257l-18.43-4.812c-.67-.175-.861-.569-.423-.886l12.09-8.759a2.719,2.719,0,0,1,1.995-.252l18.43,4.811c.661.173.843.571.415.881Z" transform="translate(-554.82 -790.855)" fill="#b3b3b3"/>
        <path id="Path_337" data-name="Path 337" d="M963.343,1276.484a2.691,2.691,0,0,1-1.986.257l-18.444-4.815c-.658-.172-.844-.565-.406-.882l12.09-8.759a2.7,2.7,0,0,1,1.978-.257l18.444,4.815c.658.172.843.571.415.881Z" transform="translate(-599.151 -802.425)" fill="#b3b3b3"/>
        <path id="Path_338" data-name="Path 338" d="M574.246,1129.884a2.708,2.708,0,0,1-2,.262l-18.437-4.813c-.655-.171-.84-.569-.4-.888l12.088-8.758a2.709,2.709,0,0,1,1.981-.257l18.437,4.813c.666.174.848.573.42.883Z" transform="translate(-351.738 -709.209)" fill="#b3b3b3"/>
        <path id="Path_339" data-name="Path 339" d="M643.944,1148.082a2.709,2.709,0,0,1-1.993.264l-18.437-4.813c-.663-.173-.85-.571-.409-.891l12.088-8.757a2.717,2.717,0,0,1,1.99-.255l18.437,4.813c.656.171.842.571.413.882Z" transform="translate(-396.055 -720.78)" fill="#b3b3b3"/>
        <path id="Path_340" data-name="Path 340" d="M713.667,1166.282a2.71,2.71,0,0,1-2,.261l-18.434-4.812c-.658-.172-.843-.57-.4-.889l12.088-8.757a2.707,2.707,0,0,1,1.983-.256l18.434,4.812c.668.174.851.573.422.884Z" transform="translate(-440.389 -732.353)" fill="#b3b3b3"/>
        <path id="Path_341" data-name="Path 341" d="M783.367,1184.48a2.689,2.689,0,0,1-1.993.264l-18.438-4.813c-.664-.173-.85-.571-.409-.891l12.088-8.757a2.716,2.716,0,0,1,1.99-.255l18.438,4.814c.666.174.842.571.413.882Z" transform="translate(-484.708 -743.924)" fill="#b3b3b3"/>
        <path id="Path_342" data-name="Path 342" d="M853.111,1202.659a2.7,2.7,0,0,1-1.989.265l-18.438-4.813c-.667-.174-.847-.571-.407-.89l12.088-8.758a2.7,2.7,0,0,1,1.987-.255l18.438,4.814c.653.171.837.57.408.88Z" transform="translate(-529.059 -755.484)" fill="#b3b3b3"/>
        <path id="Path_343" data-name="Path 343" d="M922.828,1220.859a2.713,2.713,0,0,1-2.006.26l-18.436-4.813c-.653-.17-.845-.57-.4-.889l12.088-8.757a2.725,2.725,0,0,1,1.985-.256l18.435,4.813c.67.175.854.574.425.885Z" transform="translate(-573.383 -767.056)" fill="#b3b3b3"/>
        <path id="Path_344" data-name="Path 344" d="M992.536,1239.057a2.706,2.706,0,0,1-1.994.263l-18.438-4.814c-.664-.173-.848-.571-.407-.89l12.088-8.758a2.71,2.71,0,0,1,1.987-.255l18.438,4.814c.659.172.843.571.414.882Z" transform="translate(-617.71 -778.628)" fill="#b3b3b3"/>
        <path id="Path_345" data-name="Path 345" d="M412.727,1087.747a2.711,2.711,0,0,1-2,.261l-31.26-8.161c-.666-.174-.852-.572-.411-.891l12.088-8.757a2.716,2.716,0,0,1,1.991-.254l31.261,8.161c.665.174.85.573.421.884Z" transform="translate(-240.873 -680.286)" fill="#b3b3b3"/>
        <path id="Path_346" data-name="Path 346" d="M1085.565,1218.3a2.714,2.714,0,0,1-2,.259l-31.262-8.161c-.653-.17-.847-.571-.41-.887l12.084-8.754a2.721,2.721,0,0,1,1.994-.26l31.262,8.161c.664.173.851.571.413.888Z" transform="translate(-668.71 -763.297)" fill="#b3b3b3"/>
        <path id="Path_347" data-name="Path 347" d="M373.024,1122.432a2.681,2.681,0,0,1-1.992.256l-37.268-9.729c-.665-.174-.857-.568-.419-.885l12.09-8.758a2.715,2.715,0,0,1,1.99-.253l37.268,9.729c.671.175.848.573.421.883Z" transform="translate(-211.812 -701.343)" fill="#b3b3b3"/>
        <path id="Path_348" data-name="Path 348" d="M314.9,1152.3a2.722,2.722,0,0,1-2,.257l-24.849-6.487c-.665-.174-.849-.574-.417-.886l12.087-8.757a2.724,2.724,0,0,1,2-.259l24.849,6.487c.664.173.847.575.414.889Z" transform="translate(-182.751 -722.393)" fill="#b3b3b3"/>
        <path id="Path_349" data-name="Path 349" d="M515.327,1069.486a2.705,2.705,0,0,1-2,.258l-18.424-4.81c-.664-.174-.851-.572-.414-.888l12.083-8.754a2.711,2.711,0,0,1,2-.259l18.424,4.81c.673.176.855.572.417.889Z" transform="translate(-314.275 -670.804)" fill="#b3b3b3"/>
        <path id="Path_350" data-name="Path 350" d="M584.72,1087.574a2.721,2.721,0,0,1-2,.259l-18.437-4.814c-.66-.172-.849-.572-.413-.888l12.083-8.754a2.717,2.717,0,0,1,2-.259l18.437,4.813c.664.173.854.571.416.889Z" transform="translate(-358.394 -682.303)" fill="#b3b3b3"/>
        <path id="Path_351" data-name="Path 351" d="M654.428,1105.771a2.689,2.689,0,0,1-1.99.261L634,1101.219c-.66-.172-.846-.571-.409-.887l12.084-8.754a2.7,2.7,0,0,1,1.992-.26l18.437,4.813c.667.174.844.569.406.886Z" transform="translate(-402.726 -693.876)" fill="#b3b3b3"/>
        <path id="Path_352" data-name="Path 352" d="M724.161,1123.977a2.719,2.719,0,0,1-2,.259l-18.425-4.81c-.668-.174-.852-.572-.416-.889l12.083-8.754a2.706,2.706,0,0,1,2-.259l18.425,4.81c.663.173.853.571.414.888Z" transform="translate(-447.064 -705.452)" fill="#b3b3b3"/>
        <path id="Path_353" data-name="Path 353" d="M793.855,1142.171a2.68,2.68,0,0,1-1.988.261l-18.432-4.812c-.668-.175-.852-.573-.416-.889l12.083-8.754a2.7,2.7,0,0,1,2-.259l18.433,4.812c.668.174.843.568.4.886Z" transform="translate(-491.381 -717.021)" fill="#b3b3b3"/>
        <path id="Path_354" data-name="Path 354" d="M863.6,1160.35a2.715,2.715,0,0,1-1.991.26l-18.444-4.815c-.658-.172-.841-.569-.4-.886l12.083-8.754a2.7,2.7,0,0,1,1.988-.262l18.444,4.815c.655.171.845.569.407.887Z" transform="translate(-535.729 -728.579)" fill="#b3b3b3"/>
        <path id="Path_355" data-name="Path 355" d="M933.3,1178.549a2.712,2.712,0,0,1-2,.259L912.872,1174c-.667-.174-.855-.573-.419-.89l12.083-8.754a2.718,2.718,0,0,1,2-.257l18.435,4.813c.664.173.851.571.413.888Z" transform="translate(-580.043 -740.151)" fill="#b3b3b3"/>
        <path id="Path_356" data-name="Path 356" d="M1003.018,1196.746a2.7,2.7,0,0,1-1.985.262l-18.449-4.817c-.656-.171-.838-.569-.4-.885l12.083-8.754a2.7,2.7,0,0,1,1.985-.262l18.449,4.816c.658.172.84.568.4.885Z" transform="translate(-624.379 -751.722)" fill="#b3b3b3"/>
        <path id="Path_357" data-name="Path 357" d="M1036.92,1242.8a2.844,2.844,0,0,0-1.077-.053,1.982,1.982,0,0,0-.9.311l-12.088,8.757c-.2.147-.295.324-.216.5a.927.927,0,0,0,.614.389l4.814,1.257-15.851,11.484c-.205.148-.284.327-.2.5a.911.911,0,0,0,.62.387l12.42,3.243a2.907,2.907,0,0,0,1.083.057,2,2,0,0,0,.914-.312l28.734-20.817c.2-.147.284-.322.2-.494a.9.9,0,0,0-.623-.391Z" transform="translate(-643.477 -790.197)" fill="#b3b3b3"/>
        <path id="Path_358" data-name="Path 358" d="M737.6,535.894,453.84,464.534c-3.851-.969-7.05.74-7.151,3.818l-.638,19.588a4.179,4.179,0,0,0-.095.73l-3.127,140.466c-.1,3.078,4.618,8.984,8.469,9.952l280.971,73.9c3.851.969,7.054-.739,7.151-3.817l.323-25.63a4.2,4.2,0,0,0,.094-.732l4.551-139.594c.1-3.077-2.938-6.355-6.789-7.323" transform="translate(-281.576 -295.207)" fill="#f2f2f2"/>
        <path id="Path_359" data-name="Path 359" d="M979.522,1454.622a1.046,1.046,0,0,1-.819-.427,1.073,1.073,0,0,1,.187-1.484l12.553-9.7a1.026,1.026,0,0,1,1.452.218,1.073,1.073,0,0,1-.187,1.484l-12.553,9.7a1,1,0,0,1-.633.209" transform="translate(-622.181 -917.42)" fill="#372d4f"/>
        <path id="Path_360" data-name="Path 360" d="M936.449,1488.569a1.047,1.047,0,0,1-.819-.427,1.074,1.074,0,0,1,.187-1.485l12.553-9.7a1.026,1.026,0,0,1,1.452.218,1.073,1.073,0,0,1-.187,1.484l-12.553,9.7a1,1,0,0,1-.633.209" transform="translate(-594.792 -939.005)" fill="#372d4f"/>
        <path id="Path_361" data-name="Path 361" d="M638.272,613.091c-.568,18.957-14.992,30.585-32.218,25.97s-30.729-23.723-30.161-42.68,14.992-30.584,32.218-25.97,30.729,23.723,30.161,42.68" transform="translate(-366.177 -362.061)" fill="#d16d53"/>
        <path id="Path_362" data-name="Path 362" d="M262.893,758.183,242.162,778.6,231.2,769.734l-3.394,1.406s7.116,28.553,13.719,28.958c6.646.408,19.014-18.293,19.014-18.293Z" transform="translate(-144.855 -482.1)" fill="#009245"/>
        <path id="Path_363" data-name="Path 363" d="M220.826,774.541h0c-1.4.693-2.116,2.152-1.587,3.244l2.305,2.712c.7.829.97,1.1,2.375.408s2.083.26,1.544-2.062l-1.573-3.051a3.887,3.887,0,0,0-.791-1.072c-.61-.569-1.169-.725-2.273-.18" transform="translate(-139.294 -492.287)" fill="#d16d53"/>
        <g id="Group_30" data-name="Group 30" transform="translate(92.588 434.489)" opacity="0.3" style="mix-blend-mode: multiply;isolation: isolate">
          <g id="Group_29" data-name="Group 29">
            <g id="Group_28-2" data-name="Group 28" clip-path="url(#clip-path-3)">
              <path id="Path_364" data-name="Path 364" d="M331.4,1199.568c-9.95-6.3-27.877-8.261-40.042-4.376a24.889,24.889,0,0,0-5.307,2.342c-7.177-2.9-17.247-3.529-24.452-1.228-8.547,2.731-9.808,8.534-2.817,12.962,6.719,4.255,18.6,5.682,27.108,3.365.457.339.938.676,1.459,1.006,9.951,6.3,27.877,8.261,40.042,4.376s13.959-12.144,4.008-18.446" transform="translate(-254.266 -1193.196)" fill="#b3b3b3"/>
            </g>
          </g>
        </g>
        <path id="Path_365" data-name="Path 365" d="M279.271,1201.991l7.7-7.235a7.435,7.435,0,0,1,5.461-2.048,11.978,11.978,0,0,1,2.105.295,1.559,1.559,0,0,1,1.312,1.664l.089,1.594c.063,2.666.338,3.562-1.486,4.3l-10.835,4.4c-2.269,1.41-8.244.2-4.345-2.976" transform="translate(-176.757 -758.391)" fill="#333"/>
        <path id="Path_366" data-name="Path 366" d="M316.595,1026.706a3.544,3.544,0,0,1-3.721,2.937c-.863-.113-1.45-.635-1.538-2.269.66-18.3-.791-33.592-.185-50.695.68-19.2,1.075-13.528,2.163-42.963l17.651-3.248c-4.215,21.15-6.581,47.881-6.581,47.881,4.2,19.775-3.216,25.481-7.789,48.358" transform="translate(-197.752 -591.648)" fill="#d16d53"/>
        <path id="Path_367" data-name="Path 367" d="M330.32,893.318l-8.854,41.9c-.838,4.815-.158,10.479.606,15.3,1.131,7.134,1.715,21.379-4.968,41.9-2.857,2.13-9.183,2.309-12.152.262,0,0-1.407-46.093-1.13-54.965s3.665-56.617,3.665-56.617Z" transform="translate(-193.165 -560.26)" fill="#a67c52"/>
        <path id="Path_368" data-name="Path 368" d="M406.809,1211.642l.024,4.422a28.863,28.863,0,0,0,.888,4.371,3.911,3.911,0,0,0,3.348,2.34c1.684.117,5.121-2.652,3.974-6.119-1-3.021-3.019-7.845-3.019-7.845a17.305,17.305,0,0,1-4.019,1.376,1.447,1.447,0,0,0-1.2,1.454" transform="translate(-258.674 -768.636)" fill="#333"/>
        <path id="Path_369" data-name="Path 369" d="M394.849,1042.1c.282,2.277-3.426,3.222-4.912.9-1.423-18.192-4.346-34.7-5.687-51.706-1.506-19.094-3.246-17.982-5.51-47.255l19.222,1.287c-1.8,21.326-1.114,48.026-1.114,48.026,6.687,19.993-.383,23.373-2,48.743" transform="translate(-240.826 -600.285)" fill="#d16d53"/>
        <path id="Path_370" data-name="Path 370" d="M375.028,896.615s-3.065,38.432-2.141,46.914c.718,6.592,2.735,17.423,3.6,21.922a23.065,23.065,0,0,1,.413,4.444c-.026,6.563,1.048,24.4-1.629,35.4-2.137,2.986-10.729,2.444-14.11.6l-4.689-44.271c-.1-.518-5.1-37.14-5.1-37.14l-11.007-3.419,7.206-25.683s28.719,3.7,27.46,1.24" transform="translate(-216.423 -569.335)" fill="#a67c52"/>
        <path id="Path_371" data-name="Path 371" d="M320.455,742.994c2.431-.269,4.659-.8,5.314-1.3a9.351,9.351,0,0,1,8.534-1.3l10.922,4.341c11.673,4.132,12.008,12.84,12.426,19.415,0,0-3.7,7.818-3.9,14.071-.173,5.406,2.981,7.747,3.9,9.406.688,1.242,2.257,27.794-4.747,29.217-24.6,5-47.225-2.511-46.857-11.458.231-5.631,1.281-30.4,1.209-34.838s.788-25.348,9.755-26.807Z" transform="translate(-194.6 -470.476)" fill="#009245"/>
        <line id="Line_19" data-name="Line 19" x1="0.71" y2="3.643" transform="translate(119.019 288.211)" fill="none" stroke="#006837" stroke-linecap="round" stroke-linejoin="round" stroke-width="1.97"/>
        <path id="Path_372" data-name="Path 372" d="M348.791,888.022h0a2.466,2.466,0,0,0,2.627,2.348l4.327-1.989c1.213-.231.344-.186.11-1.71s.891-1.934-1.5-2.006l-3.414.734a4.157,4.157,0,0,0-1.274.487,1.76,1.76,0,0,0-.872,2.136" transform="translate(-221.75 -562.524)" fill="#d16d53"/>
        <path id="Path_373" data-name="Path 373" d="M389.642,772.985s10.637,23.591,6.943,37.747-33.3,7.739-33.3,7.739l-2.4-6.474s19.537-1.936,21.313-4.942c2.4-4.067-3.607-29.079-5.237-29.6Z" transform="translate(-229.473 -491.512)" fill="#009245"/>
        <path id="Path_374" data-name="Path 374" d="M395.259,816s2.308,15.248,1.95,17.146-15.729,5.469-15.729,5.469" transform="translate(-242.568 -518.865)" fill="none" stroke="#006837" stroke-linecap="round" stroke-linejoin="round" stroke-width="1.97"/>
        <path id="Path_375" data-name="Path 375" d="M354.412,741.67l3.559,13.638L371.8,742.291l-9.116-3.633Z" transform="translate(-225.357 -469.685)" fill="#fff"/>
        <path id="Path_376" data-name="Path 376" d="M365.569,735.253a2,2,0,0,1-2.307-1.48l-1.565-7.179a2.672,2.672,0,0,1,1.836-3.032l.381-.117c1.287-.394,4.89-.406,5.167.868l1.056,7.607c-.435,2.929-4.569,3.334-4.569,3.334" transform="translate(-229.954 -459.861)" fill="#d16d53"/>
        <path id="Path_377" data-name="Path 377" d="M364.186,736.571a7.309,7.309,0,0,0,5.024-3.7s-1.806,4.84-4.649,5.651Z" transform="translate(-231.571 -466.002)" fill="#63342e"/>
        <path id="Path_378" data-name="Path 378" d="M360.742,697.67c-1.231-1.892-3.005-2.152-4.595-.957-1.629-.608-3.524.484-4.85,3.1-1.847,3.635-2.583,9.3-.788,12.063a4.7,4.7,0,0,0,3.669,1.823c1.037-.026,1.917-.748,2.9-1.173,3.526-1.525,3.609-1,4.839-3.419,1.847-3.636.619-8.672-1.176-11.431" transform="translate(-222.22 -442.553)" fill="#d16d53"/>
        <path id="Path_379" data-name="Path 379" d="M374.275,699.817a76.556,76.556,0,0,1,3.188,10.478s5.35-4.062,4.915-7.092c-1.447-10.1-7.226-4.41-7.226-4.41Z" transform="translate(-237.987 -443.321)" fill="#603813"/>
        <path id="Path_380" data-name="Path 380" d="M359.215,690.913c2.136.414,3.483,1.949,4.263,4.7.1.351.912,1.923.953,2.221l-1.376-.336c.327,2.391-.8-1.117-3.205-.574-3.794-1.213-6.715,4.321-11.035,2.465a1.951,1.951,0,0,1-1.142-1.406,2.634,2.634,0,0,1,.794-2.573c2.543-2.19,3.826-3.364,6.671-4.248l.694-.138a8.837,8.837,0,0,1,3.383-.112" transform="translate(-221.033 -439.252)" fill="#603813"/>
        <path id="Path_381" data-name="Path 381" d="M356.861,733.564h0a1.882,1.882,0,0,1-1.3-2.175l3.037.5c-.121,1.062-.9,1.811-1.738,1.671" transform="translate(-226.078 -465.063)" fill="#fff"/>
        <path id="Path_382" data-name="Path 382" d="M379.95,723.516a2.138,2.138,0,0,1-1.8,2.348,1.989,1.989,0,0,1-2.284-1.742,2.138,2.138,0,0,1,1.8-2.348,1.989,1.989,0,0,1,2.284,1.742" transform="translate(-238.988 -458.934)" fill="#d16d53"/>
        <path id="Path_383" data-name="Path 383" d="M385.788,896.983s15.3.89,22.947-5.408" transform="translate(-245.307 -566.918)" fill="none" stroke="#006837" stroke-linecap="round" stroke-linejoin="round" stroke-width="1.97"/>
        <path id="Path_384" data-name="Path 384" d="M639.1,658.077l4.925,7.521,13.647-16.7" transform="translate(-406.38 -412.611)" fill="none" stroke="#fff" stroke-linecap="round" stroke-linejoin="round" stroke-width="7.643"/>
        <path id="Path_385" data-name="Path 385" d="M628.867,804.493l-43.557-11.3a6.867,6.867,0,0,1-4.85-6.338,3.709,3.709,0,0,1,4.85-3.821l43.557,11.3a6.865,6.865,0,0,1,4.85,6.337,3.71,3.71,0,0,1-4.85,3.822" transform="translate(-369.091 -497.803)" fill="#fff"/>
        <path id="Path_386" data-name="Path 386" d="M628.867,889.155l-43.557-11.3a6.866,6.866,0,0,1-4.85-6.338,3.709,3.709,0,0,1,4.85-3.821L628.867,879a6.866,6.866,0,0,1,4.85,6.338,3.71,3.71,0,0,1-4.85,3.821" transform="translate(-369.091 -551.636)" fill="#fff"/>
        <path id="Path_387" data-name="Path 387" d="M825.4,855.211l-43.557-11.3A6.865,6.865,0,0,1,777,837.573a3.709,3.709,0,0,1,4.849-3.821l43.557,11.3a6.865,6.865,0,0,1,4.85,6.337,3.71,3.71,0,0,1-4.85,3.821" transform="translate(-494.061 -530.052)" fill="#fff"/>
        <path id="Path_388" data-name="Path 388" d="M825.4,939.875l-43.557-11.3A6.866,6.866,0,0,1,777,922.235a3.709,3.709,0,0,1,4.849-3.821l43.557,11.3a6.865,6.865,0,0,1,4.85,6.338,3.71,3.71,0,0,1-4.85,3.821" transform="translate(-494.061 -583.886)" fill="#fff"/>
        <path id="Path_389" data-name="Path 389" d="M1024.655,905.931l-43.557-11.3a6.865,6.865,0,0,1-4.849-6.338,3.709,3.709,0,0,1,4.849-3.821l43.557,11.3a6.866,6.866,0,0,1,4.85,6.337,3.71,3.71,0,0,1-4.85,3.821" transform="translate(-620.758 -562.303)" fill="#fff"/>
        <path id="Path_390" data-name="Path 390" d="M1024.655,990.594l-43.557-11.3a6.865,6.865,0,0,1-4.849-6.338,3.709,3.709,0,0,1,4.849-3.821l43.557,11.3a6.865,6.865,0,0,1,4.85,6.337,3.71,3.71,0,0,1-4.85,3.821" transform="translate(-620.758 -616.136)" fill="#fff"/>
        <path id="Path_391" data-name="Path 391" d="M320.182,308.92a5.324,5.324,0,1,1-5.5-5.142A5.324,5.324,0,0,1,320.182,308.92Z" transform="translate(-196.823 -193.16)" fill="none" stroke="#006837" stroke-linecap="round" stroke-linejoin="round" stroke-width="2.686"/>
        <path id="Path_392" data-name="Path 392" d="M1102.428,219.883a5.324,5.324,0,1,1-5.5-5.142A5.323,5.323,0,0,1,1102.428,219.883Z" transform="translate(-694.222 -136.545)" fill="none" stroke="#006837" stroke-linecap="round" stroke-linejoin="round" stroke-width="2.686"/>
        <path id="Path_393" data-name="Path 393" d="M1474.3,1027.275a5.324,5.324,0,1,1-5.5-5.142A5.324,5.324,0,0,1,1474.3,1027.275Z" transform="translate(-930.683 -649.933)" fill="none" stroke="#006837" stroke-linecap="round" stroke-linejoin="round" stroke-width="2.686"/>
      </g>
    </g>
  </g>
</svg>
