<?xml version="1.0" encoding="utf-8"?>
<!-- Generator: Adobe Illustrator 28.1.0, SVG Export Plug-In . SVG Version: 6.00 Build 0)  -->
<svg version="1.1" id="Ebene_1" xmlns="http://www.w3.org/2000/svg" xmlns:xlink="http://www.w3.org/1999/xlink" x="0px" y="0px"
	 viewBox="0 0 2267.7 2000" style="enable-background:new 0 0 2267.7 2000;" xml:space="preserve">
<style type="text/css">
	.st0{fill-rule:evenodd;clip-rule:evenodd;fill:#ECD8B3;}
	.st1{fill-rule:evenodd;clip-rule:evenodd;fill:#689C39;}
	.st2{fill:#E6E6E6;}
	.st3{fill:#666666;}
	.st4{fill:#B3B3B3;}
	.st5{fill:#808080;}
	.st6{fill:#006837;}
	.st7{fill:#448A39;}
	.st8{fill:#447E39;}
	.st9{fill:#FFFFFF;}
	.st10{fill:#A67C52;}
	.st11{fill:#8C6239;}
	.st12{fill:#D16D53;}
	.st13{fill-rule:evenodd;clip-rule:evenodd;fill:#FFFFFF;}
	.st14{fill-rule:evenodd;clip-rule:evenodd;fill:#6B3328;}
	.st15{fill-rule:evenodd;clip-rule:evenodd;fill:#E6E6E6;}
	.st16{fill-rule:evenodd;clip-rule:evenodd;fill:#D16D53;}
	.st17{fill-rule:evenodd;clip-rule:evenodd;fill:#333333;}
	.st18{fill-rule:evenodd;clip-rule:evenodd;fill:#A67C52;}
	.st19{fill-rule:evenodd;clip-rule:evenodd;fill:#8C6239;}
	.st20{fill-rule:evenodd;clip-rule:evenodd;fill:#006837;}
	.st21{fill-rule:evenodd;clip-rule:evenodd;fill:#873B24;}
	.st22{fill:#BD6174;}
	.st23{fill:#8B939C;}
	.st24{fill:#C69C6D;}
	.st25{fill:#754C24;}
</style>
<g id="background">
</g>
<g id="image">
	<path class="st0" d="M1774.7,891.5c0,0-17.7,270.3-232.9,309.6c-215.2,39.3-400,23.1-565.2,167.6
		c-238.7,208.9-635.4-19.5-583.5-460s545.3-472.1,655.9-481C1147.2,419.9,1794.8,377.5,1774.7,891.5z"/>
	<g>
		<path class="st1" d="M1228.6,376c-40.2,103.6-40.2,273.1,0,376.6l73.1,188.3l73.1-188.3c40.2-103.6,40.2-273.1,0-376.6
			l-73.1-188.3L1228.6,376z"/>
		<path class="st1" d="M1603.4,567.9C1516.9,606,1415,708,1376.9,794.4l-73.2,165.1c0,0,39.3-11.6,71-27.7
			c31.7-16.1,90.2-49.5,90.2-49.5c86.5-38.1,188.4-140.1,226.6-226.6l69.3-157.2L1603.4,567.9z"/>
		<path class="st1" d="M1648.4,918.7c-61.9-24-163.2-24-225.2,0l-112.6,43.7l112.6,43.7c61.9,24,163.2,24,225.2,0l112.6-43.7
			L1648.4,918.7z"/>
		<path class="st1" d="M1471.8,1096.9c-16.2-36.7-59.5-80-96.2-96.2l-66.8-29.4l29.4,66.8c16.2,36.7,59.5,80,96.2,96.2l66.8,29.4
			L1471.8,1096.9z"/>
		<path class="st1" d="M1000,567.9c86.5,38.1,188.4,140.1,226.6,226.6l69.3,157.2l-157.2-69.3c-86.5-38.1-188.4-140.1-226.6-226.6
			l-69.3-157.2L1000,567.9z"/>
		<path class="st1" d="M955,918.7c61.9-24,163.2-24,225.2,0l112.6,43.7l-112.6,43.7c-61.9,24-163.2,24-225.2,0l-112.6-43.7
			L955,918.7z"/>
		<path class="st1" d="M1131.6,1096.9c16.2-36.7,59.5-80,96.2-96.2l66.8-29.4l-29.4,66.8c-16.2,36.7-59.5,80-96.2,96.2l-66.8,29.4
			L1131.6,1096.9z"/>
	</g>
	<ellipse class="st2" cx="1109.5" cy="1520.2" rx="461.1" ry="40.1"/>
	<g>
		<path class="st3" d="M1222,832.8c-1.6,0-2.9-1.3-2.9-2.9V711.3c0-52.4-42.7-95.1-95.1-95.1s-95.1,42.7-95.1,95.1v118.5
			c0,1.6-1.3,2.9-2.9,2.9s-2.9-1.3-2.9-2.9V711.3c0-55.7,45.3-100.9,100.9-100.9s100.9,45.3,100.9,100.9v118.5
			C1225,831.5,1223.7,832.8,1222,832.8z"/>
		<polygon class="st4" points="1453.5,1508.1 753.6,1508.1 824,780 1281.1,780 		"/>
		<polygon class="st5" points="1453.5,1508.1 1281.1,1508.1 1281.1,780 1360.4,780 		"/>
		<path class="st3" d="M1281.1,1511c-0.9,0-1.8-0.4-2.4-1.2c-0.9-1.3-0.6-3.1,0.7-4.1l84.9-59.3l-44.6-636.3c-0.1-1.6,1.1-3,2.7-3.1
			c1.6-0.1,3,1.1,3.1,2.7l44.8,637.9c0.1,1-0.4,2-1.2,2.6l-86.2,60.2C1282.3,1510.8,1281.7,1511,1281.1,1511z"/>
		<circle class="st3" cx="950.8" cy="836.4" r="15.9"/>
		<circle class="st3" cx="1146.8" cy="836.4" r="15.9"/>
		<path class="st5" d="M1146.8,838.3c-1.6,0-2.9-1.3-2.9-2.9V716.8c0-52.4-42.7-95.1-95.1-95.1s-95.1,42.7-95.1,95.1v118.5
			c0,1.6-1.3,2.9-2.9,2.9s-2.9-1.3-2.9-2.9V716.8c0-55.7,45.3-100.9,100.9-100.9s100.9,45.3,100.9,100.9v118.5
			C1149.7,837,1148.4,838.3,1146.8,838.3z"/>
	</g>
	<path class="st6" d="M1461.9,584.3c-12.5,0-22.6-10.2-22.6-22.6s10.1-22.6,22.6-22.6s22.6,10.2,22.6,22.6
		S1474.4,584.3,1461.9,584.3z M1461.9,542.9c-10.4,0-18.8,8.4-18.8,18.8s8.4,18.8,18.8,18.8s18.8-8.4,18.8-18.8
		S1472.3,542.9,1461.9,542.9z"/>
	<path class="st6" d="M1533,1095.1c-12.5,0-22.6-10.2-22.6-22.6s10.2-22.6,22.6-22.6s22.6,10.2,22.6,22.6S1545.4,1095.1,1533,1095.1
		z M1533,1053.6c-10.4,0-18.8,8.4-18.8,18.8s8.4,18.8,18.8,18.8s18.8-8.4,18.8-18.8S1543.3,1053.6,1533,1053.6z"/>
	<path class="st6" d="M586.9,851.8c-12.5,0-22.6-10.2-22.6-22.6s10.2-22.6,22.6-22.6s22.6,10.2,22.6,22.6S599.3,851.8,586.9,851.8z
		 M586.9,810.4c-10.4,0-18.8,8.4-18.8,18.8s8.4,18.8,18.8,18.8c10.4,0,18.8-8.4,18.8-18.8S597.2,810.4,586.9,810.4z"/>
	<g>
		<path class="st7" d="M1289.1,1144.3h-64.9l-4.5,14.1c-43.4,24.8-53.4,49.1-53.4,99.4V1509c0,17.5,14.3,31.8,31.8,31.8h91
			L1289.1,1144.3L1289.1,1144.3z"/>
		<path class="st7" d="M1255.8,1144.3H1362l4.5,14.1c43.4,24.8,53.4,49.1,53.4,99.4V1509c0,17.5-14.3,31.8-31.8,31.8h-121.6
			L1255.8,1144.3z"/>
		<rect x="1215.9" y="1095.2" class="st7" width="156.7" height="70"/>
		<path class="st8" d="M1372.5,1162v-66.8H1333v66.8c38.2,23.6,47.3,48,47.3,95.8V1509c0,17.5-14.3,31.8-31.8,31.8h-82.1l0,0H1388
			c17.5,0,31.8-14.3,31.8-31.8v-251.2C1419.8,1210,1410.8,1185.7,1372.5,1162z"/>
		<path class="st9" d="M1341.6,1271.7h-157.8v223.4h157.8c4.1,0,7.5-3.3,7.5-7.5v-208.5C1349,1275,1345.7,1271.7,1341.6,1271.7z"/>
		<path class="st5" d="M1285.1,1331.1h-78.5c-3.4,0-6.1-2.7-6.1-6.1s2.7-6.1,6.1-6.1h78.5c3.4,0,6.1,2.7,6.1,6.1
			S1288.5,1331.1,1285.1,1331.1z"/>
		<path class="st5" d="M1234.9,1374.6h-26.4c-3.4,0-6.1-2.7-6.1-6.1s2.7-6.1,6.1-6.1h26.4c3.4,0,6.1,2.7,6.1,6.1
			S1238.3,1374.6,1234.9,1374.6z"/>
		<path class="st10" d="M1381.7,1109.1H1207c-5.4,0-9.7-4.3-9.7-9.7v-22.5c0-5.4,4.3-9.7,9.7-9.7h174.7c5.4,0,9.7,4.3,9.7,9.7v22.5
			C1391.4,1104.7,1387.1,1109.1,1381.7,1109.1z"/>
		<path class="st10" d="M1387.6,1130.2h-184.7c-2.1,0-3.8-1.7-3.8-3.8v-3.2c0-2.1,1.7-3.8,3.8-3.8h184.6c2.1,0,3.8,1.7,3.8,3.8v3.2
			C1391.4,1128.5,1389.7,1130.2,1387.6,1130.2z"/>
		<path class="st11" d="M1381.7,1067.2h-55.1v41.9h55.1c5.4,0,9.7-4.3,9.7-9.7v-22.5C1391.4,1071.5,1387.1,1067.2,1381.7,1067.2z"/>
		<path class="st11" d="M1386,1119.4h-59.4v10.8h59.4c3,0,5.4-2.4,5.4-5.4S1389,1119.4,1386,1119.4z"/>
	</g>
	<g>
		<path class="st12" d="M831.6,1022.2l14.3-8.4l22.5,4c0,0-49.5,34.8-49.3,35.3C819.1,1053.6,831.6,1022.2,831.6,1022.2z"/>
		<path class="st13" d="M725.2,1017.8c0,0,92.8,57.7,88.2,69.9l-1.9,5.5c-2.5,7.1-13.6,14.6-19.9,10.5l-49.3-23.6l-4.2-17.5
			L725.2,1017.8z"/>
		<path class="st14" d="M630.6,1028.3c0.4-2.6-0.5-5.1-2.1-7.1c-13.1-16.5,12.3-29.6,19.6-35.4c7.6-6.1-2.2-19.4,14.4-25.8
			c16.6-6.3,22.4,2.3,23.2,2c1.2-0.4-1.4,16.4-1.4,16.4s-8.3,3.1-7.4,19.9s5.7,25.4-4.2,39.1c-9.8,13.7-51.8-1.7-51.8-1.7
			C627.9,1035.2,630,1031.6,630.6,1028.3z"/>
		<path class="st12" d="M849.6,1022.9l14.1,1.3c2.8,0.3,5.7-0.5,8-2.1l9.4-6.6c3.3-2.3,3.2-7.2-0.1-9.4l0,0l-17.9-0.7
			c-3.9-0.2-8.1,1.3-11.5,4l-5.8,4.5L849.6,1022.9z"/>
		<ellipse class="st15" cx="647.7" cy="1539.6" rx="125.4" ry="9.3"/>
		<path class="st16" d="M693.3,1523.3c0,0-17-113.5,4.9-158.4l-12-154l71.8,4.9l-48.4,308.3L693.3,1523.3z"/>
		<path class="st17" d="M710.2,1518.8l14.2,10.4c2.8,2.6,18.1,7.5,18.1,7.5l0,0c1.5,3.2-1.5,4.9-4,5.3l-45.1-0.9
			c0,0-10.4-2.2-1.2-22.2C700.5,1522.5,708.1,1525.1,710.2,1518.8z"/>
		<path class="st18" d="M763,1239.9l-16.6,130.4L724.6,1501h-52.5c0,0,4.9-22.7,4.3-29.9c-0.6-7.2-2.5-75.6,13.5-107.1l-1.3-128.2
			L763,1239.9z"/>
		<path class="st19" d="M689.6,1364l-1.3-128.2l24.9,1.4l0.9,93.8c0.2,17.5-2.2,35.1-6.5,52.3c-8.5,34.1-7.1,81.7-6.7,87.7
			c0.6,7.2-4.3,29.9-4.3,29.9h-24.9c0,0,4.9-22.7,4.3-29.9C675.5,1463.9,673.5,1395.5,689.6,1364z"/>
		<path class="st16" d="M640.3,1379.5l-66.4,123.3c-12.9,4.7-13.7-2.8-10.1-14.8c15.2-52,8.6-83.7,51.4-130.1L640.3,1379.5z"/>
		<path class="st18" d="M704.1,1229.5l-39.2,128.4c-1.6,6-5.3,14.7-8.1,20.2L593.6,1490l-40-8.4c8.3-53.5,25.1-90,61.6-141.6
			l14.2-124.1l33.9,1.4L704.1,1229.5z"/>
		<path class="st17" d="M574.5,1502.5l0.5,17.6c-0.3,3.8,5.1,18.9,5.1,18.9l0,0c-1.6,3.2-4.7,1.8-6.6,0.1l-26.8-36.3
			c0,0-4.7-9.6,16.9-14.5C565.6,1497,568.2,1504.6,574.5,1502.5z"/>
		<path class="st18" d="M655.4,1134.6l98.1,7.5c16,5.9,9.6,97.8,9.6,97.8l-64.5,3c-30-0.6-65.4,22.9-69.1-27.1
			C625.2,1158.8,655.4,1134.6,655.4,1134.6z"/>
		<path class="st20" d="M725.2,1017.8l-36-4.2l-9.9,0.4l-37.5,13.1c-12.6,6.3-18.5,20.9-13.7,34.2l9.2,43
			c-9.8,32.4-14.8,55.1-13.1,88.5c53.2,19.8,126.4,18.8,143.2-5.6C764.6,1120.4,751.2,1060.8,725.2,1017.8z"/>
		<path class="st16" d="M706.9,994.7c0,0-1.9,14.2-3.5,25.9c-0.4,3.1-2.5,5.8-5.4,7c-2.9,1.2-6.2,0.7-8.6-1.3
			c-0.8-0.6-1.6-1.3-2.3-1.9c-3.3-2.7-4.8-7.1-3.8-11.3c2.6-10.8,7.3-30.4,7.3-30.4L706.9,994.7L706.9,994.7z"/>
		<polygon class="st21" points="706.6,1002.5 704.8,1010.9 697.7,1002.5 		"/>
		<path class="st12" d="M708.9,1016c0,0,11.8,29.2-8.3,30.5s-31-29.1-31-29.1l14.6-6.5L708.9,1016z"/>
		<path class="st16" d="M683.5,979.4c-1.3-4,0.8-8.3,4.7-9.6c4.2-1.4,9.5-3.2,13.7-4.7c3.9-1.3,7.6,1,9.5,4.8
			c2.3,4.4,4.8,14.2,5.8,21.6c0.6,4.2-1.3,8.8-5.2,10.1c-4.2,1.4-18.1,1.7-21.9-5.5C687.2,990.7,685.4,985.3,683.5,979.4
			L683.5,979.4z"/>
		<path class="st14" d="M671.7,998.9c0,0,0.1-21.5,5.2-28.5c6.9-9.4,17.3-15.7,31.1-7.5c0,0-4.9,17.4-31.1,35.4L671.7,998.9z"/>
		<path class="st16" d="M684.4,996.7c2.1,2.7,5.6,3.4,7.8,1.7c2.2-1.8,2.2-5.4,0.1-8.1c-2.1-2.7-5.6-3.4-7.8-1.7
			C682.3,990.4,682.3,994,684.4,996.7z"/>
		<path class="st13" d="M714.5,989.1l-6.9,2.2c0,0,1.6,4.7,4.8,3.3S714.5,989.1,714.5,989.1z"/>
		<path class="st16" d="M611.1,1124.1l40.2-49.1c9.9-11.6,7-29.4-6.1-37.3l0,0c-5.2-3.1-11.8-1.5-15,3.6l-39.7,63.5L611.1,1124.1z"
			/>
		<path class="st22" d="M634.8,1179.3c-0.6,0-1.2-0.4-1.4-1.1l-7.3-23.6c-0.2-0.8,0.2-1.6,1-1.9c0.8-0.2,1.6,0.2,1.9,1l7.3,23.6
			c0.2,0.8-0.2,1.6-1,1.9C635.1,1179.3,634.9,1179.3,634.8,1179.3z"/>
		<path class="st23" d="M674.2,975.4h-0.1c-0.5-0.1-0.8-0.5-0.7-0.9c1.9-13.5,11.8-13,11.8-13c0.5,0,0.8,0.4,0.8,0.9
			s-0.4,0.8-0.9,0.8c-0.3,0-8.4-0.3-10.1,11.6C675,975.1,674.7,975.4,674.2,975.4z"/>
		<path class="st13" d="M629,1040.2l4.4,68.3l-11.5,62c0,0-6,122.7-9.2,143.5c-3.3,20.8-27.6,59.7-27.6,59.7s36.7,11,55.1,5.8
			c0,0,27.7-98.7,31.8-118.2s13.9-141.1,14.2-170.6s-23.6-70.9-23.6-70.9l-22.2,6.8C640.6,1026.6,630.1,1031.8,629,1040.2z"/>
		<path class="st16" d="M601.8,1097.2c-12.7,5.3-20.2,17-15.8,32.3l36.3,69.2l10.6-12.4l-18.6-55.7L601.8,1097.2z"/>
		<path class="st12" d="M632.8,1186.3l1.9,14.1c0.4,2.8-0.3,5.7-1.8,8.1l-6.3,9.7c-2.2,3.4-7.1,3.5-9.4,0.3l0,0l-1.4-17.9
			c-0.3-3.9,1-8.1,3.5-11.7l4.3-6L632.8,1186.3z"/>
		<path class="st13" d="M634.8,1180.9l-23.8,6.3c0,0-27.1-50.5-29.3-56.4s-2.8-18.4,5-28.2c7.9-9.8,42.3-62.5,42.3-62.5
			s15.5-17.5,29.2,9.8c9.6,19.3-40.6,70.8-40.6,70.8L634.8,1180.9z"/>
		<path class="st4" d="M635.8,1098.7c-0.3,0-0.5-0.1-0.8-0.2c-0.7-0.4-0.9-1.3-0.5-2l17.5-28.8v-6c0-0.8,0.7-1.5,1.5-1.5
			s1.5,0.7,1.5,1.5v6.4c0,0.3-0.1,0.5-0.2,0.8l-17.8,29.2C636.8,1098.4,636.3,1098.7,635.8,1098.7z"/>
		<path class="st13" d="M713.7,1016.4c0,0,34.7,85,37.1,143.3c2.4,58.3-11.1,217.1-11.1,217.1l18.3-2.8l12.9-194.5
			c0,0,1.4-58.4-18.8-114.1l-18.5-33.7l-8.5-14L713.7,1016.4z"/>
		<path class="st13" d="M810.8,1094.7c3.4-2.9,48.6-65.3,48.6-65.3l-20.8-17.1l-67.6,51.9L810.8,1094.7z"/>
	</g>
	<g>
		<g>
			<path class="st24" d="M1026.9,1307.3l9.6,17.5v28.1v154.6v25.4c0,4.4,3.6,8,8,8h131.2c4.4,0,8-3.6,8-8v-206.2l9.6-19.3
				L1026.9,1307.3L1026.9,1307.3z"/>
			<path class="st10" d="M1063.7,1307.3c99.6,20.9,91.3,112.7,90.3,199.7c0,28.1-38.4,33.8-42.8,33.8h64.6c4.4,0,8-3.6,8-8v-206.2
				l9.6-19.3H1063.7z"/>
			<path class="st11" d="M1174.4,1241.5h-121.7h-9.7c-6.9,0-12.6,5.6-12.6,12.6v19.5H1187V1254
				C1187,1247.1,1181.4,1241.5,1174.4,1241.5L1174.4,1241.5z"/>
			<path class="st11" d="M1201.8,1307.3h-185.9v-20.7c0-7.2,5.8-13,13-13h160c7.2,0,13,5.8,13,13v20.7H1201.8z"/>
		</g>
		<rect x="1036.5" y="1372.8" class="st9" width="73.6" height="104.5"/>
		<path class="st25" d="M1183.6,1275.2h-153.2c-0.9,0-1.6-0.7-1.6-1.6s0.7-1.6,1.6-1.6h153.2c0.9,0,1.6,0.7,1.6,1.6
			S1184.5,1275.2,1183.6,1275.2z"/>
		<path class="st25" d="M1053.1,1273.6c-0.9,0-1.6-0.7-1.6-1.6v-25.4c0-0.9,0.7-1.6,1.6-1.6s1.6,0.7,1.6,1.6v25.4
			C1054.8,1272.8,1054,1273.6,1053.1,1273.6z"/>
		<path class="st25" d="M1081.5,1273.6c-0.9,0-1.6-0.7-1.6-1.6v-25.4c0-0.9,0.7-1.6,1.6-1.6s1.6,0.7,1.6,1.6v25.4
			C1083.2,1272.8,1082.4,1273.6,1081.5,1273.6z"/>
		<path class="st25" d="M1109.9,1273.6c-0.9,0-1.6-0.7-1.6-1.6v-25.4c0-0.9,0.7-1.6,1.6-1.6s1.6,0.7,1.6,1.6v25.4
			C1111.6,1272.8,1110.8,1273.6,1109.9,1273.6z"/>
		<path class="st25" d="M1138.3,1273.6c-0.9,0-1.6-0.7-1.6-1.6v-25.4c0-0.9,0.7-1.6,1.6-1.6s1.6,0.7,1.6,1.6v25.4
			C1140,1272.8,1139.2,1273.6,1138.3,1273.6z"/>
		<path class="st25" d="M1160.5,1273.6c-0.9,0-1.6-0.7-1.6-1.6v-25.4c0-0.9,0.7-1.6,1.6-1.6s1.6,0.7,1.6,1.6v25.4
			C1162.1,1272.8,1161.4,1273.6,1160.5,1273.6z"/>
	</g>
</g>
</svg>
