<?xml version="1.0" encoding="utf-8"?>
<!-- Generator: Adobe Illustrator 28.1.0, SVG Export Plug-In . SVG Version: 6.00 Build 0)  -->
<svg version="1.1" id="Ebene_1" xmlns="http://www.w3.org/2000/svg" xmlns:xlink="http://www.w3.org/1999/xlink" x="0px" y="0px"
	 viewBox="0 0 2267.7 2000" style="enable-background:new 0 0 2267.7 2000;" xml:space="preserve">
<style type="text/css">
	.st0{fill:#ECD8B3;}
	.st1{fill-rule:evenodd;clip-rule:evenodd;fill:#689C39;}
	.st2{fill:#E6E6E6;}
	.st3{fill:#B3B3B3;}
	.st4{fill:#808080;}
	.st5{fill:#F2F2F2;}
	.st6{fill:#372D4F;}
	.st7{fill:#D16D53;}
	.st8{fill:#009245;}
	.st9{opacity:0.3;fill:#B3B3B3;enable-background:new    ;}
	.st10{fill:#333333;}
	.st11{fill:#A67C52;}
	.st12{fill:#006837;}
	.st13{fill:#FFFFFF;}
	.st14{fill:#63342E;}
	.st15{fill:#603813;}
</style>
<g id="background">
</g>
<g id="image">
	<path class="st0" d="M1985,1122.1c224.7-409.7-111.3-895.5-614.5-875.5c-151.7,6-301.3,60.6-413.3,207.5
		C697.9,794,465,711.5,396.6,978.6s222.7,552.8,617.1,236.6c288.3-231.1,564.9,436.9,895.6,32.8
		C1942.2,1207.8,1962.9,1162.6,1985,1122.1z"/>
	<g>
		<path class="st1" d="M1557.8,431.5c-40.2,103.6-40.2,273.1,0,376.6l73.1,188.3l73.1-188.3c40.2-103.6,40.2-273.1,0-376.6
			l-73.1-188.3L1557.8,431.5z"/>
		<path class="st1" d="M1932.6,623.4c-86.5,38.1-188.4,140.1-226.6,226.6l-73.2,165.1c0,0,39.3-11.6,71-27.7
			c31.7-16.1,90.2-49.5,90.2-49.5c86.5-38.1,188.4-140.1,226.6-226.6l69.3-157.2L1932.6,623.4z"/>
		<path class="st1" d="M1977.6,974.3c-61.9-24-163.2-24-225.2,0l-112.6,43.7l112.6,43.7c61.9,24,163.2,24,225.2,0l112.6-43.7
			L1977.6,974.3z"/>
		<path class="st1" d="M1801,1152.5c-16.2-36.7-59.5-80-96.2-96.2l-66.8-29.4l29.4,66.8c16.2,36.7,59.5,80,96.2,96.2l66.8,29.4
			L1801,1152.5z"/>
		<path class="st1" d="M1329.1,623.4c86.5,38.1,188.4,140.1,226.6,226.6l69.3,157.2l-157.2-69.3c-86.5-38.1-188.4-140.1-226.6-226.6
			l-69.3-157.2L1329.1,623.4z"/>
		<path class="st1" d="M1284.2,974.3c61.9-24,163.2-24,225.2,0L1622,1018l-112.6,43.7c-61.9,24-163.2,24-225.2,0l-112.6-43.7
			L1284.2,974.3z"/>
		<path class="st1" d="M1460.8,1152.5c16.2-36.7,59.5-80,96.2-96.2l66.8-29.4l-29.4,66.8c-16.2,36.7-59.5,80-96.2,96.2l-66.8,29.4
			L1460.8,1152.5z"/>
	</g>
	<g>
		<path class="st2" d="M1258.6,1802.1l145.8-17l459-362.7c17.6-13.9,12.4-42.6-9-49.8l-220.3-60.6L1258.6,1802.1z"/>
		<path class="st3" d="M1691.7,878.4c-0.1-2.3-0.7-4.6-1.6-6.7l0,0c-2.6-5.9-7.5-10.6-13.1-13.3c-1.2-0.6-2.5-1.1-3.7-1.5
			c-0.4-0.1-0.9-0.3-1.4-0.4c-0.1,0-20.2-5-20.3-5l-21.3,17.5c3.3,0.9,22.9,4.1,25.8,6.1c8.4,4.1,15.5,13,14.7,22.6l-1.9,63.3
			c-1.3-0.3-14.2,19.1-13.8,19.4c0.1,0-0.3,473.6-0.3,473.6c-0.1,2.1-7.2,17.5-5.3,15.9l19.6-21.4c4.2-4.5,6.5-10,6.7-15.5
			l15.7-547.9C1691.6,882.2,1691.7,879.8,1691.7,878.4C1691.8,878.5,1691.7,878.4,1691.7,878.4z"/>
		<path class="st3" d="M1664,854.3l-831.1-205l0,0c0,0,0,0-0.1,0l-1.2-0.3l0,0c-3-0.8-4.7-1.1-7.5-1.1l0,0c-1,0-1.9,0.1-2.9,0.3
			c-2.6,0.5-5.1,1.5-7.2,3.1l-12.8,10.2c0,0,5.7,2.8,12.6,4.9l0,0l832.4,205.3L1664,854.3z M825.4,652.3L825.4,652.3L825.4,652.3
			L825.4,652.3z"/>
		<path class="st4" d="M1656.1,865.1L817.5,658.2c-11.4-2.8-20.8,3.1-21.2,13.2l-13.9,458.2c0,0.5,0,1,0,1.5l-3.4,104
			c-0.3,10.1,10,20.3,21.3,23.1l838.6,206.9c11.4,2.8,20.9-3.1,21.2-13.2l14.5-511.3c0-0.6,0-1.2,0-1.8l1.5-50.3
			C1676.5,878.4,1667.5,868,1656.1,865.1z"/>
		<path class="st3" d="M1651.2,1470.3l-29.3,22.1l-7.8-12.1L796,1261.8c-9.9-2.6-28.6,2.3-39.2,10.3l-327.9,249.4l-0.4-4.8
			l-50.1,33.9l-7.5-0.9l2.6,20.7c1.1,4.4,4.8-0.8,8.1,0.1l850,235.1c9.9,2.6,26.6-1.2,37.1-9.3l368.8-281.5
			c5.7-4.4,10.1-12.2,9.8-15.9L1651.2,1470.3z"/>
		<path class="st3" d="M796.1,1261.8c-9.9-2.6-28.6,2.3-39.2,10.3L429,1521.5l-0.4-4.8l-50.1,33.9l-7.8-7.4l1.1,25.3
			c0,4.2,3.3,5.8,6.6,6.7l853.2,230.3c4.1,1.1,9.3,1.1,14.7,0.1l-20.6-211.4C1231.6,1590,796.1,1261.8,796.1,1261.8z"/>
		<path class="st2" d="M1229.1,1777.8l-851.3-227.4c-9.9-2.6-9.3-11.4,1.2-19.4l384.3-287.8c10.5-8,28.6-10.7,38.5-8.1l842.9,225.2
			c9.9,2.6,9.3,11.4-1.2,19.4L1266.1,1768C1255.6,1776,1238.9,1780.5,1229.1,1777.8z"/>
		<g>
			<g>
				<g>
					<path class="st3" d="M853.2,1319.8c-1.2,0.9-3.7,1.2-5.5,0.7l-50.6-13.2c-1.8-0.5-2.3-1.6-1.1-2.4l33.2-24
						c1.2-0.9,3.7-1.2,5.5-0.7l50.6,13.2c1.8,0.5,2.3,1.6,1.1,2.4L853.2,1319.8z"/>
					<path class="st3" d="M912.4,1380.4c-1.2,0.9-3.6,1.2-5.5,0.7l-50.6-13.2c-1.8-0.5-2.3-1.6-1.1-2.4l33.2-24
						c1.2-0.9,3.6-1.2,5.4-0.7l50.6,13.2c1.9,0.5,2.3,1.6,1.2,2.4L912.4,1380.4z"/>
					<path class="st3" d="M883.2,1417.8c-1.2,0.9-3.7,1.2-5.5,0.7l-50.6-13.2c-1.8-0.5-2.3-1.6-1.1-2.4l33.2-24.1
						c1.2-0.9,3.7-1.2,5.5-0.7l50.6,13.2c1.8,0.5,2.3,1.6,1.2,2.4L883.2,1417.8z"/>
					<path class="st3" d="M803.3,1442c-1.2,0.9-3.6,1.2-5.5,0.7l-50.6-13.2c-1.8-0.5-2.3-1.6-1.1-2.4l33.2-24
						c1.2-0.9,3.7-1.2,5.5-0.7l50.6,13.2c1.8,0.5,2.3,1.6,1.1,2.4L803.3,1442z"/>
					<path class="st3" d="M664.6,1456.5c-1.2,0.9-3.7,1.2-5.5,0.7l-50.6-13.2c-1.8-0.5-2.3-1.6-1.1-2.4l39-28.2
						c1.2-0.8,3.7-1.2,5.5-0.7l50.6,13.2c1.8,0.5,2.3,1.6,1.1,2.4L664.6,1456.5z"/>
					<path class="st3" d="M751.9,1479.3c-1.2,0.9-4.1,1.1-6.5,0.4l-66.3-17.3c-2.4-0.6-3.4-1.8-2.2-2.7l39-28.2
						c1.2-0.8,4.1-1.1,6.5-0.4l66.3,17.3c2.4,0.6,3.4,1.9,2.2,2.7L751.9,1479.3z"/>
					<path class="st3" d="M1187.7,1593.3c-1,0.7-3.3,0.9-5.1,0.4l-50.6-13.2c-1.8-0.5-2.5-1.5-1.5-2.2l14.4-10.4
						c1-0.7,3.3-0.9,5.2-0.4l50.6,13.2c1.8,0.5,2.5,1.5,1.5,2.2L1187.7,1593.3z"/>
					<path class="st3" d="M1255.3,1611.9c-1,0.7-3.3,0.9-5.1,0.4l-50.6-13.2c-1.8-0.5-2.5-1.5-1.5-2.2l14.4-10.4
						c1-0.7,3.3-0.9,5.2-0.4l50.6,13.2c1.8,0.5,2.5,1.5,1.5,2.2L1255.3,1611.9z"/>
					<path class="st3" d="M1327,1629.8c-1,0.7-3.2,0.9-5.1,0.4l-50.6-13.2c-1.8-0.5-2.6-1.4-1.6-2.1l13.9-10.1
						c1-0.7,3.3-0.9,5.1-0.4l50.6,13.2c1.8,0.5,2.5,1.4,1.6,2.1L1327,1629.8z"/>
					<path class="st3" d="M1282.6,1592.5c-1,0.7-3.2,0.9-5.1,0.4l-50.6-13.2c-1.8-0.5-2.6-1.4-1.6-2.1l13.9-10.1
						c0.9-0.7,3.3-0.9,5.1-0.4l50.6,13.2c1.8,0.5,2.5,1.4,1.6,2.1L1282.6,1592.5z"/>
					<path class="st3" d="M1100.1,1570.2c-1.2,0.9-3.7,1.2-5.5,0.7l-329.5-86c-1.8-0.5-2.3-1.6-1.1-2.4l39-28.2
						c1.2-0.8,3.7-1.2,5.5-0.7l329.5,86c1.8,0.5,2.3,1.6,1.2,2.4L1100.1,1570.2z"/>
					<path class="st3" d="M872.8,1460.1c-1.2,0.9-3.6,1.2-5.5,0.7l-50.6-13.2c-1.8-0.5-2.3-1.6-1.1-2.4l33.2-24
						c1.2-0.9,3.7-1.2,5.5-0.7l50.6,13.2c1.8,0.5,2.3,1.6,1.1,2.4L872.8,1460.1z"/>
					<path class="st3" d="M942.5,1478.3c-1.2,0.9-3.7,1.2-5.5,0.7l-50.6-13.2c-1.8-0.5-2.3-1.6-1.2-2.4l33.2-24
						c1.2-0.9,3.7-1.2,5.5-0.7l50.6,13.2c1.8,0.5,2.3,1.6,1.1,2.4L942.5,1478.3z"/>
					<path class="st3" d="M1012.2,1496.5c-1.2,0.9-3.7,1.2-5.5,0.7l-50.6-13.2c-1.8-0.5-2.3-1.6-1.1-2.4l33.2-24
						c1.2-0.9,3.7-1.2,5.5-0.7l50.6,13.2c1.8,0.5,2.3,1.6,1.1,2.4L1012.2,1496.5z"/>
					<path class="st3" d="M1081.9,1514.7c-1.2,0.9-3.6,1.2-5.5,0.7l-50.6-13.2c-1.8-0.5-2.3-1.6-1.1-2.4l33.2-24
						c1.2-0.9,3.7-1.2,5.5-0.7l50.6,13.2c1.8,0.5,2.3,1.6,1.1,2.4L1081.9,1514.7z"/>
					<path class="st3" d="M1151.6,1532.9c-1.2,0.9-3.7,1.2-5.5,0.7l-50.6-13.2c-1.8-0.5-2.3-1.6-1.1-2.4l33.2-24
						c1.2-0.9,3.7-1.2,5.5-0.7l50.6,13.2c1.8,0.5,2.3,1.6,1.2,2.4L1151.6,1532.9z"/>
					<path class="st3" d="M1221.3,1551.1c-1.2,0.9-3.7,1.2-5.5,0.7l-50.6-13.2c-1.8-0.5-2.3-1.6-1.1-2.4l33.2-24
						c1.2-0.9,3.7-1.2,5.5-0.7l50.6,13.2c1.8,0.5,2.3,1.6,1.1,2.4L1221.3,1551.1z"/>
					<path class="st3" d="M1378.4,1592c-1.2,0.9-3.7,1.2-5.5,0.7l-137.9-36c-1.8-0.5-2.3-1.6-1.1-2.4l33.2-24
						c1.2-0.9,3.7-1.2,5.5-0.7l137.9,36c1.8,0.5,2.3,1.6,1.1,2.4L1378.4,1592z"/>
					<path class="st3" d="M952.6,1435.9c-1.2,0.9-3.6,1.2-5.4,0.7l-50.6-13.2c-1.8-0.5-2.3-1.6-1.1-2.4l33.2-24.1
						c1.2-0.9,3.6-1.2,5.5-0.7l50.6,13.2c1.8,0.5,2.3,1.6,1.1,2.4L952.6,1435.9z"/>
					<path class="st3" d="M1022.3,1454.1c-1.2,0.9-3.7,1.2-5.5,0.7l-50.7-13.2c-1.8-0.5-2.3-1.6-1.1-2.4l33.2-24.1
						c1.2-0.9,3.6-1.2,5.4-0.7l50.7,13.2c1.8,0.5,2.3,1.6,1.1,2.4L1022.3,1454.1z"/>
					<path class="st3" d="M1092,1472.3c-1.2,0.9-3.7,1.2-5.5,0.7l-50.6-13.2c-1.8-0.5-2.4-1.6-1.2-2.4l33.2-24.1
						c1.2-0.9,3.7-1.2,5.5-0.7l50.6,13.2c1.8,0.5,2.3,1.6,1.2,2.4L1092,1472.3z"/>
					<path class="st3" d="M1161.7,1490.5c-1.2,0.9-3.6,1.2-5.5,0.7l-50.6-13.2c-1.8-0.5-2.3-1.6-1.1-2.4l33.2-24.1
						c1.2-0.9,3.6-1.2,5.5-0.7l50.6,13.2c1.8,0.5,2.3,1.6,1.1,2.4L1161.7,1490.5z"/>
					<path class="st3" d="M1231.5,1508.6c-1.2,0.9-3.7,1.2-5.5,0.7l-50.7-13.2c-1.8-0.5-2.3-1.6-1.1-2.4l33.2-24.1
						c1.2-0.9,3.6-1.2,5.4-0.7l50.7,13.2c1.8,0.5,2.3,1.6,1.1,2.4L1231.5,1508.6z"/>
					<path class="st3" d="M1301.2,1526.8c-1.2,0.9-3.6,1.2-5.5,0.7l-50.6-13.2c-1.8-0.5-2.4-1.6-1.2-2.4l33.2-24.1
						c1.2-0.9,3.6-1.2,5.5-0.7l50.6,13.2c1.8,0.5,2.3,1.6,1.1,2.4L1301.2,1526.8z"/>
					<path class="st3" d="M1370.9,1545c-1.2,0.9-3.6,1.2-5.5,0.7l-50.7-13.2c-1.8-0.5-2.3-1.6-1.1-2.4l33.2-24.1
						c1.2-0.9,3.6-1.2,5.4-0.7l50.7,13.2c1.8,0.5,2.3,1.6,1.1,2.4L1370.9,1545z"/>
					<path class="st3" d="M981.8,1398.4c-1.2,0.9-3.7,1.2-5.5,0.7l-50.6-13.2c-1.8-0.5-2.3-1.6-1.1-2.4l33.2-24
						c1.2-0.9,3.6-1.2,5.4-0.7l50.6,13.2c1.8,0.5,2.3,1.6,1.2,2.4L981.8,1398.4z"/>
					<path class="st3" d="M1051.5,1416.6c-1.2,0.9-3.7,1.2-5.5,0.7l-50.6-13.2c-1.8-0.5-2.3-1.6-1.1-2.4l33.2-24
						c1.2-0.9,3.6-1.2,5.5-0.7l50.6,13.2c1.8,0.5,2.3,1.6,1.1,2.4L1051.5,1416.6z"/>
					<path class="st3" d="M1121.2,1434.8c-1.2,0.9-3.7,1.2-5.5,0.7l-50.6-13.2c-1.8-0.5-2.3-1.6-1.1-2.4l33.2-24
						c1.2-0.9,3.6-1.2,5.4-0.7l50.6,13.2c1.8,0.5,2.3,1.6,1.2,2.4L1121.2,1434.8z"/>
					<path class="st3" d="M1190.9,1453c-1.2,0.9-3.6,1.2-5.5,0.7l-50.6-13.2c-1.8-0.5-2.3-1.6-1.1-2.4l33.2-24
						c1.2-0.9,3.6-1.2,5.5-0.7l50.6,13.2c1.8,0.5,2.3,1.6,1.1,2.4L1190.9,1453z"/>
					<path class="st3" d="M1260.6,1471.2c-1.2,0.9-3.7,1.2-5.5,0.7l-50.6-13.2c-1.8-0.5-2.3-1.6-1.1-2.4l33.2-24
						c1.2-0.9,3.6-1.2,5.5-0.7l50.6,13.2c1.8,0.5,2.3,1.6,1.1,2.4L1260.6,1471.2z"/>
					<path class="st3" d="M1330.4,1489.4c-1.2,0.9-3.7,1.2-5.5,0.7l-50.6-13.2c-1.8-0.5-2.3-1.6-1.1-2.4l33.2-24
						c1.2-0.9,3.7-1.2,5.4-0.7l50.6,13.2c1.8,0.5,2.3,1.6,1.2,2.4L1330.4,1489.4z"/>
					<path class="st3" d="M1400.1,1507.6c-1.2,0.9-3.7,1.2-5.5,0.7l-50.6-13.2c-1.8-0.5-2.3-1.6-1.1-2.4l33.2-24
						c1.2-0.9,3.6-1.2,5.5-0.7l50.6,13.2c1.8,0.5,2.3,1.6,1.1,2.4L1400.1,1507.6z"/>
					<path class="st3" d="M842.7,1362.2c-1.2,0.9-3.7,1.2-5.5,0.7l-85.8-22.4c-1.8-0.5-2.3-1.6-1.1-2.4l33.2-24
						c1.2-0.9,3.6-1.2,5.5-0.7l85.8,22.4c1.8,0.5,2.3,1.6,1.2,2.4L842.7,1362.2z"/>
					<path class="st3" d="M1515.5,1492.7c-1.2,0.9-3.7,1.2-5.5,0.7l-85.9-22.4c-1.8-0.5-2.3-1.6-1.1-2.4l33.2-24
						c1.2-0.9,3.7-1.2,5.5-0.7l85.9,22.4c1.8,0.5,2.3,1.6,1.1,2.4L1515.5,1492.7z"/>
					<path class="st3" d="M813.5,1399.6c-1.2,0.9-3.6,1.2-5.5,0.7l-102.3-26.7c-1.8-0.5-2.4-1.6-1.2-2.4l33.2-24.1
						c1.2-0.9,3.6-1.2,5.5-0.7l102.3,26.7c1.8,0.5,2.3,1.6,1.2,2.4L813.5,1399.6z"/>
					<path class="st3" d="M733.7,1423.8c-1.2,0.9-3.7,1.2-5.5,0.7l-68.2-17.8c-1.8-0.5-2.3-1.6-1.1-2.4l33.2-24
						c1.2-0.9,3.7-1.2,5.5-0.7l68.2,17.8c1.8,0.5,2.3,1.6,1.1,2.4L733.7,1423.8z"/>
					<path class="st3" d="M922.9,1338c-1.2,0.9-3.6,1.2-5.5,0.7l-50.6-13.2c-1.8-0.5-2.3-1.6-1.1-2.4l33.2-24
						c1.2-0.9,3.7-1.2,5.5-0.7l50.6,13.2c1.8,0.5,2.3,1.6,1.1,2.4L922.9,1338z"/>
					<path class="st3" d="M992.3,1356.1c-1.2,0.9-3.7,1.2-5.5,0.7l-50.6-13.2c-1.8-0.5-2.3-1.6-1.1-2.4l33.2-24
						c1.2-0.9,3.7-1.2,5.5-0.7l50.6,13.2c1.8,0.5,2.3,1.6,1.1,2.4L992.3,1356.1z"/>
					<path class="st3" d="M1062,1374.3c-1.2,0.9-3.6,1.2-5.5,0.7l-50.6-13.2c-1.8-0.5-2.3-1.6-1.1-2.4l33.2-24
						c1.2-0.9,3.7-1.2,5.5-0.7l50.6,13.2c1.8,0.5,2.3,1.6,1.1,2.4L1062,1374.3z"/>
					<path class="st3" d="M1131.7,1392.5c-1.2,0.9-3.7,1.2-5.5,0.7l-50.6-13.2c-1.8-0.5-2.3-1.6-1.1-2.4l33.2-24
						c1.2-0.9,3.7-1.2,5.5-0.7l50.6,13.2c1.8,0.5,2.3,1.6,1.1,2.4L1131.7,1392.5z"/>
					<path class="st3" d="M1201.4,1410.7c-1.2,0.9-3.6,1.2-5.5,0.7l-50.6-13.2c-1.8-0.5-2.3-1.6-1.1-2.4l33.2-24
						c1.2-0.9,3.7-1.2,5.5-0.7l50.6,13.2c1.8,0.5,2.3,1.6,1.1,2.4L1201.4,1410.7z"/>
					<path class="st3" d="M1271.1,1428.9c-1.2,0.9-3.7,1.2-5.5,0.7l-50.7-13.2c-1.8-0.5-2.3-1.6-1.1-2.4l33.2-24
						c1.2-0.9,3.7-1.2,5.5-0.7l50.7,13.2c1.8,0.5,2.3,1.6,1.1,2.4L1271.1,1428.9z"/>
					<path class="st3" d="M1340.9,1447.1c-1.2,0.9-3.7,1.2-5.5,0.7l-50.6-13.2c-1.8-0.5-2.3-1.6-1.1-2.4l33.2-24
						c1.2-0.9,3.7-1.2,5.5-0.7l50.6,13.2c1.8,0.5,2.3,1.6,1.1,2.4L1340.9,1447.1z"/>
					<path class="st3" d="M1410.6,1465.3c-1.2,0.9-3.6,1.2-5.5,0.7l-50.7-13.2c-1.8-0.5-2.3-1.6-1.1-2.4l33.2-24
						c1.2-0.9,3.7-1.2,5.5-0.7l50.7,13.2c1.8,0.5,2.3,1.6,1.1,2.4L1410.6,1465.3z"/>
					<path class="st3" d="M1451.2,1486.1c-0.8-0.2-1.9-0.3-3-0.1c-1.1,0.1-1.9,0.4-2.5,0.9l-33.2,24c-0.6,0.4-0.8,0.9-0.6,1.4
						s0.8,0.9,1.7,1.1l13.2,3.5l-43.5,31.5c-0.6,0.4-0.8,0.9-0.6,1.4s0.8,0.8,1.7,1.1l34.1,8.9c0.9,0.2,1.9,0.3,3,0.2
						c1.1-0.1,1.9-0.4,2.5-0.9l78.9-57.2c0.6-0.4,0.8-0.9,0.5-1.4c-0.2-0.5-0.8-0.8-1.7-1.1L1451.2,1486.1z"/>
				</g>
			</g>
		</g>
		<path class="st5" d="M1623.1,904.2l-779.3-196c-10.6-2.7-19.4,2-19.6,10.5l-1.8,53.8c-0.1,0.6-0.2,1.3-0.3,2l-8.6,385.7
			c-0.3,8.5,12.7,24.7,23.3,27.3l771.6,203c10.6,2.7,19.4-2,19.6-10.5l0.9-70.4c0.1-0.6,0.2-1.3,0.3-2l12.5-383.4
			C1642,915.8,1633.6,906.8,1623.1,904.2z"/>
		<g>
			<path class="st6" d="M1352.1,1718.4c-0.8,0-1.7-0.4-2.2-1.2c-1-1.3-0.7-3.1,0.5-4.1l34.5-26.6c1.2-1,3-0.7,4,0.6
				c1,1.3,0.7,3.1-0.5,4.1l-34.5,26.6C1353.3,1718.3,1352.7,1718.5,1352.1,1718.4z"/>
		</g>
		<g>
			<path class="st6" d="M1309,1752.4c-0.8,0-1.7-0.4-2.2-1.2c-1-1.3-0.7-3.1,0.5-4.1l34.5-26.6c1.2-1,3-0.7,4,0.6
				c1,1.3,0.7,3.1-0.5,4.1l-34.5,26.6C1310.2,1752.2,1309.6,1752.4,1309,1752.4z"/>
		</g>
	</g>
	
		<ellipse transform="matrix(0.8717 -0.49 0.49 0.8717 -313.2337 622.4346)" class="st7" cx="1032.2" cy="909.5" rx="79.9" ry="101.8"/>
	<g>
		<path class="st8" d="M694.9,1001.4l-56.9,56.1l-30.1-24.4l-9.3,3.9c0,0,19.5,78.4,37.7,79.5c18.3,1.1,52.2-50.2,52.2-50.2
			L694.9,1001.4z"/>
		<path class="st7" d="M594.6,1018.3L594.6,1018.3c-3.9,1.9-5.8,5.9-4.4,8.9l6.3,7.4c1.9,2.3,2.7,3,6.5,1.1l0,0
			c3.9-1.9,5.7,0.7,4.2-5.7l-4.3-8.4c-0.6-1.1-1.3-2.1-2.2-2.9C599.2,1017.2,597.7,1016.8,594.6,1018.3z"/>
		<path class="st9" d="M836.8,1453.9c-27.3-17.3-76.6-22.7-110-12c-5.7,1.8-10.5,4-14.6,6.4c-19.7-8-47.4-9.7-67.2-3.4
			c-23.5,7.5-26.9,23.4-7.7,35.6c18.5,11.7,51.1,15.6,74.4,9.2c1.3,0.9,2.6,1.9,4,2.8c27.3,17.3,76.6,22.7,110,12
			C859.2,1493.9,864.2,1471.2,836.8,1453.9z"/>
		<path class="st10" d="M652.3,1461.4l21.1-19.9c4.1-3.8,9.5-5.9,15-5.6c2,0.1,4,0.4,5.8,0.8c2.5,0.6,3.6,2.2,3.6,4.6l0.2,4.4
			c0.2,7.3,0.9,9.8-4.1,11.8l-29.8,12.1C658,1473.4,641.6,1470.1,652.3,1461.4z"/>
		<path class="st7" d="M697.1,1437.9c-1,4.8-5.4,8.7-10.2,8.1c-2.4-0.3-4-1.7-4.2-6.2c1.8-50.2-2.2-92.2-0.5-139.2
			c1.9-52.7,3-37.2,5.9-118l48.5-8.9c-11.6,58.1-18.1,131.5-18.1,131.5C730,1359.4,709.7,1375.1,697.1,1437.9z"/>
		<path class="st11" d="M747.4,1157.8l-24.3,115.1c-2.3,13.2-0.4,28.8,1.7,42c3.1,19.6,4.7,58.7-13.6,115.1
			c-7.8,5.8-25.2,6.3-33.4,0.7c0,0-3.9-126.6-3.1-150.9c0.8-24.4,10.1-155.5,10.1-155.5L747.4,1157.8z"/>
		<path class="st10" d="M777.5,1459.8l0.1,12.1c0.1,1.7,1.7,10.5,2.4,12c2.1,4.4,5.7,6.2,9.2,6.4c4.6,0.3,14.1-7.3,10.9-16.8
			c-2.7-8.3-8.3-21.5-8.3-21.5c-4.9,2.1-7.9,3.3-11,3.8C778.9,1456.1,777.5,1457.8,777.5,1459.8z"/>
		<path class="st7" d="M793.7,1456.5c0.8,6.3-9.4,8.8-13.5,2.5c-3.9-50-11.9-95.3-15.6-142c-4.1-52.4-8.9-49.4-15.1-129.8l52.8,3.5
			c-4.9,58.6-3.1,131.9-3.1,131.9C817.6,1377.6,798.2,1386.8,793.7,1456.5z"/>
		<path class="st11" d="M806.3,1142c0,0-8.4,105.5-5.9,128.8c2,18.1,7.5,47.8,9.9,60.2c0.8,4,1.2,8.1,1.1,12.2
			c-0.1,18,2.9,67-4.5,97.2c-5.9,8.2-29.5,6.7-38.7,1.6l-12.9-121.6c-0.3-1.4-14-102-14-102l-30.2-9.4l19.8-70.5
			C730.9,1138.6,809.8,1148.7,806.3,1142z"/>
		<path class="st8" d="M716.4,991.6c6.7-0.7,12.8-2.2,14.6-3.6c10.1-7.7,22.1-4.3,23.4-3.6l30,11.9c32.1,11.3,33,35.3,34.1,53.3
			c0,0-10.2,21.5-10.7,38.6c-0.5,14.8,8.2,21.3,10.7,25.8c1.9,3.4,6.2,76.3-13,80.2c-67.6,13.7-129.7-6.9-128.7-31.5
			c0.6-15.5,3.5-83.5,3.3-95.7s2.2-69.6,26.8-73.6L716.4,991.6z"/>
		<path class="st12" d="M697.6,1045.7c-0.1,0-0.1,0-0.2,0c-0.5-0.1-0.9-0.6-0.8-1.2l2-10c0.1-0.5,0.6-0.9,1.2-0.8
			c0.5,0.1,0.9,0.6,0.8,1.2l-2,10C698.5,1045.3,698.1,1045.7,697.6,1045.7z"/>
		<path class="st7" d="M719.6,1137.1L719.6,1137.1c0.6,4.2,3.9,7.1,7.2,6.4l11.9-5.5c3.3-0.6,0.9-0.5,0.3-4.7l0,0
			c-0.6-4.2,2.4-5.3-4.1-5.5l-9.4,2c-1.2,0.3-2.4,0.7-3.5,1.3C720,1132.4,719.1,1133.8,719.6,1137.1z"/>
		<path class="st8" d="M810.6,1016.2c0,0,29.2,64.8,19.1,103.7c-10.1,38.9-91.5,21.3-91.5,21.3l-6.6-17.8c0,0,53.7-5.3,58.5-13.6
			c6.6-11.2-9.9-79.9-14.4-81.3L810.6,1016.2z"/>
		<path class="st12" d="M752.2,1122.3c-0.4,0-0.9-0.3-1-0.8s0.2-1.1,0.7-1.2c20-4.6,41.9-11.4,42.4-14.2c0.8-4.1-3.6-35.2-5.4-46.8
			c-0.1-0.5,0.3-1,0.8-1.1s1,0.3,1.1,0.8c0.3,1.7,6.4,42.1,5.3,47.4C795.1,1111.8,762.2,1119.9,752.2,1122.3
			C752.4,1122.3,752.3,1122.3,752.2,1122.3z"/>
		<polygon class="st13" points="725.1,990.1 734.9,1027.6 772.9,991.8 747.9,981.8 		"/>
		<path class="st7" d="M743.2,999.5c-2.6,0.1-5.6-0.6-6.3-4.1l-4.3-19.7c-0.8-3.5,1.5-7.2,5-8.3l1-0.3c3.5-1.1,13.4-1.1,14.2,2.4
			l2.9,20.9C754.5,998.4,743.2,999.5,743.2,999.5z"/>
		<path class="st14" d="M734.9,986.2c0,0,8.6-1.1,13.8-10.2c0,0-5,13.3-12.8,15.5L734.9,986.2z"/>
		<path class="st7" d="M751.1,943.8c-3.4-5.2-8.3-5.9-12.6-2.6c-4.5-1.7-9.7,1.3-13.3,8.5c-5.1,10-7.1,25.6-2.2,33.1
			c2.2,3.3,7,5.1,10.1,5c2.8-0.1,5.3-2.1,8-3.2c9.7-4.2,9.9-2.7,13.3-9.4C759.4,965.2,756.1,951.4,751.1,943.8z"/>
		<path class="st15" d="M745,947.6c4.1,9.2,8.1,25.9,8.8,28.8c0,0,14.7-11.2,13.5-19.5c-4-27.7-19.8-12.1-19.8-12.1L745,947.6z"/>
		<path class="st15" d="M750.2,934.3c5.9,1.1,9.6,5.4,11.7,12.9c0.3,1,2.5,5.3,2.6,6.1l-3.8-0.9c0.9,6.6-2.2-3.1-8.8-1.6
			c-10.4-3.3-18.4,11.9-30.3,6.8c-1.6-0.7-2.8-2.1-3.1-3.9c-0.4-2.3-0.1-5.1,2.2-7.1c7-6,10.5-9.2,18.3-11.7l1.9-0.4
			C744.5,933.9,747.6,933.8,750.2,934.3"/>
		<g>
			<g>
				<path class="st13" d="M729.9,980.5L729.9,980.5c-2.3-0.4-3.9-3.1-3.6-6l8.3,1.4C734.3,978.9,732.2,980.9,729.9,980.5z"/>
			</g>
		</g>
		<path class="st7" d="M757.8,969.8c0.4,3.1-1.8,6-4.9,6.4s-5.9-1.7-6.3-4.8c-0.4-3.1,1.8-6,4.9-6.4
			C754.7,964.5,757.5,966.7,757.8,969.8z"/>
		<path class="st12" d="M761.9,1150.7c-3.4,0-5.4-0.1-5.5-0.1c-0.5,0-1-0.5-0.9-1c0-0.5,0.5-1,1-0.9c0.4,0,41.9,2.2,62.3-14.6
			c0.4-0.3,1-0.3,1.4,0.1c0.3,0.4,0.3,1-0.1,1.4c-11,9.1-27.8,12.7-39.9,14.1C772.9,1150.5,766.3,1150.7,761.9,1150.7z"/>
	</g>
	<path class="st13" d="M1023.4,941.8c-0.1,0-0.1,0-0.2,0c-1.2-0.1-2.3-0.7-3-1.7l-13.5-20.7c-1.2-1.8-0.7-4.1,1.1-5.3
		s4.1-0.7,5.3,1.1l10.7,16.3l34.2-41.8c1.3-1.6,3.7-1.9,5.4-0.5c1.6,1.3,1.9,3.7,0.5,5.4l-37.5,45.9
		C1025.6,941.2,1024.5,941.8,1023.4,941.8z"/>
	<path class="st13" d="M1084.1,1085.4l-119.6-31c-7.4-1.9-13.3-9.7-13.3-17.4l0,0c0-7.7,6-12.4,13.3-10.5l119.6,31
		c7.4,1.9,13.3,9.7,13.3,17.4l0,0C1097.4,1082.6,1091.5,1087.3,1084.1,1085.4z"/>
	<path class="st13" d="M1084.1,1170.1l-119.6-31c-7.4-1.9-13.3-9.7-13.3-17.4l0,0c0-7.7,6-12.4,13.3-10.5l119.6,31
		c7.4,1.9,13.3,9.7,13.3,17.4l0,0C1097.4,1167.3,1091.5,1172,1084.1,1170.1z"/>
	<path class="st13" d="M1280.7,1136.1l-119.6-31c-7.4-1.9-13.3-9.7-13.3-17.4l0,0c0-7.7,6-12.4,13.3-10.5l119.6,31
		c7.4,1.9,13.3,9.7,13.3,17.4l0,0C1294,1133.3,1288,1138,1280.7,1136.1z"/>
	<path class="st13" d="M1280.7,1220.8l-119.6-31c-7.4-1.9-13.3-9.7-13.3-17.4l0,0c0-7.7,6-12.4,13.3-10.5l119.6,31
		c7.4,1.9,13.3,9.7,13.3,17.4l0,0C1294,1218,1288,1222.7,1280.7,1220.8z"/>
	<path class="st13" d="M1479.9,1186.9l-119.6-31c-7.4-1.9-13.3-9.7-13.3-17.4l0,0c0-7.7,6-12.4,13.3-10.5l119.6,31
		c7.4,1.9,13.3,9.7,13.3,17.4l0,0C1493.2,1184.1,1487.3,1188.8,1479.9,1186.9z"/>
	<path class="st13" d="M1479.9,1271.5l-119.6-31c-7.4-1.9-13.3-9.7-13.3-17.4l0,0c0-7.7,6-12.4,13.3-10.5l119.6,31
		c7.4,1.9,13.3,9.7,13.3,17.4l0,0C1493.2,1268.7,1487.3,1273.4,1479.9,1271.5z"/>
	<path class="st12" d="M694.9,577.5c-8.6,0-15.7-6.8-15.9-15.4c-0.3-8.8,6.6-16.2,15.4-16.5c8.8-0.3,16.2,6.6,16.5,15.4l0,0
		c0.3,8.8-6.6,16.2-15.4,16.5C695.2,577.5,695.1,577.5,694.9,577.5z M694.9,548.3c-0.1,0-0.3,0-0.5,0c-7.3,0.2-13.1,6.4-12.8,13.7
		c0.2,7.3,6.4,13.1,13.7,12.8c7.3-0.2,13.1-6.4,12.8-13.7l0,0C707.9,554,702,548.3,694.9,548.3z"/>
	<path class="st12" d="M1477.1,488.5c-8.6,0-15.7-6.8-15.9-15.4c-0.1-4.3,1.4-8.3,4.3-11.4s6.9-4.9,11.1-5.1
		c4.3-0.1,8.3,1.4,11.4,4.3c3.1,2.9,4.9,6.9,5,11.1c0.3,8.8-6.6,16.2-15.4,16.5C1477.5,488.5,1477.3,488.5,1477.1,488.5z
		 M1477.2,459.3c-0.2,0-0.3,0-0.5,0c-3.5,0.1-6.8,1.6-9.3,4.2c-2.4,2.6-3.7,6-3.6,9.5c0.2,7.3,6.4,13.1,13.7,12.8
		c7.3-0.2,13.1-6.4,12.8-13.7l0,0c-0.1-3.5-1.6-6.8-4.2-9.3C1483.7,460.5,1480.5,459.3,1477.2,459.3z"/>
	<path class="st12" d="M1849,1295.9c-8.6,0-15.7-6.8-15.9-15.4c-0.3-8.8,6.6-16.2,15.4-16.5c4.3-0.2,8.3,1.4,11.4,4.3
		s4.9,6.9,5.1,11.1c0.1,4.3-1.4,8.3-4.3,11.4c-2.9,3.1-6.9,4.9-11.1,5C1849.4,1295.9,1849.2,1295.9,1849,1295.9z M1849,1266.7
		c-0.2,0-0.3,0-0.5,0c-7.3,0.2-13.1,6.4-12.8,13.7c0.2,7.3,6.4,13.1,13.7,12.8c3.5-0.1,6.8-1.6,9.3-4.2c2.4-2.6,3.7-6,3.6-9.5l0,0
		c-0.1-3.5-1.6-6.8-4.2-9.3C1855.6,1267.9,1852.4,1266.7,1849,1266.7z"/>
</g>
</svg>
