<svg xmlns="http://www.w3.org/2000/svg" xmlns:xlink="http://www.w3.org/1999/xlink" width="172.474" height="47.305" viewBox="0 0 172.474 47.305">
  <defs>
    <clipPath id="clip-path">
      <rect id="Rectangle_27" data-name="Rectangle 27" width="172.474" height="47.305" transform="translate(0 0)" fill="none"/>
    </clipPath>
  </defs>
  <g id="Group_35" data-name="Group 35" transform="translate(0 -0.001)">
    <g id="Group_35-2" data-name="Group 35" transform="translate(0 0.001)" clip-path="url(#clip-path)">
      <path id="Path_457" data-name="Path 457" d="M16.772,37.56c0-1.529-1.274-2.4-6.372-3.976C3.365,31.391,0,27.771,0,22.011c0-6.321,5-11.063,12.9-11.063,6.321,0,10.553,2.651,12.592,5.914a3.464,3.464,0,0,1,.561,1.988A2.807,2.807,0,0,1,24.317,21.3a19.793,19.793,0,0,1-6.576,1.631C16.976,20.277,15.294,18.9,13.2,18.9c-1.988,0-3.314,1.173-3.314,2.8,0,1.733,1.478,2.906,5.965,4.282,7.494,2.294,10.808,5.557,10.808,11.114,0,6.168-4.435,10.757-13.255,10.757-7.086,0-12.184-3.11-12.184-5.557a8.262,8.262,0,0,1,1.529-4.384,22.729,22.729,0,0,0,9.38,1.988c3.263,0,4.639-.765,4.639-2.345" transform="translate(0 -9.088)" fill="#ffde17"/>
      <path id="Path_458" data-name="Path 458" d="M180.885,45.908c-.714,1.376-1.478,1.835-3.823,1.835h-7.188L158.1,14.454c2.345-1.631,5.506-2.906,7.392-2.906a2.4,2.4,0,0,1,2.7,1.937l7.188,23.094a121.619,121.619,0,0,0,6.678-24.521h7.953c1.682,0,2.243.765,2.039,1.835a141.482,141.482,0,0,1-11.165,32.015" transform="translate(-131.231 -9.586)" fill="#ffde17"/>
      <path id="Path_459" data-name="Path 459" d="M362.275,48.492c-1.427,0-2.039-.459-2.345-1.427L358.6,42.833H347.593l-1.682,5.659h-8.259c-1.223,0-1.886-.714-1.529-1.784L348,13.825a17.383,17.383,0,0,1,6.678-1.376c2.4,0,3.263.612,3.976,2.651l12.082,33.392Zm-12.439-13.1h6.525L353.1,24.735Z" transform="translate(-278.925 -10.334)" fill="#231f20"/>
      <path id="Path_460" data-name="Path 460" d="M554.528,50.234c-1.325,0-1.937-.561-1.937-1.58V14.548h13c9.278,0,14.988,5.047,14.988,13.561,0,8.106-5.965,13.1-13.968,13.1a17.084,17.084,0,0,1-4.13-.561v9.584ZM562.481,33a14.052,14.052,0,0,0,2.6.255c3.365,0,5.608-1.784,5.608-5.353,0-3.62-2.09-5.4-5.455-5.4h-2.753Z" transform="translate(-458.689 -12.076)" fill="#231f20"/>
      <path id="Path_461" data-name="Path 461" d="M753.286,47.857c-10.094,0-18-6.831-18-18.455s7.9-18.455,18-18.455,18,6.831,18,18.455-7.9,18.455-18,18.455m8.106-18.047c0-6.729-3.772-10.91-8.361-10.91-4.384,0-7.851,3.161-7.851,10.094,0,6.729,3.772,10.91,8.361,10.91,4.384,0,7.851-3.161,7.851-10.094" transform="translate(-610.342 -9.088)" fill="#231f20"/>
      <path id="Path_462" data-name="Path 462" d="M856,9.127c-1.948,5.02-1.947,13.234,0,18.254l3.542,9.127,3.541-9.127c1.948-5.02,1.948-13.234,0-18.254L859.539,0Z" transform="translate(-709.325 0)" fill="#5b8137" fill-rule="evenodd"/>
      <path id="Path_463" data-name="Path 463" d="M899.052,92.029a24.881,24.881,0,0,0-10.98,10.98l-3.55,8a23.484,23.484,0,0,0,3.439-1.343c1.536-.782,4.371-2.4,4.371-2.4a24.876,24.876,0,0,0,10.98-10.98l3.36-7.621Z" transform="translate(-734.214 -73.602)" fill="#5b8137" fill-rule="evenodd"/>
      <path id="Path_464" data-name="Path 464" d="M902.9,204.244a17.486,17.486,0,0,0-10.913,0l-5.456,2.117,5.456,2.117a17.481,17.481,0,0,0,10.913,0l5.456-2.117Z" transform="translate(-735.88 -168.812)" fill="#5b8137" fill-rule="evenodd"/>
      <path id="Path_465" data-name="Path 465" d="M893.9,229.584a10.566,10.566,0,0,0-4.663-4.663L886,223.494l1.427,3.236a10.563,10.563,0,0,0,4.663,4.663l3.236,1.427Z" transform="translate(-735.44 -185.516)" fill="#5b8137" fill-rule="evenodd"/>
      <path id="Path_466" data-name="Path 466" d="M760.7,92.029a24.882,24.882,0,0,1,10.98,10.98l3.36,7.62-7.62-3.36a24.877,24.877,0,0,1-10.98-10.98l-3.36-7.621Z" transform="translate(-625.105 -73.602)" fill="#5b8137" fill-rule="evenodd"/>
      <path id="Path_467" data-name="Path 467" d="M758.437,204.244a17.485,17.485,0,0,1,10.913,0l5.456,2.117-5.456,2.117a17.48,17.48,0,0,1-10.913,0l-5.457-2.117Z" transform="translate(-625.025 -168.812)" fill="#5b8137" fill-rule="evenodd"/>
      <path id="Path_468" data-name="Path 468" d="M828.491,229.584a10.566,10.566,0,0,1,4.663-4.663l3.236-1.427-1.427,3.236a10.564,10.564,0,0,1-4.663,4.663l-3.236,1.427Z" transform="translate(-686.52 -185.516)" fill="#5b8137" fill-rule="evenodd"/>
    </g>
  </g>
</svg>
