<?xml version="1.0" encoding="UTF-8"?>
<svg id="Layer_1" xmlns="http://www.w3.org/2000/svg" xmlns:xlink="http://www.w3.org/1999/xlink" version="1.1" viewBox="0 0 817 255">
  <!-- Generator: Adobe Illustrator 29.3.1, SVG Export Plug-In . SVG Version: 2.1.0 Build 151)  -->
  <defs>
    <style>
      .st0 {
        fill: #628630;
      }

      .st1 {
        fill: #626262;
      }
    </style>
  </defs>
  <path class="st0" d="M809.5,164.9c0-.3-2.2.3-4.3.8-1,.2-4.6,1.1-5.3,1-.6-.1-4.1-.3-5.4.8.2-.8.7-1,.5-1.2-1.1.1-3.4,0-4.7,1.2,0-.9.5-1.3.4-1.5,0-.1-3.9.4-5,2.2,0-1.3.5-1.7.2-1.9s-5.1.5-6.3,3c0-1.7.2-2.6.2-2.6,0,0-6.1.6-7.4,3.6-.2-1.6.2-3.1.2-3.1,0,0-3.2.9-5.8,2.2-1.1.6-2.4,1.7-2.6,2.7-.3-.7-.3-1.6-.3-2.2s0-1.2-.3-1.1-7.4,3.8-8.8,5.8c0-1.6,0-3.4-.4-3.3-.3.1-7.9,3.8-8.9,6.2-.3.1-.6-3-.7-3.1s-4,1.1-8,5.7c-.5-1.3,0-3.2-.7-2.9-4.7,2.2-7.1,5.6-7.7,6.7,0,0-.4-2.7-.3-2.7-3.9,1.9-5.7,3.5-7.6,6.3-.3-.8-.7-2.6-.7-2.6,0,0-5.4,4.9-5.9,6.1-.2.1-.4-.3-.6-1s-.3-1-.3-1c0,0-4.7,3.6-6.5,6.1-.3-.1-.7-1.3-.7-1.9-.6.3-9.7,9.8-21.1,14.8-.2.1-.5,0-.2-.3,10.5-13,26.8-22.6,27.4-23.2-.8-.1-2.2-1.1-2.2-1.5,3.8-1.3,10.1-6.1,10.1-6.1,0,0-.2-.1-1.1-.6-.9-.6-1.2-1-1.1-1.2,1.6-.2,9.8-5.4,9.8-5.4,0,0-2.1-1.2-3-1.8,4.2-1.4,6.9-3.2,10.7-7.4,0,0-3.3-1.3-3.3-1.4,1.5-.3,6.8-2.1,11.2-7.4.6-.7-1.9-.8-3.4-1.9,7.2-3.4,10.1-8,10-8.1,0-.2-3.8-1.7-3.6-2,3.4-.4,10.8-8.8,11-9.1s-2-1-4-1.7c3-1.2,10.3-8.9,10.5-9.2s-.6-.5-1.3-.7-1.8-.6-2.7-1.2c1.3.1,3.3-1.2,4.4-2.4,2.6-2.8,4.9-6.6,4.9-6.6,0,0-2.1,0-4-.9,4.2-.6,7.2-8.2,7.2-8.2,0,0-1.2,0-3.4-.7,3.5-.6,6.1-6.4,6-6.9s-.8,0-2.5-.4c2.6-.9,4.7-5.4,4.5-5.6,0-.2-.8.2-2,0,2-1.2,2.7-4.2,3.2-5.6-.2-.3-.6.2-1.7.2,1.9-1.3,2.8-5.8,3-6.6.2-1,2.6-5.2,3.2-6.4,1.3-2.4,2.8-4.9,2.5-5.2h0c-.4-.2-2.2,2.1-4,4.1-.9,1-4.1,4.7-4.9,5.2-.6.4-4.6,2.8-5.2,5-.4-1,0-1.6-.4-1.6-1.1.9-3.7,2.6-4.1,4.9-.6-1.1-.4-1.9-.7-1.9-.2,0-3.8,3.4-3.7,6.2-1-1.5-.7-2.3-1.2-2.2-.5,0-5.1,4.5-4.4,8-1.5-1.8-1.8-2.9-1.8-2.9,0,0-6.1,5.4-5.2,9.5-1.4-1.6-2.2-3.5-2.2-3.5,0,0-2.8,3.4-4.5,6.8-.7,1.4-1.2,3.7-.7,4.9-.8-.6-1.5-1.5-2-2.1s-.9-1.2-1.1-1c-.2.2-5,9.7-5.1,13-1.3-1.7-2.7-3.5-2.9-3.2s-5.6,10.1-4.8,13.5c-.3.3-2.9-2.7-3.1-2.7s-3.5,4.3-4.2,12.2c-1.5-1.1-2.5-3.4-2.9-2.6-3.4,6-3.3,11.5-3.1,13.1,0,0-2.4-2.6-2.4-2.6-2.7,5-3.4,8.2-3.3,12.6-.9-.6-2.7-2.2-2.7-2.2,0,0-2.1,9.5-1.7,11,0,.2-.6,0-1.5-.6-.8-.6-1-.8-1-.8,0,0-2.3,7.5-2.2,11.6-.4.2-1.8-.9-2.2-1.6-.4.8-3.7,18.6-11.4,32.2,0,.1-.2.1-.2-.1,0-.4,0-.7,0-1.1h0c0-.6,0-1.1.2-1.6h0c0-.6,0-1.1.2-1.6h0c2.4-16,9.5-32.9,9.5-33h0c-.5,0-1.4.2-2.1.2s-.4,0-.5-.1c0,0-.3-.1-.3-.2,4-5.5,5.3-11.8,5.3-11.8,0,0-1.9.3-3.1-.3,3.5-3.8,5.5-11,5.5-11,0,0-2.3.7-3.8.3,4.8-3.5,5-13.5,5-13.5h0c-1.9.9-3.8.8-3.8.8,0-.1.2-.2.2-.3.2-.2.4-.5.6-.8,1.3-1.8,3.3-5.2,4.2-10,.2-.9.3-1.8.4-2.7,0,0-2.3.9-4.3.5.9-1.7,1.7-3.2,2.2-4.7.2-.4.3-.8.4-1.2,0-.4.3-.8.4-1.2.5-1.7.7-3.1.9-4.2,0-1.1,0-1.9,0-2.2v-.2h0c-2.7.8-4.5.5-4.5.5,4.9-4,4.1-15.2,4.1-15.2,0,0-1.8,1.1-4.7,1,5.9-4,3.3-15.1,3.3-15.1,0,0-2.1,1.3-4.5.9,4.7-3.9,2.7-13.9,2.7-13.9,0,0-1.9,1.2-4.2,1.7,1-.9,1.5-2.2,1.7-3.7,0-.3,0-.7,0-1v-3c0-2.4-.6-4.3-.6-4.3,0,0-.3.2-.8.5,0,0-.3,0-.5.2-.4.2-.8.3-1.3.5-.3,0-.5.2-.9.3,3.3-5.4.9-12.1.9-12.1,0,0-.2,0-.3,0s-.2,0-.3.2c0,0-.2,0-.3.2-.3.2-.8.5-1.5.8,1.8-4.6.5-9.1.5-9.1-.3,0-.6.7-1.8,1.3.3-.9.6-4.8-.5-7.5-.6.6-1,.9-1,.7-.4-3.3-1.9-6.1-2.4-9.6-.7-5.3-1.2-9.4-1.3-10-.2-1.3-.5-1.3-.5-1.3h0s-.3,0-.5,1.3c0,.6-.6,4.7-1.3,10-.5,3.5-2,6.4-2.4,9.6,0,0-.5,0-1-.7-1.1,2.8-.7,6.6-.5,7.5-1.2-.6-1.6-1.4-1.8-1.3,0,0-1.3,4.5.5,9.1-.7-.3-1.2-.5-1.5-.8,0,0-.2-.2-.3-.2,0,0-.2-.2-.3-.2,0,0-.2,0-.3,0,0,0-2.4,6.7.9,12.1-.3,0-.6-.2-.9-.3-.5-.2-1-.4-1.3-.5-.2,0-.3-.2-.5-.2-.6-.3-.8-.5-.8-.5,0,0-.5,1.9-.6,4.3v3c0,.3,0,.7,0,1,.3,1.5.8,2.8,1.7,3.7-2.3-.5-4.2-1.7-4.2-1.7,0,0-2,10,2.7,13.9-2.4.4-4.5-.9-4.5-.9,0,0-2.6,11.1,3.3,15.1-2.9,0-4.7-1-4.7-1,0,0-.7,11.2,4.1,15.2,0,0-1.8.2-4.5-.5h0v.2c0,.3,0,1.1,0,2.2,0,1.1.4,2.5.9,4.2,0,.4.2.8.4,1.2,0,.4.3.8.4,1.2.6,1.5,1.3,3,2.2,4.7-1.9.4-4.3-.5-4.3-.5,0,.9.2,1.8.4,2.7.9,4.7,2.9,8.2,4.2,10,.2.3.5.6.6.8,0,.1.2.2.2.3,0,0-1.9,0-3.8-.8h0s.2,10,5,13.5c-1.6.4-3.8-.3-3.8-.3,0,0,1.9,7.2,5.5,11-1.2.5-3.1.3-3.1.3,0,0,1.3,6.3,5.3,11.8,0,.1-.2.1-.3.2,0,0-.3.1-.5.1-.7,0-1.6-.1-2.1-.3h0c0,.2,7,17.1,9.5,33h0c0,.6,0,1.1.2,1.6h0c0,.6,0,1.1.2,1.6h0c0,.5,0,.8,0,1.2s0,.2-.2.1c-7.8-13.6-11.1-31.4-11.4-32.2-.4.7-1.8,1.7-2.2,1.6,0-4-2.2-11.6-2.2-11.6,0,0,0,.2-1,.8-.8.6-1.3.8-1.5.6.4-1.6-1.7-11-1.7-11,0,0-1.8,1.6-2.7,2.2,0-4.4-.6-7.6-3.3-12.6l-2.4,2.6c.2-1.6.3-7.1-3.1-13.1-.5-.8-1.4,1.5-2.9,2.6-.7-7.9-4-12.2-4.2-12.2s-2.9,3-3.1,2.7c.8-3.3-4.5-13.1-4.8-13.5-.2-.3-1.7,1.5-2.9,3.2,0-3.3-4.9-12.8-5.1-13-.2-.2-.6.4-1.1,1s-1.2,1.5-2,2.1c.5-1.2,0-3.5-.7-4.9-1.7-3.4-4.5-6.8-4.5-6.8,0,0-.8,1.9-2.2,3.5.9-4.1-5.2-9.5-5.2-9.5,0,0-.4,1.1-1.8,2.9.6-3.5-3.9-8-4.4-8s-.2.8-1.2,2.2c0-2.8-3.5-6.3-3.7-6.2-.2,0,0,.8-.7,1.9-.4-2.3-3-4-4.1-4.9-.4,0,0,.7-.4,1.6-.6-2.2-4.5-4.7-5.2-5-.9-.5-4-4.2-4.9-5.2-1.9-2-3.6-4.3-4-4.1h0c-.4.3,1.2,2.7,2.5,5.2.6,1.2,3,5.4,3.2,6.4,0,.7,1.1,5.3,3,6.6-1,0-1.5-.5-1.7-.2.5,1.4,1.2,4.4,3.2,5.6-1.2.2-1.9-.2-2,0s1.9,4.8,4.5,5.6c-1.7.4-2.4,0-2.5.4s2.5,6.3,6,6.9c-2.2.8-3.4.7-3.4.7,0,0,3,7.6,7.2,8.2-2,.8-4,.9-4,.9,0,0,2.2,3.8,4.9,6.6,1.1,1.2,3,2.4,4.4,2.4-.8.6-2,.9-2.7,1.2s-1.5.5-1.3.7c0,.2,3.4,3.8,6.5,6.5h12.5c6.3,0,12.2,1.6,17.5,4.7,5.3,3.1,9.6,7.4,12.6,12.7,3.1,5.4,4.6,11.2,4.6,17.4v25c5,3.3,16.8,11.4,25.1,21.7.3.3,0,.4-.2.3-11.4-5-20.5-14.5-21.1-14.8,0,.6-.3,1.9-.7,1.9-.7-1.1-2-2.4-3.3-3.5,0,5.4-1.3,10.4-3.5,14.9,1.1-.1,2.1-.3,3-.5.2.3-.3,1.5-.7,1.9.6.1,13.7-1.7,26.1,1.8,0,0,.7.2.2.4-.4.2-.9.4-.9.4-4.2,1.4-19.3,1.2-19.3,1.2,0,0,1.4,1.1,1,1.1-7.4.3-10.7,2.1-10.7,2.1l1.1,1.1s-2.7.1-3.9.4c-2.3.5-4.4,1.8-4.4,1.8,0,0,.9.6,1.3.9-1.1.3-4.2.5-5.7,1.7,0,.1,1.3.8,1,.9-2.7.8-5.8,2.6-5.9,2.6,0,.2.9,1,.9,1-.7.3-2,.6-5.5,3.1,0,.1.6.4.5.5-2.7,1.6-8.9,4.6-10.2,5.5-.3.2-.5.5-.4.6,0,.2.3.2.8.2,1.7-.2,8.2-2.2,11.3-2.8,0,0-.2.7,0,.7,3.4-.1,5.3-.9,6.1-1.4,0,0,0,1.2.2,1.3,0,0,4.9-1,6.1-2,.2-.2-.3,1.4,0,1.3,1.9-.1,4.2-1.3,5.2-2.5,0,.5-.2,1.5-.2,1.5,0,0,2.1-.2,4.6-1.4s2.9-2.6,2.9-2.6v1.5c0,0,5.3-1.1,9.4-5.8v1.6c0,0,11.1-10.3,15.1-12.1l1.1-.5c.3-.1.3.1.3.4,0,6.2-.6,24.4-1.4,28.9,0,0,0,.3.7.6.4.2,1.2.4,2,.4s1.5-.2,2-.4c.6-.3.7-.6.7-.6-.7-4.5-1.4-22.7-1.4-28.9s0-.5.3-.4l1.1.5c4.1,1.8,15,12.1,15,12.1v-1.6c4.1,4.7,9.4,5.8,9.4,5.8v-1.5c0,0,.5,1.3,3,2.6,2.5,1.2,4.6,1.4,4.6,1.4,0,0-.2-1-.2-1.5,1.1,1.2,3.3,2.4,5.2,2.5,0,0-.4-1.5,0-1.3,1.3,1,6.1,2,6.1,2,0-.1,0-1.4.2-1.3.8.5,2.7,1.3,6.1,1.4,0,0-.2-.7,0-.7,3.1.6,9.7,2.6,11.3,2.8.4,0,.7,0,.8-.2s0-.4-.4-.6c-1.4-1-7.5-3.9-10.2-5.5,0-.1.6-.4.5-.5-3.6-2.5-4.8-2.8-5.5-3.1,0,0,.9-.8.9-1s-3.2-1.9-5.9-2.6c-.3-.1,1.1-.8,1-.9-1.5-1.2-4.6-1.4-5.7-1.7.4-.3,1.3-.9,1.3-.9,0,0-2.1-1.3-4.4-1.8-1.3-.3-3.9-.4-3.9-.4l1.1-1.1s-3.4-1.8-10.7-2.1c-.3,0,1-1.1,1-1.1,0,0-15.1.3-19.3-1.2,0,0-.5-.1-.9-.4-.4-.2.2-.4.2-.4,12.4-3.6,25.5-1.7,26.1-1.8-.4-.4-.9-1.7-.7-1.9,2.9.9,8.9.7,8.9.7,0,0,0-.1-.4-.9-.3-.7-.3-1.1,0-1.2,1.1.6,8.4,1,8.4,1,0,0-.8-1.6-1.1-2.4,3.2,1,5.7,1.1,9.9.1l-1.4-2.3c1.1.5,5.1,1.7,10.2.4.7-.2-.8-1.3-1.3-2.7,5.9,1.1,9.7-.5,9.8-.6,0-.1-1.6-2.7-1.4-2.8,2.3,1.3,10.5-.7,10.8-.8s-.8-1.5-1.8-2.8c2.4.6,10.3-1,10.5-1.1s-.2-.6-.5-1c-.3-.5-.9-1.2-1.1-1.9.8.6,2.5.7,3.7.5,2.9-.6,5.9-1.9,5.9-1.9,0,0-1.2-1-2.1-2.3,2.8,1.5,8-1.9,8-1.9,0,0-.7-.5-1.8-1.9,2.5,1.2,6.6-1.3,6.8-1.6,0-.4-.5-.3-1.4-1.4,2,.6,5.3-1.3,5.3-1.5s-.6-.2-1.3-.9c1.8.1,3.5-1.4,4.4-2,0-.3-.5-.1-1.1-.6,1.7,0,4.3-2.4,4.7-2.7.5-.5,3.9-2.1,4.8-2.5.4-1,2.4-1.8,2.3-2.1h0Z"/>
  <g>
    <path class="st0" d="M87.9,154.1v7h-25.4c-1.9,0-3.5-.7-4.9-2s-2.1-3-2.1-5v-9.7c0-2.7-.9-4.9-2.8-6.7-1.9-1.8-4.2-2.7-6.8-2.6-2.5.1-4.6,1.1-6.3,3s-2.6,4.2-2.6,6.8v9.1c0,1.4,1.3,3,3.8,4.8s5.7,3.6,9.5,5.3,7.9,3.8,12.3,6.2c4.4,2.4,8.5,4.9,12.2,7.4s6.9,5.6,9.4,9.1,3.8,7.3,3.8,11.2c0,6.4-2.3,12-6.8,16.6s-10.1,6.9-16.7,6.9H28c-6.4,0-12-2.3-16.6-6.9-4.6-4.6-6.9-10.1-6.9-16.6v-7.2h25.4c1.9,0,3.5.7,4.9,2.1,1.4,1.4,2.1,3.1,2.1,5.1v9.7c0,2.7,1,4.9,2.9,6.7,2,1.8,4.3,2.7,6.9,2.6,2.4-.1,4.5-1.1,6.2-3s2.6-4.2,2.6-6.8v-9.2c0-1.5-1.6-3.3-4.8-5.3s-7.1-4.1-11.8-6.2c-4.6-2.1-9.4-4.6-14.4-7.7-5-3-9.3-6.2-12.8-9.6-3.5-3.3-5.8-7.3-6.9-11.9-1.1-4.6,0-9.6,3.3-14.9,2.1-3.8,5.1-6.7,8.9-8.8s7.8-3.1,12.1-3.1h35.3c6.4,0,12,2.3,16.6,6.9,4.6,4.7,6.9,10.2,6.9,16.7Z"/>
    <path class="st0" d="M173.6,130.6l-.2.6h.2l-25.4,90.4h-32.4l-25.6-91h12.9c5.8,0,11,1.7,15.6,5.2s7.7,8.1,9.2,13.7l17.8,63.7,3.8-13.5-8.3-27.5v-19.9c0-3.9,1-7.5,2.9-10.9,2-3.3,4.6-6,8-8,3.3-2,7-2.9,10.9-2.9h10.6Z"/>
    <path class="st1" d="M226.3,131.3c9.4,1.5,17.1,5.1,23.2,10.6,6.1,5.6,9.2,11.9,9.2,19.1v60.5h-51c-9,0-16.6-2.4-22.9-7.2s-9.5-10.6-9.5-17.4,3.2-12.6,9.5-17.4c6.3-4.8,14-7.2,22.9-7.2h18.6v-11.2l-.2-4.4c-.4-6.2-1.4-11.3-3.1-15.4-1.7-4.1-3.7-6.2-6-6.2s-4.3,2.1-6,6.2c-1.7,4.1-2.7,9.3-3.1,15.4l-.2,4.4h-32.4c0-7.2,3.1-13.6,9.2-19.1,6.1-5.6,13.9-9.1,23.2-10.6,3.2-.5,6.3-.8,9.3-.8s6.1.2,9.3.7ZM226.3,207.7v-21.6c0-2.5-.9-4.7-2.7-6.5-1.8-1.8-4-2.7-6.5-2.7s-4.8.9-6.6,2.7c-1.8,1.8-2.7,4-2.7,6.5v21.6c0,2.7.9,4.9,2.7,6.6,1.8,1.8,4,2.7,6.6,2.7s4.8-.9,6.5-2.7c1.8-1.7,2.7-3.9,2.7-6.6Z"/>
    <path class="st1" d="M327.1,130.6c6.6,0,12.2,2.3,16.9,7,4.7,4.7,7,10.4,7,17.1v42.8c0,6.7-2.3,12.4-7,17.1-4.7,4.7-10.3,7-16.9,7h-27.1v27.1h-32.4v-118.1h59.5ZM318.6,207.7v-63.3c0-2.7-.9-4.9-2.7-6.6-1.8-1.8-4-2.7-6.5-2.7s-4.7.9-6.5,2.7-2.7,4-2.7,6.6v63.3c0,2.7.9,4.9,2.7,6.6,1.8,1.8,4,2.7,6.5,2.7s4.7-.9,6.5-2.7c1.8-1.7,2.7-3.9,2.7-6.6Z"/>
    <path class="st1" d="M397.8,130.6c11.5,0,21.3,4.5,29.5,13.4s12.2,19.6,12.2,32.1-4.1,23.2-12.2,32.1c-8.2,8.9-18,13.4-29.5,13.4s-21.3-4.5-29.5-13.4-12.2-19.6-12.2-32.1,1.9-15.8,5.6-22.8,8.8-12.5,15.2-16.6c6.4-4.1,13.4-6.1,20.9-6.1ZM407.1,207.7v-63.3c0-2.7-.9-4.9-2.7-6.6-1.8-1.8-4-2.7-6.5-2.7s-4.7.9-6.5,2.7-2.7,4-2.7,6.6v63.3c0,2.5.9,4.7,2.7,6.5,1.8,1.8,4,2.7,6.5,2.7s4.7-.9,6.5-2.7c1.8-1.8,2.7-4,2.7-6.5Z"/>
    <path class="st1" d="M464.9,221.5c-2.1,2.1-4.7,3.2-7.8,3.2s-5.6-1.1-7.8-3.2c-2.2-2.1-3.2-4.7-3.2-7.8s1.1-5.6,3.2-7.8c2.1-2.1,4.7-3.2,7.8-3.2s5.6,1.1,7.8,3.2c2.1,2.2,3.2,4.7,3.2,7.8,0,3.1-1,5.7-3.2,7.8Z"/>
    <path class="st1" d="M539.4,103.6h19.5v117.9h-51c-9,0-16.6-3.2-22.9-9.5-6.3-6.3-9.5-14-9.5-22.9v-26.1c0-9,3.2-16.6,9.5-22.9,6.3-6.3,14-9.5,22.9-9.5h18.6v-13.8c0-3.7,1.3-6.8,3.8-9.3,2.6-2.6,5.6-3.9,9.1-3.9ZM526.5,207.1v-62.1c0-2.7-.9-4.9-2.6-6.8s-3.8-2.9-6.2-3c-2.7-.1-5,.7-6.9,2.6-2,1.8-2.9,4.1-2.9,6.7v63.3c0,2.7,1,4.9,2.9,6.7,2,1.8,4.3,2.7,6.9,2.6,1.6-.1,3.1-.6,4.5-1.5,1.3-.9,2.4-2.1,3.1-3.5.9-1.6,1.2-3.2,1.2-5Z"/>
    <path class="st1" d="M617.9,176.8h-18.6v30.9c0,2.7,1,4.9,2.9,6.7,2,1.8,4.3,2.7,6.9,2.6,2.4-.1,4.5-1.1,6.2-3s2.6-4.2,2.6-6.8v-16.2h32.4c0,8.5-3,15.7-8.9,21.6-5.9,5.9-13.1,8.9-21.6,8.9h-20.5c-9,0-16.6-3.2-22.9-9.5-6.3-6.3-9.5-14-9.5-22.9v-26.1c0-9,3.2-16.6,9.5-22.9,6.3-6.3,14-9.5,22.9-9.5h20.5c5.6,0,10.7,1.4,15.4,4.1,4.7,2.7,8.4,6.4,11.1,11.2,2.7,4.7,4.1,9.8,4.1,15.3v15.7h-32.5ZM599.3,144.4v18.6c0,2.7.9,4.9,2.7,6.6,1.8,1.8,4,2.7,6.5,2.7s4.7-.9,6.5-2.7,2.7-4,2.7-6.6v-18.2c0-2.5-.9-4.7-2.6-6.6s-3.8-2.9-6.2-3c-2.7-.1-5,.7-6.9,2.6-1.7,1.7-2.7,3.9-2.7,6.6Z"/>
  </g>
</svg>