<svg xmlns="http://www.w3.org/2000/svg" xmlns:xlink="http://www.w3.org/1999/xlink" width="39.961" height="27" viewBox="0 0 39.961 27">
  <defs>
    <clipPath id="clip-path">
      <rect id="Rectangle_188" data-name="Rectangle 188" width="39.961" height="27" fill="none"/>
    </clipPath>
  </defs>
  <g id="Group_346" data-name="Group 346" transform="translate(0 0)">
    <g id="Group_345" data-name="Group 345" transform="translate(0 0)" clip-path="url(#clip-path)">
      <path id="Path_479" data-name="Path 479" d="M37.672,22.9H35.693a.628.628,0,0,1,0-1.257h1.979A1.034,1.034,0,0,0,38.7,20.606V14.293a1.025,1.025,0,0,0-.277-.7l-11.181-12a1.027,1.027,0,0,0-.755-.33H2.289A1.034,1.034,0,0,0,1.257,2.289V20.606a1.034,1.034,0,0,0,1.032,1.032H3.981a.628.628,0,1,1,0,1.257H2.289A2.292,2.292,0,0,1,0,20.606V2.289A2.292,2.292,0,0,1,2.289,0h24.2a2.287,2.287,0,0,1,1.675.73l11.181,12a2.274,2.274,0,0,1,.614,1.559v6.313A2.292,2.292,0,0,1,37.672,22.9" transform="translate(0 0)" fill="#1a1a1a"/>
      <path id="Path_480" data-name="Path 480" d="M14.242,9.85H6.778a.628.628,0,0,1,0-1.257h7.464a.628.628,0,0,1,0,1.257" transform="translate(9.338 13.045)" fill="#1a1a1a"/>
      <path id="Path_481" data-name="Path 481" d="M6.752,16.429A4.733,4.733,0,1,1,11.486,11.7a4.739,4.739,0,0,1-4.734,4.732m0-8.209A3.478,3.478,0,1,0,10.23,11.7,3.482,3.482,0,0,0,6.752,8.22" transform="translate(3.064 10.571)" fill="#1a1a1a"/>
      <path id="Path_482" data-name="Path 482" d="M14.614,16.429A4.733,4.733,0,1,1,19.348,11.7a4.739,4.739,0,0,1-4.734,4.732m0-8.209A3.478,3.478,0,1,0,18.092,11.7,3.482,3.482,0,0,0,14.614,8.22" transform="translate(15 10.571)" fill="#1a1a1a"/>
      <path id="Path_483" data-name="Path 483" d="M19.589,9.91H11.81a2.506,2.506,0,0,1-2.5-2.5V2.467a.628.628,0,1,1,1.257,0V7.407A1.248,1.248,0,0,0,11.81,8.654h7.779a.628.628,0,0,1,0,1.257" transform="translate(14.13 2.788)" fill="#1a1a1a"/>
    </g>
  </g>
</svg>
