<svg xmlns="http://www.w3.org/2000/svg" xmlns:xlink="http://www.w3.org/1999/xlink" width="31.35" height="36.846" viewBox="0 0 31.35 36.846">
  <defs>
    <clipPath id="clip-path">
      <rect id="Rectangle_186" data-name="Rectangle 186" width="31.35" height="36.846" fill="none"/>
    </clipPath>
  </defs>
  <g id="Group_342" data-name="Group 342" transform="translate(0 0)">
    <g id="Group_341" data-name="Group 341" transform="translate(0 0)" clip-path="url(#clip-path)">
      <path id="Path_471" data-name="Path 471" d="M10.084,23.244a.491.491,0,0,1-.492-.492v-4.08H9.373A4.083,4.083,0,0,1,5.3,14.591V7.943A4.083,4.083,0,0,1,9.373,3.865H22.14a4.083,4.083,0,0,1,4.078,4.078v6.648a4.083,4.083,0,0,1-4.078,4.08H14.862L10.431,23.1a.484.484,0,0,1-.347.144M9.373,4.85A3.1,3.1,0,0,0,6.28,7.943v6.648a3.1,3.1,0,0,0,3.094,3.1h.711a.492.492,0,0,1,.492.492v3.385l3.734-3.734a.485.485,0,0,1,.347-.144H22.14a3.1,3.1,0,0,0,3.094-3.1V7.943A3.1,3.1,0,0,0,22.14,4.85Z" transform="translate(5.132 3.746)" fill="#1a1a1a"/>
      <path id="Path_472" data-name="Path 472" d="M18.478,36.846h-15A3.484,3.484,0,0,1,0,33.367V3.48A3.484,3.484,0,0,1,3.481,0h15a3.484,3.484,0,0,1,3.48,3.48V6.087a.492.492,0,0,1-.985,0V3.48a2.5,2.5,0,0,0-2.5-2.5h-15a2.5,2.5,0,0,0-2.5,2.5V33.367a2.5,2.5,0,0,0,2.5,2.5h15a2.5,2.5,0,0,0,2.5-2.5V23.784a.492.492,0,1,1,.985,0v9.582a3.484,3.484,0,0,1-3.48,3.48" transform="translate(0.001 0)" fill="#1a1a1a"/>
      <path id="Path_473" data-name="Path 473" d="M21.445,15.948H.492a.492.492,0,1,1,0-.985H21.445a.492.492,0,1,1,0,.985" transform="translate(0 14.503)" fill="#1a1a1a"/>
      <path id="Path_474" data-name="Path 474" d="M7.7,2.529H5.18a.492.492,0,0,1,0-.985H7.7a.492.492,0,1,1,0,.985" transform="translate(4.544 1.497)" fill="#1a1a1a"/>
      <path id="Path_475" data-name="Path 475" d="M6.542,19.477a1.76,1.76,0,1,1,1.76-1.76,1.762,1.762,0,0,1-1.76,1.76m0-2.536a.776.776,0,1,0,.776.776.777.777,0,0,0-.776-.776" transform="translate(4.635 15.465)" fill="#1a1a1a"/>
    </g>
  </g>
</svg>
