<svg xmlns="http://www.w3.org/2000/svg" xmlns:xlink="http://www.w3.org/1999/xlink" width="36.846" height="36.846" viewBox="0 0 36.846 36.846">
  <defs>
    <clipPath id="clip-path">
      <rect id="Rectangle_187" data-name="Rectangle 187" width="36.846" height="36.846" fill="none"/>
    </clipPath>
  </defs>
  <g id="Group_344" data-name="Group 344" transform="translate(0 0)">
    <g id="Group_343" data-name="Group 343" transform="translate(0 0)" clip-path="url(#clip-path)">
      <path id="Path_476" data-name="Path 476" d="M11.1,14.807A5.96,5.96,0,1,1,17.06,8.846,5.966,5.966,0,0,1,11.1,14.807m0-10.71A4.749,4.749,0,1,0,15.85,8.846,4.755,4.755,0,0,0,11.1,4.1" transform="translate(7.324 4.111)" fill="#1a1a1a"/>
      <path id="Path_477" data-name="Path 477" d="M23.389,17.122H3.946a.6.6,0,0,1-.606-.6A10.356,10.356,0,0,1,8.555,7.544a.6.6,0,0,1,.778.155,5.55,5.55,0,0,0,4.335,1.612A5.538,5.538,0,0,0,18,7.694a.61.61,0,0,1,.776-.15,10.356,10.356,0,0,1,5.215,8.975.6.6,0,0,1-.606.6M4.572,15.912H22.763a9.151,9.151,0,0,0-4.184-7.076,7.171,7.171,0,0,1-4.912,1.685A7.158,7.158,0,0,1,8.758,8.836a9.147,9.147,0,0,0-4.187,7.076" transform="translate(4.757 10.63)" fill="#1a1a1a"/>
      <path id="Path_478" data-name="Path 478" d="M18.424,36.846A18.423,18.423,0,1,1,36.849,18.422,18.444,18.444,0,0,1,18.424,36.846m0-35.637A17.213,17.213,0,1,0,35.637,18.422,17.232,17.232,0,0,0,18.424,1.21" transform="translate(0 -0.001)" fill="#1a1a1a"/>
    </g>
  </g>
</svg>
