<svg xmlns="http://www.w3.org/2000/svg" xmlns:xlink="http://www.w3.org/1999/xlink" width="43.388" height="34.03" viewBox="0 0 43.388 34.03">
  <defs>
    <clipPath id="clip-path">
      <rect id="Rectangle_189" data-name="Rectangle 189" width="43.388" height="34.03" fill="none" stroke="#000" stroke-width="0.25"/>
    </clipPath>
  </defs>
  <g id="Group_348" data-name="Group 348" transform="translate(0 0)">
    <g id="Group_347" data-name="Group 347" transform="translate(0 0)" clip-path="url(#clip-path)">
      <path id="Path_484" data-name="Path 484" d="M1.285,14.833l12.837,6.416L20.8,17.908,7.972,11.487ZM21.3,33.172a1.717,1.717,0,0,1-.321-.116L8.471,26.8a1.57,1.57,0,0,1-.654-.587,1.6,1.6,0,0,1-.233-.842v-6.5l6.36,3.175a.382.382,0,0,0,.355,0l7-3.5Zm.792-14.621V33.172a1.667,1.667,0,0,0,.316-.116L34.915,26.8a1.641,1.641,0,0,0,.654-.587,1.6,1.6,0,0,0,.227-.842v-6.5l-6.355,3.175a.382.382,0,0,1-.355,0Zm14.505-.078v6.9A2.348,2.348,0,0,1,35.27,27.51l-12.5,6.255a2.337,2.337,0,0,1-2.144,0L8.111,27.51a2.371,2.371,0,0,1-.97-.881,2.327,2.327,0,0,1-.355-1.258v-6.9L.221,15.188a.392.392,0,0,1-.177-.177.4.4,0,0,1,.177-.537l6.859-3.43L.221,7.614a.368.368,0,0,1-.177-.177A.4.4,0,0,1,.221,6.9L13.945.045a.367.367,0,0,1,.355,0l7.391,3.69,7.4-3.69a.367.367,0,0,1,.355,0L43.165,6.9a.379.379,0,0,1,.177.183.393.393,0,0,1-.177.532l-6.859,3.43,6.859,3.43a.392.392,0,0,1,.177.177.4.4,0,0,1-.177.537ZM22.089,4.827V17.26l12.438-6.216ZM21.3,17.26,8.858,11.043,21.3,4.827ZM35.414,10.6,42.1,7.259,29.264.838,22.582,4.184Zm-6.15,10.649-6.682-3.341,12.832-6.421L42.1,14.833ZM20.8,4.184,14.122.838,1.285,7.259,7.972,10.6Z" transform="translate(0.001 0.001)" fill="#30383b" stroke="#000" stroke-width="0.25" fill-rule="evenodd"/>
    </g>
  </g>
</svg>
