<svg xmlns="http://www.w3.org/2000/svg" xmlns:xlink="http://www.w3.org/1999/xlink" width="25.523" height="31.213" viewBox="0 0 25.523 31.213">
  <defs>
    <clipPath id="clip-path">
      <rect id="Rectangle_185" data-name="Rectangle 185" width="25.523" height="31.213" fill="none"/>
    </clipPath>
  </defs>
  <g id="Group_340" data-name="Group 340" transform="translate(0 0)">
    <g id="Group_339" data-name="Group 339" transform="translate(0 0)" clip-path="url(#clip-path)">
      <path id="Path_469" data-name="Path 469" d="M12.373,31.212a.667.667,0,0,1-.2-.032C-3.242,26.159.352,6.278.389,6.077A.656.656,0,0,1,.748,5.61L12.082.068a.66.66,0,0,1,.581,0l9.022,4.409A.66.66,0,0,1,21.1,5.663L12.373,1.393,1.632,6.645c-.378,2.492-2.3,18.791,10.741,23.213,7.942-2.693,10.316-9.732,10.9-15.187A.65.65,0,0,1,24,14.088a.657.657,0,0,1,.583.726c-.634,5.888-3.234,13.508-12.011,16.367a.667.667,0,0,1-.2.032" transform="translate(0 0.001)" fill="#1a1a1a"/>
      <path id="Path_470" data-name="Path 470" d="M8.207,16.742h0a.651.651,0,0,1-.465-.193L2.365,11.171a.659.659,0,0,1,.932-.932L8.207,15.15,20.838,2.519a.659.659,0,0,1,.932.932l-13.1,13.1a.662.662,0,0,1-.467.193" transform="translate(3.56 3.818)" fill="#1a1a1a"/>
    </g>
  </g>
</svg>
