<?xml version="1.0" encoding="utf-8"?>
<!-- Generator: Adobe Illustrator 28.1.0, SVG Export Plug-In . SVG Version: 6.00 Build 0)  -->
<svg version="1.1" id="Ebene_1" xmlns="http://www.w3.org/2000/svg" xmlns:xlink="http://www.w3.org/1999/xlink" x="0px" y="0px"
	 viewBox="0 0 2267.7 2000" style="enable-background:new 0 0 2267.7 2000;" xml:space="preserve">
<style type="text/css">
	.st0{fill:#ECD8B3;}
	.st1{fill-rule:evenodd;clip-rule:evenodd;fill:#689C39;}
	.st2{fill:#006837;}
	.st3{fill:#F2F2F2;}
	.st4{fill:#B3B3B3;}
	.st5{fill:#999999;}
	.st6{fill:#E6E6E6;}
	.st7{opacity:0.29;fill:#666666;enable-background:new    ;}
	.st8{fill:#CCCCCC;}
	.st9{fill:#808080;}
	.st10{fill:#FFFFFF;}
	.st11{fill:#666666;}
	.st12{fill:#4D4D4D;}
	.st13{fill:#D16D53;}
	.st14{fill:#A67C52;}
	.st15{fill:#BA422D;}
	.st16{fill:#24386B;}
	.st17{fill:#B4C5D6;}
	.st18{fill:#4D69BA;}
</style>
<g id="background">
</g>
<g id="image">
	<g>
		<path class="st0" d="M512.5,1438.3c-169.4-44.8-292.1-194.7-294.7-369.9c-0.8-56.5,10.7-112.5,44.4-158.7
			c118-161.9,194.7-114,315.4-243.8S693.9,334.3,1028,281.1c297.4-47.3,504.6,368.7,652.5,350.8c0,0,305.3-43.6,375,290.7
			c69.7,334.3-367.8,664.7-844.2,149.1C897.3,731.8,1107.3,1595.7,512.5,1438.3z"/>
		<g>
			<path class="st1" d="M1541.8,470.8c-40.2,103.6-40.2,273.1,0,376.6l73.1,188.3l73.1-188.3c40.2-103.6,40.2-273.1,0-376.6
				l-73.1-188.3L1541.8,470.8z"/>
			<path class="st1" d="M1916.6,662.7c-86.5,38.1-188.4,140.1-226.6,226.6l-73.2,165.1c0,0,39.3-11.6,71-27.7s90.2-49.5,90.2-49.5
				c86.5-38.1,188.4-140.1,226.6-226.6l69.3-157.2L1916.6,662.7z"/>
			<path class="st1" d="M1961.6,1013.5c-61.9-24-163.2-24-225.2,0l-112.6,43.7l112.6,43.7c61.9,24,163.2,24,225.2,0l112.6-43.7
				L1961.6,1013.5z"/>
			<path class="st1" d="M1784.9,1191.7c-16.2-36.7-59.5-80-96.2-96.2l-66.8-29.4l29.4,66.8c16.2,36.7,59.5,80,96.2,96.2l66.8,29.4
				L1784.9,1191.7z"/>
			<path class="st1" d="M1313.1,662.7c86.5,38.1,188.4,140.1,226.6,226.6l69.3,157.2l-157.2-69.3
				c-86.5-38.1-188.4-140.1-226.6-226.6l-69.3-157.2L1313.1,662.7z"/>
			<path class="st1" d="M1268.1,1013.5c61.9-24,163.2-24,225.2,0l112.6,43.7l-112.6,43.7c-61.9,24-163.2,24-225.2,0l-112.6-43.7
				L1268.1,1013.5z"/>
			<path class="st1" d="M1444.8,1191.7c16.2-36.7,59.5-80,96.2-96.2l66.8-29.4l-29.4,66.8c-16.2,36.7-59.5,80-96.2,96.2l-66.8,29.4
				L1444.8,1191.7z"/>
		</g>
		<path class="st2" d="M1834.6,1203.2c-9.8,0-17.8-8-17.8-17.8s8-17.8,17.8-17.8s17.8,8,17.8,17.8
			C1852.5,1195.2,1844.5,1203.2,1834.6,1203.2z M1834.6,1170.5c-8.2,0-14.8,6.7-14.8,14.8s6.7,14.8,14.8,14.8s14.8-6.7,14.8-14.8
			S1842.8,1170.5,1834.6,1170.5z"/>
		<path class="st2" d="M1027.7,474.8c-9.8,0-17.8-8-17.8-17.8s8-17.8,17.8-17.8s17.8,8,17.8,17.8S1037.5,474.8,1027.7,474.8z
			 M1027.7,442.1c-8.2,0-14.8,6.7-14.8,14.8s6.7,14.8,14.8,14.8s14.8-6.7,14.8-14.8S1035.8,442.1,1027.7,442.1z"/>
		<path class="st2" d="M336.6,931.1c-9.8,0-17.8-8-17.8-17.8s8-17.8,17.8-17.8s17.8,8,17.8,17.8
			C354.5,923.1,346.5,931.1,336.6,931.1z M336.6,898.5c-8.2,0-14.8,6.7-14.8,14.8c0,8.2,6.7,14.8,14.8,14.8s14.8-6.7,14.8-14.8
			C351.5,905.1,344.8,898.5,336.6,898.5z"/>
		<path class="st3" d="M1528.6,1626.6L797.9,1428c-29.9-8.1-38-26.1-18.1-40.1l127.1-89.6c19.9-14,60.2-18.8,90.1-10.7l730.7,198.6
			c29.9,8.1,38,26.1,18.1,40.1l-127.1,89.6C1598.9,1629.9,1558.5,1634.7,1528.6,1626.6z"/>
		<path class="st4" d="M1605.4,861.7L756,632.9c-7.7-2.4-13.3-3-20.4,0.4c-0.2,0.1-5.6,5.9-5.7,6c-2.5,2.4-12.6,13.6-13.3,14
			c7.8-5.8,9.5-5.1,18.5-2.2L1604.4,890C1605.7,890.3,1608.1,862.4,1605.4,861.7z M750.2,633.7L750.2,633.7L750.2,633.7L750.2,633.7
			z"/>
		<path class="st4" d="M1628,887.1C1628,887.1,1628,887,1628,887.1c-0.1-0.4-0.1-0.7-0.2-1c-0.1-0.3-0.2-0.6-0.2-1V885v-0.1
			c-0.1-0.2-0.1-0.4-0.2-0.7c-0.1-0.3-0.2-0.6-0.3-0.9c-0.1-0.1-0.1-0.3-0.2-0.4c0-0.1,0-0.1-0.1-0.2c0-0.1-0.1-0.2-0.1-0.3
			c-0.1-0.3-0.2-0.6-0.4-0.9c-0.1-0.3-0.3-0.6-0.4-0.9l0,0l0,0c-0.1-0.3-0.3-0.6-0.4-0.9c-0.2-0.3-0.3-0.6-0.5-0.9
			c0-0.1-0.1-0.2-0.1-0.2c0-0.1-0.1-0.1-0.1-0.2c-0.1-0.2-0.2-0.3-0.3-0.5c-0.2-0.3-0.3-0.6-0.5-0.8c-0.1-0.2-0.3-0.4-0.4-0.6
			c0,0,0-0.1-0.1-0.1c0,0,0-0.1-0.1-0.1c-0.2-0.3-0.4-0.5-0.5-0.8c-0.2-0.2-0.4-0.5-0.5-0.7c-0.1-0.1-0.2-0.2-0.2-0.3l-0.1-0.1
			c-0.1-0.1-0.1-0.2-0.2-0.3c-0.2-0.3-0.4-0.5-0.6-0.8c-0.2-0.2-0.4-0.5-0.6-0.7c0,0,0,0-0.1-0.1l-0.1-0.1c-0.2-0.3-0.5-0.5-0.7-0.8
			c-0.2-0.2-0.5-0.5-0.7-0.7s-0.3-0.3-0.5-0.5c-0.1-0.1-0.1-0.1-0.2-0.2c-0.4-0.4-0.8-0.7-1.2-1.1c-0.1-0.1-0.3-0.2-0.4-0.4
			c0,0,0,0-0.1-0.1c-0.5-0.5-1.1-0.9-1.6-1.3c-0.1-0.1-0.2-0.1-0.2-0.2c-0.1-0.1-0.1-0.1-0.2-0.2c-0.2-0.1-0.4-0.3-0.6-0.4
			c-0.3-0.2-0.7-0.5-1-0.7c-0.1-0.1-0.3-0.2-0.4-0.3c-0.1,0-0.1-0.1-0.2-0.1c-0.1-0.1-0.2-0.2-0.4-0.2c-0.3-0.2-0.6-0.4-1-0.6
			c-0.2-0.2-0.5-0.3-0.8-0.4l-0.1-0.1c0,0-0.1,0-0.1-0.1c-0.4-0.2-0.7-0.4-1.1-0.6c-0.4-0.2-0.7-0.4-1.1-0.6l0,0l0,0
			c-0.4-0.2-0.7-0.4-1.1-0.5c-0.4-0.2-0.8-0.3-1.2-0.5c0,0-0.1,0-0.1-0.1c-0.1,0-0.1,0-0.2-0.1c-0.3-0.1-0.6-0.2-0.8-0.3
			c-0.4-0.1-0.8-0.3-1.2-0.4c-0.1,0-0.2-0.1-0.3-0.1h-0.1l0,0c-0.2-0.1-0.5-0.2-0.7-0.2c-0.4-0.1-0.8-0.2-1.2-0.3
			c-0.1,0-6.1-1.7-6.2-1.7l-28.5,19.7c0,0,8.2,2.3,8.5,2.4c0.4,0.1,0.8,0.2,1.1,0.4c0.4,0.1,0.8,0.3,1.2,0.4
			c0.4,0.1,0.8,0.3,1.2,0.5c0.2,0.1,0.3,0.1,0.5,0.2c0.6,0.3,1.2,0.5,1.8,0.8l0,0l0,0c0.6,0.3,1.2,0.6,1.8,0.9
			c0.1,0,0.1,0.1,0.2,0.1c0.6,0.3,1.1,0.6,1.7,1c0.1,0.1,0.2,0.1,0.2,0.2c0.5,0.3,1,0.7,1.6,1c0.1,0.1,0.2,0.1,0.3,0.2
			c0.5,0.4,1,0.7,1.5,1.1c0.3,0.2,0.5,0.4,0.7,0.6c0.3,0.2,0.6,0.5,0.9,0.7c0.3,0.3,0.7,0.6,1,0.9c0.2,0.2,0.4,0.4,0.6,0.6
			c0.2,0.2,0.4,0.4,0.5,0.5c0.3,0.3,0.6,0.6,0.9,0.9c0.1,0.1,0.2,0.2,0.2,0.3c0.4,0.4,0.8,0.9,1.2,1.4l0.1,0.1
			c0.4,0.5,0.8,1,1.2,1.5c0,0.1,0.1,0.1,0.1,0.2c0.4,0.5,0.7,1,1,1.5c0,0.1,0.1,0.1,0.1,0.2c0.3,0.5,0.6,1,0.9,1.5
			c0,0.1,0.1,0.2,0.1,0.2c0.3,0.5,0.6,1,0.8,1.5c0,0.1,0.1,0.2,0.1,0.2c0.3,0.5,0.5,1,0.7,1.5c0,0.1,0.1,0.1,0.1,0.2
			c0.2,0.5,0.4,1,0.6,1.6c0,0.1,0,0.1,0.1,0.2c0.2,0.5,0.3,1.1,0.5,1.6c0.1,0.3,0.1,0.5,0.2,0.8c0.1,0.3,0.1,0.6,0.2,1
			c0.1,0.3,0.1,0.7,0.2,1c0,0.3,0.1,0.7,0.1,1c0,0.4,0.1,0.7,0.1,1.1c0,0.3,0,0.6,0,0.8c0,0,0,0.6,0,1.5l-3.2,647.4l20.3-20.2
			c4.7-4.7,7.4-10.5,7.4-16.2l2.8-625.8c0-2.7,0-6.8,0-6.8c0-0.3,0-0.6,0-0.8s0-0.5,0-0.7l0,0v-0.1c0-0.1,0-0.2,0-0.2
			c0-0.3-0.1-0.7-0.1-1s-0.1-0.5-0.1-0.8C1628,887.2,1628,887.1,1628,887.1z"/>
		<g>
			<g>
				<path class="st5" d="M1373.1,1417c0,0-4.5,3.3-4.8,3.7c-0.1,0.2-1.6,2.2-2.3,3c-0.5,0.6-2.2,2.3-2.5,2.6
					c-0.9,0.9-199.7,157.6-199.7,157.6l4.8,31.2l195.9-155.6c1.9-0.3,2.9-1.2,3.8-2.1c0.3-0.3,0.6-0.6,0.9-0.9
					c0.6-0.6,1.2-1.1,1.7-1.7l0,0c0.7-0.8,1.3-1.5,1.8-2.3c0.2-0.2,0.3-0.4,0.4-0.6c0.2-0.2,0.3-0.5,0.5-0.7
					c0.1-0.2,0.2-0.4,0.3-0.6c0.4-0.6,0.7-1.2,1-1.8c0.1-0.2,0.2-0.4,0.3-0.6s0.1-0.3,0.2-0.5c0.2-0.5,0.4-1.1,0.5-1.6
					c0.1-0.3,0.2-0.5,0.3-0.8c0-0.1,0-0.3,0.1-0.4c0.1-0.5,0.2-1,0.2-1.5c0-0.3,0.1-0.6,0.1-0.8c0-0.1,0-0.2,0-0.3c0-0.5,0-1,0-1.6
					c0-0.3,0-0.6,0-0.8c0-0.1,0-0.3-0.1-0.4L1373.1,1417z"/>
				<path class="st4" d="M1163,1584.6c-1.3,1-2.7,2-4.2,2.9c-0.4,0.3-0.9,0.6-1.4,0.8c-1.6,1-3.3,1.9-5,2.8c-0.1,0-0.2,0.1-0.3,0.2
					c-1.5,0.7-3,1.4-4.5,2.1c-0.2,0.1-0.5,0.2-0.7,0.3c-1.3,0.5-2.7,1.1-4.1,1.6c-0.2,0.1-0.3,0.1-0.5,0.2c-1.8,0.6-3.6,1.2-5.4,1.7
					c-0.7,0.2-1.3,0.4-2,0.6c-1.1,0.3-2.1,0.6-3.2,0.8c-0.8,0.2-1.5,0.3-2.3,0.5c-0.9,0.2-1.9,0.4-2.8,0.5c-0.8,0.1-1.6,0.3-2.4,0.4
					c-0.9,0.1-1.7,0.3-2.6,0.4c-0.8,0.1-1.7,0.2-2.5,0.3c-0.9,0.1-1.7,0.2-2.6,0.2c-0.8,0.1-1.6,0.1-2.5,0.2c-0.9,0-1.9,0.1-2.8,0.1
					c-0.8,0-1.5,0-2.3,0c-1.1,0-2.2,0-3.3-0.1c-0.6,0-1.2,0-1.9-0.1c-2-0.1-3.9-0.3-5.9-0.6c-1-0.1-1.9-0.3-2.8-0.5
					c-0.5-0.1-1-0.2-1.4-0.3c-1.4-0.3-2.8-0.6-4.1-1L910.3,1546c-11.1-3.3-15.7,0.4-16.8-6.4l3.3,21.7c1,6.8,7.2,12.6,18.3,15.9
					l179.2,52.6c1.3,0.4,2.7,0.7,4.1,1c0.5,0.1,1,0.2,1.4,0.3c0.8,0.2,1.6,0.3,2.4,0.4c0.1,0,0.2,0,0.4,0c1.9,0.3,3.9,0.5,5.9,0.6
					c0.1,0,0.3,0,0.4,0c0.5,0,1,0,1.5,0c1.1,0,2.2,0.1,3.3,0.1c0.3,0,0.5,0,0.8,0c0.5,0,1,0,1.6-0.1c0.9,0,1.8,0,2.8-0.1
					c0.3,0,0.6,0,0.9,0c0.5,0,1-0.1,1.5-0.1c0.9-0.1,1.7-0.1,2.6-0.2c0.3,0,0.7-0.1,1-0.1c0.5-0.1,1-0.1,1.5-0.2
					c0.9-0.1,1.7-0.2,2.6-0.4c0.3-0.1,0.7-0.1,1-0.1c0.5-0.1,0.9-0.2,1.4-0.3c0.9-0.2,1.9-0.3,2.8-0.5c0.4-0.1,0.8-0.1,1.1-0.2
					c0.4-0.1,0.8-0.2,1.2-0.3c1.1-0.2,2.1-0.5,3.2-0.8c0.4-0.1,0.9-0.2,1.3-0.3c0.3-0.1,0.5-0.2,0.7-0.2c1.8-0.5,3.6-1.1,5.4-1.7
					c0.1,0,0.3-0.1,0.4-0.1h0.1c1.4-0.5,2.7-1,4.1-1.6c0.2-0.1,0.5-0.2,0.7-0.3c1.5-0.7,3.1-1.3,4.5-2.1c0,0,0,0,0.1,0
					s0.1-0.1,0.2-0.1c1.8-0.9,3.4-1.8,5.1-2.8c0.5-0.3,0.9-0.6,1.4-0.8c1.5-0.9,2.9-1.9,4.2-2.9c0.2-0.1,0.3-0.2,0.5-0.3
					c0.1-0.1,0.2-0.2,0.3-0.2l-4.8-31.2C1163.5,1584.2,1163.2,1584.4,1163,1584.6z"/>
				<g>
					<g>
						<path class="st6" d="M1354.2,1402c21.5,6.3,24.6,22.5,7,36.5L1165.4,1594c-18.3,14.6-52,21.1-74.4,14.6L911.8,1556
							c-22.4-6.6-24.8-23.7-5.2-37.9l209.3-151.6c18.8-13.6,50.9-19.5,72.5-13.1L1354.2,1402z"/>
					</g>
				</g>
			</g>
			<polygon class="st4" points="977.8,1466.1 1236.5,1538.5 1291.2,1494.8 1042.1,1420.8 			"/>
			<polygon class="st7" points="1236.5,1538.5 1239.7,1558.7 1308.6,1505.2 1305.5,1485.8 			"/>
		</g>
		<g>
			<g>
				<path class="st8" d="M1611.5,1536c0.1,20-24.9,36.6-46.3,30.7l-828.1-227.5c-15.4-4.2-27.8-18.1-27.8-30.9l1.2-583.8
					c0-12.9,12.5-19.9,27.8-15.7l870.8,239.3L1611.5,1536z"/>
			</g>
		</g>
		<g>
			<g>
				<path class="st9" d="M1611.5,1445.3c-0.1,30.3-37,55-69.1,46.2l-806.5-220.1c-15.4-4.2-27.8-18.1-27.8-30.9l1.2-583.8
					c0-12.9,12.5-19.9,27.8-15.7l838.4,230.4c21.5,5.9,37.1,26.1,37.1,47.9L1611.5,1445.3z"/>
			</g>
		</g>
		<g>
			<g>
				<path class="st3" d="M1576.5,1418.1c-0.2,19.9-23.6,35.9-44.4,30.3L761.6,1241c-14.6-3.9-26.3-16.1-26.3-27.1l2.7-500.3
					c0.1-11,11.9-16.8,26.5-12.8L1546.4,910c19.6,5.3,34.1,24.1,33.9,44.3L1576.5,1418.1z"/>
			</g>
		</g>
		<path class="st10" d="M1158.8,781c-0.3,4.6-3.8,7.5-8,6.4s-7.4-5.8-7.1-10.4c0.3-4.6,3.8-7.5,8-6.4
			C1155.8,771.7,1159,776.4,1158.8,781z"/>
		<g>
			<path class="st11" d="M1385.4,1378.8l-475.8-127.5l4.5-432.2l471.2,126.3c20.2,5.4,37.3,29.3,37.1,51.8l-3.7,354
				C1418.5,1371.7,1403.9,1383.8,1385.4,1378.8z"/>
			<polygon class="st8" points="1396.4,1328.4 934.7,1200.9 939.7,552.9 1401.3,680.4 			"/>
			<polygon class="st10" points="1375.2,1345.5 913.5,1218 918.4,570.1 1380.1,697.6 			"/>
			<polygon class="st3" points="1138.2,828.6 950.5,779.6 952.6,635.7 1140.3,684.8 			"/>
			<polygon class="st3" points="1341.3,884.8 1153.5,835.7 1155.7,691.9 1343.4,740.9 			"/>
			<polygon class="st3" points="1342.4,1049.5 1154.7,1000.5 1156.8,856.6 1344.5,905.6 			"/>
			<polygon class="st3" points="1134,995.4 946.2,946.3 948.4,802.5 1136.1,851.5 			"/>
			<path class="st9" d="M1374.7,1375.6l-475.5-127.5c-16.7-4.5-31.2-22.6-33.4-41.9l-41.2-349.6l479.3,128.5
				c14.5,3.9,27,19.5,28.9,36.3L1374.7,1375.6z"/>
			<path class="st9" d="M1078,995.4l-245-65.7L818.8,809c-3.4-18.1,11-25.6,23.3-21.1L965,820.8c52.7,14.1,101.3,75.2,108.5,136.5
				L1078,995.4z"/>
			
				<rect x="970.2" y="802.3" transform="matrix(0.2398 -0.9708 0.9708 0.2398 -133.3063 1625.8383)" class="st12" width="2.7" height="191.5"/>
		</g>
		<g>
			<g>
				<rect x="546.9" y="1276.3" class="st8" width="111.9" height="138"/>
				<path class="st13" d="M778.4,1081.2L778.4,1081.2c1.6,4.1,0.3,8.6-2.9,9.9l-13.2,1.7c-3.2,1.3-1.1,0.1-2.7-4.1l0,0
					c-1.6-4.1-4.9-3.4,0.7-7.3l9.2-3.4c1.2-0.4,2.5-0.7,3.7-0.8C775.7,1077.2,777.2,1077.9,778.4,1081.2z"/>
				<path class="st10" d="M625.1,1092.8l65,18.9l66.7-28.7l6.4,13c0,0-47.7,48.8-65,52.9c-2.6,0.6-57.4-8.7-57.4-8.7L625.1,1092.8z"
					/>
				<path class="st6" d="M489.5,1559c29.7-15.7,81.2-17.2,114.9-3.4c5.8,2.4,10.6,5,14.6,7.9c21.1-6.6,49.9-6.1,69.8,2
					c23.7,9.7,26,26.5,5.1,37.5c-20.1,10.6-54.2,12-77.9,3.4c-1.4,0.9-2.8,1.7-4.4,2.5c-29.7,15.7-81.2,17.2-114.9,3.4
					C463,1598.6,459.8,1574.7,489.5,1559z"/>
				<path class="st12" d="M673.4,1574.9l-21.3-21.3c-4.1-4.1-9.7-6.5-15.4-6.3c-2.1,0-4.1,0.3-6,0.6c-2.6,0.5-3.8,2.2-3.9,4.6
					l-0.4,4.5c-0.4,7.6-1.3,10.1,3.8,12.4l30.5,13.5C667.1,1587.2,684.2,1584.3,673.4,1574.9z"/>
				<path class="st13" d="M629.8,1549.1c0.8,5.1,5.4,9.2,10.3,8.7c2.5-0.2,4.2-1.7,4.6-6.3c-0.2-52.2,5.3-95.7,5.1-144.6
					c-0.2-54.8-1.8-38.7-2.3-122.8l-50.1-10.9c10.1,60.7,14.4,137.2,14.4,137.2C598.2,1466.5,618.9,1483.4,629.8,1549.1z"/>
				<path class="st14" d="M592.7,1254.3l15.6,128.6c2,13.8,1.9,24.8-0.8,38.5c-3.9,20.2-1.7,61,15.5,120.1c8,6.3,16.3,6.2,25,0.7
					c0,0,8.2-131.4,8.2-156.7c0-25.3-5.3-161.8-5.3-161.8L592.7,1254.3z"/>
				<path class="st12" d="M551.9,1579.4l-0.6,16.5c-0.2,1.7-2.1,10.8-2.9,12.4c-2.3,4.5-6.1,6.2-9.8,6.4c-4.8,0.2-14.4-8-10.8-17.8
					c3.1-8.5,9.3-22.1,9.3-22.1C543.9,1577.8,547,1579.2,551.9,1579.4z"/>
				<path class="st13" d="M537.3,1579.4c-1,6.5,9.5,9.5,13.9,3c5.7-51.8,15.5-98.6,20.9-147c6-54.3,10.9-51,20-134.3l-54.9,1.9
					c3.2,61-1.2,137.1-1.2,137.1C515.1,1496.6,535,1506.9,537.3,1579.4z"/>
				<path class="st14" d="M532.4,1252.2c0,0,5.3,109.9,1.9,134c-2.6,18.7-9.4,49.4-12.3,62.2c-0.9,4.2-1.5,8.4-1.6,12.6
					c-0.5,18.7,1.1,70.2,7.7,101.8c5.8,8.7,18.8,7.1,28.6,2.1l22.7-125.7c0.3-1.5,17.9-107.3,17.9-107.3c24.2,4.8,28.1-3,31.7-6.9
					l-18.2-73.9C610.8,1251.2,528.6,1259.1,532.4,1252.2z"/>
				<path class="st2" d="M611.3,1090.6c-6.9-0.2-13.2-1.1-15.1-2.4c-10.7-7.1-22.9-2.4-24.2-1.6l-17,7.3
					c-31.7,10.6-45.6,47.4-46,66.2c0,0,11.3,21.4,12.6,39.2c1.1,15.4,11.1,50,8.7,55c-1.8,3.7-0.6,24.7,17.8,32.7
					c37.2,16.1,70.1-1.4,90.3-9.2c33.2-12.8,21.9-10.5,19.8-36c-1.3-16-6.2-63.2-6.5-75.9c-0.3-12.7-5.2-72.1-30.6-74L611.3,1090.6z
					"/>
				<path class="st13" d="M580.7,1098.1l1.4-1.4c3.7,1,7,0.5,7.6-3.1l3.6-20.7c0.6-3.7-1.9-7.5-5.6-8.4l-1.1-0.3
					c-3.7-1-14-0.6-14.6,3.1l-2.1,21.8C569.3,1092.7,577,1097.2,580.7,1098.1z"/>
				<path class="st15" d="M591.4,1083.9c0,0-9-0.7-14.8-10c0,0,5.7,13.6,13.9,15.6L591.4,1083.9z"/>
				<path class="st13" d="M572.7,1040.5c3.3-5.5,8.3-6.5,13-3.3c4.6-1.9,10.1,1,14.2,8.3c5.7,10.2,8.4,26.2,3.6,34.3
					c-2.1,3.5-7.1,5.6-10.3,5.6c-3,0-5.6-1.9-8.4-3c-10.2-3.9-10.4-2.4-14.2-9.2C565,1063.1,567.9,1048.6,572.7,1040.5z"/>
				<path class="st16" d="M579.3,1044.2c-3.8,9.7-7.3,27.3-7.9,30.2c0,0-15.7-11-14.8-19.7c3-29,20.1-13.4,20.1-13.4L579.3,1044.2z"
					/>
				<path class="st16" d="M573.3,1030.7c-6,1.4-9.7,6-11.6,13.9c-0.2,1-2.4,5.6-2.5,6.4l3.9-1.1c-0.7,6.9,2.2-3.3,9.1-2
					c10.7-3.9,19.6,11.5,31.8,5.8c1.6-0.8,2.8-2.3,3.1-4.1c0.4-2.4-0.1-5.3-2.6-7.2c-7.5-5.9-11.3-9.2-19.5-11.3l-2-0.3
					C579.2,1030,576,1030,573.3,1030.7"/>
				<g>
					<g>
						<path class="st10" d="M596.3,1077.8L596.3,1077.8c2.4-0.5,3.9-3.3,3.5-6.4l-8.6,1.8C591.7,1076.3,594,1078.3,596.3,1077.8z"/>
					</g>
				</g>
				<path class="st13" d="M566.9,1067.8c-0.2,3.2,2.2,6.1,5.4,6.5c3.2,0.3,6.1-2,6.3-5.2s-2.2-6.1-5.4-6.5
					C569.9,1062.2,567.1,1064.6,566.9,1067.8z"/>
				<g>
					<g>
						<path class="st10" d="M591.1,1085.5l6.1,1.8c0,0,3.4,10.7-1.5,14.9l-9.2-5.7C586.6,1096.5,592,1091.2,591.1,1085.5z"/>
					</g>
				</g>
				<path class="st10" d="M586.6,1096.5l-5.3,9c0,0-18.6-6.2-19.1-16.6l8.2-4.2C570.4,1084.8,579.4,1097.4,586.6,1096.5z"/>
				<polygon class="st10" points="510.7,1128.1 501,1193.5 482.4,1254.5 507.8,1257.6 533.2,1207.6 538.9,1162.3 				"/>
				<path class="st10" d="M630.4,1094.3c0,0,17.8,5.8,23.7,48.9c5.9,43.2,16.6,207.6,13.3,243.6c0,0-5.6,20.9-46.7,20.9l8.7-187.9
					c0,0,0.3-98.3-23.2-128.4c-1-1.2,0.1-3,1.6-2.8C615.4,1089.7,624.3,1092.1,630.4,1094.3z"/>
				<path class="st17" d="M651,1143.9c-0.5,0-1-0.4-1.1-0.9l-2.4-10.3c-0.1-0.6,0.2-1.2,0.8-1.4c0.6-0.1,1.2,0.2,1.4,0.8l2.4,10.3
					c0.1,0.6-0.2,1.2-0.8,1.4C651.2,1143.9,651.1,1143.9,651,1143.9z"/>
				<path class="st10" d="M554.7,1092c8.9,6.4,14.8,137.2,13.2,199.5c-1.5,57.2-3.6,122.8-3.6,122.8s-44.2,4.4-59.1-14
					c0,0,4.8-235,4.6-262.8c-0.1-10,1.2-25,20.6-33.7L554.7,1092z"/>
				<path class="st17" d="M541,1180.2c-0.6,0-1.1-0.5-1.1-1.1l-0.6-39.8c0-0.6,0.5-1.1,1.1-1.2c0.6,0,1.1,0.5,1.2,1.1l0.6,39.8
					C542.2,1179.7,541.7,1180.2,541,1180.2L541,1180.2z"/>
				<g>
					<g>
						<path class="st18" d="M588.8,1246.5l0.2-1.9l-3.5,1.7l-0.6-1.1l-81.3-17.3c-1-0.2-2.8,0.3-4,1l-38.1,23.8v-0.4l-7,3.5
							l-0.2,2.1l0,0c0.1,0.2,0.3,0.3,0.6,0.4l84.6,18c1,0.2,2.8-0.3,4-1l44.1-27.6C588.4,1247.2,588.8,1246.8,588.8,1246.5
							L588.8,1246.5z"/>
						<path class="st4" d="M539.8,1274.2l-84.6-18c-1-0.2-0.8-1,0.5-1.8l44.1-27.6c1.2-0.8,3-1.2,4-1l84.6,18c1,0.2,0.8,1-0.5,1.8
							l-44.1,27.6C542.6,1274,540.8,1274.4,539.8,1274.2z"/>
						<path class="st4" d="M530,1221.7c-0.5-1.5-2.4-3-4.3-3.4l-89.4-18.1c-0.8-0.2-1.5-0.1-1.9,0.1l0,0l0,0
							c-0.2,0.1-0.3,0.2-0.4,0.3l-2.7,2.6l2.6-0.6l10.8,34.8c0.5,1.5,2.4,3,4.3,3.4l84.5,17.1l2.8,1.6l5.8,14.8c1.7-0.1,3.4-2,3.4-2
							L530,1221.7z"/>
						<path class="st12" d="M433.6,1202.8l89.4,18.1c1.9,0.4,3.9,1.9,4.3,3.4l10.9,35.2c0,0,0,0,0,0.1l4.4,14.1
							c0.5,1.5-0.7,2.4-2.6,2l-89.4-18.1c-1.9-0.4-3.9-1.9-4.3-3.4l-10.9-35.2c0,0,0,0,0-0.1l-4.4-14.1
							C430.5,1203.3,431.7,1202.4,433.6,1202.8z"/>
					</g>
					
						<ellipse transform="matrix(0.6505 -0.7595 0.7595 0.6505 -774.1412 799.9624)" class="st10" cx="482.1" cy="1241.1" rx="6" ry="7.9"/>
				</g>
				<path class="st13" d="M472,1265.5L472,1265.5c-1.1-4.8,0.7-8.7,4.2-8.7l13.6,3.4c3.4,0,6-0.1,7.1,4.6l0,0
					c1.1,4.8-0.2,7.5-6.5,7.5l-9.8-0.1c-1.3,0-2.6-0.2-3.9-0.7C474.3,1270.6,472.9,1269.3,472,1265.5z"/>
			</g>
		</g>
		<g>
			
				<ellipse transform="matrix(0.8196 -0.573 0.573 0.8196 -445.5519 826.8793)" class="st13" cx="1090.2" cy="1120.9" rx="67.2" ry="90.2"/>
		</g>
		<g>
			<path class="st10" d="M1086.9,1163.8L1086.9,1163.8c-4.1-1-7.3-5.4-7.2-9.7l2-65.7c0.1-4.3,3.6-7,7.7-5.9l0,0
				c4.1,1,7.3,5.4,7.2,9.7l-2,65.7C1094.5,1162.2,1091,1164.8,1086.9,1163.8z"/>
			<path class="st10" d="M1049.4,1113.4L1049.4,1113.4c0.1-4.1,3.4-6.6,7.3-5.6l63.4,16c3.9,1,7,5.1,6.8,9.2l0,0
				c-0.1,4.1-3.4,6.6-7.3,5.6l-63.4-16C1052.3,1121.6,1049.2,1117.4,1049.4,1113.4z"/>
		</g>
	</g>
</g>
</svg>
