<?xml version="1.0" encoding="UTF-8"?>
<svg id="Ebene_1" xmlns="http://www.w3.org/2000/svg" version="1.1" viewBox="0 0 500 500">
  <!-- Generator: Adobe Illustrator 29.3.1, SVG Export Plug-In . SVG Version: 2.1.0 Build 151)  -->
  <defs>
    <style>
      .st0 {
        fill: #fff;
        stroke: #fff;
        stroke-miterlimit: 10;
        stroke-width: 2px;
      }

      .st1 {
        fill: #b1b3a8;
      }
    </style>
  </defs>
  <path class="st1" d="M250,5C114.7,5,5,114.7,5,250s109.7,245,245,245,245-109.7,245-245S385.3,5,250,5h0Z"/>
  <g>
    <path class="st0" d="M188.6,127.9h118c2.4,0,4.3,1.9,4.3,4.3v37.8c0,5.3,2.5,10.4,6.7,13.5,33.4,24.9,50.7,64.6,46.3,106.3-5.7,54.1-49,97.6-103,103.5-33.8,3.7-66.3-6.6-91.4-29.1-24.7-22.2-38.9-53.9-38.9-87.1s17.1-71.3,47-93.7c4.2-3.1,6.6-8.1,6.6-13.4v-37.8c0-2.4,1.9-4.3,4.3-4.3ZM302.3,136.5h-109.4v33.5c0,8-3.8,15.6-10.1,20.3-27.7,20.7-43.5,52.4-43.5,86.8s13.1,60.2,36.1,80.7c23.3,20.8,53.3,30.4,84.7,26.9,50-5.5,90-45.8,95.3-95.8,4.1-38.6-12-75.4-42.9-98.5-6.3-4.8-10.1-12.4-10.1-20.4v-33.5Z"/>
    <path class="st0" d="M195.4,83h104.4c2.4,0,4.3,1.9,4.3,4.3v44.9c0,2.4-1.9,4.3-4.3,4.3h-104.4c-2.4,0-4.3-1.9-4.3-4.3v-44.9c0-2.4,1.9-4.3,4.3-4.3ZM295.5,91.7h-95.8v36.2h95.8v-36.2Z"/>
    <path class="st0" d="M217.8,41h59.5c9,0,16.3,7.3,16.3,16.3v30.1c0,2.4-1.9,4.3-4.3,4.3h-83.5c-2.4,0-4.3-1.9-4.3-4.3v-30.1c0-9,7.3-16.3,16.3-16.3ZM285.1,83.1v-25.7c0-4.2-3.4-7.7-7.7-7.7h-59.5c-4.2,0-7.7,3.4-7.7,7.7v25.7h74.9Z"/>
    <path class="st0" d="M225.4,127.9h44.4c2.1,0,4,1.6,4.3,3.7l17.8,118.4c.3,1.8-.6,3.5-2.1,4.4-1.5.9-3.5.7-4.8-.4l-17.3-13.9-17.3,13.9c-1.6,1.3-3.8,1.3-5.4,0l-17.4-13.9-17.4,13.9c-1.4,1.1-3.3,1.2-4.9.4-1.5-.9-2.4-2.6-2.1-4.4l17.9-118.4c.3-2.1,2.1-3.7,4.3-3.7ZM266.1,136.5h-37l-15.7,103.9,11.4-9.1c1.6-1.3,3.8-1.3,5.4,0l17.4,13.9,17.3-13.9c1.6-1.3,3.8-1.3,5.4,0l11.4,9.1-15.6-103.8Z"/>
  </g>
</svg>