<?xml version="1.0" encoding="UTF-8"?>
<svg id="Group_377" data-name="Group 377" xmlns="http://www.w3.org/2000/svg" xmlns:xlink="http://www.w3.org/1999/xlink" version="1.1" viewBox="0 0 39.4 39.4">
  <defs>
    <style>
      .cls-1 {
        clip-path: url(#clippath);
      }

      .cls-2 {
        fill: none;
      }

      .cls-2, .cls-3 {
        stroke-width: 0px;
      }

      .cls-4 {
        clip-path: url(#clippath-1);
      }

      .cls-3 {
        fill: #fff;
      }
    </style>
    <clipPath id="clippath">
      <path class="cls-2" d="M6.4,29.3C1.1,22,2.7,11.7,10.1,6.4c7.3-5.3,17.6-3.7,22.9,3.7,5.3,7.3,3.7,17.6-3.7,22.9-5.5,4-13,4.2-18.7.4l-5.8,1.5,1.5-5.5ZM19.7,0C8.8,0,0,8.8,0,19.7c0,3.6,1,7.1,2.8,10.2L.4,39.4l9.8-2.4c9.5,5.3,21.5,1.8,26.8-7.7,5.3-9.5,1.8-21.5-7.7-26.8C26.3.8,23,0,19.7,0Z"/>
    </clipPath>
    <clipPath id="clippath-1">
      <path class="cls-2" d="M13.5,11.1c-1.7.4-2.5,2.7-2.6,4.2,0,1.7.7,3.4,1.7,4.7,1,1.5,2.1,2.9,3.3,4.2,2.2,2.2,4.9,3.6,7.9,4.2.6.1,1.1.1,1.7,0,1-.1,1.9-.6,2.5-1.4.6-.7,1.4-2,.8-2.8-.2-.3-.5-.5-.7-.6-.3-.1-.6-.2-.8-.4l-2-1.1c-.2-.1-.4-.2-.6-.2-.9,0-1.3,1.3-1.9,1.8-.2.2-.5.4-.8.4-.3,0-.5,0-.7-.2-1.2-.5-2.2-1.3-3.1-2.2-.7-.7-1.4-1.5-2-2.3-.3-.3-.5-.8-.6-1.2-.1-1.1,1.5-1.5,1.5-2.6,0-.4-.1-.8-.3-1.2-.3-.6-.5-1.3-.8-2-.3-1-.9-1.6-1.8-1.6-.2,0-.5,0-.7,0"/>
    </clipPath>
  </defs>
  <g id="Group_368" data-name="Group 368">
    <g class="cls-1">
      <g id="Group_367" data-name="Group 367">
        <rect id="Rectangle_221" data-name="Rectangle 221" class="cls-3" x="-1" y="-1" width="41.3" height="41.3" transform="translate(-1 38.4) rotate(-87.1)"/>
      </g>
    </g>
  </g>
  <g class="cls-4">
    <g id="Group_369" data-name="Group 369">
      <rect id="Rectangle_222" data-name="Rectangle 222" class="cls-3" x="10.8" y="10.1" width="18.5" height="19.4" transform="translate(-.7 38.9) rotate(-87.1)"/>
    </g>
  </g>
</svg>