<?xml version="1.0" encoding="utf-8"?>
<!-- Generator: Adobe Illustrator 27.5.0, SVG Export Plug-In . SVG Version: 6.00 Build 0)  -->
<svg version="1.1" id="Ebene_1" xmlns="http://www.w3.org/2000/svg" xmlns:xlink="http://www.w3.org/1999/xlink" x="0px" y="0px"
	 viewBox="0 0 43.1 43.1" style="enable-background:new 0 0 43.1 43.1;" xml:space="preserve">
<style type="text/css">
	.st0{clip-path:url(#SVGID_00000119088347756671944340000011665403720511158949_);fill:#F7A600;}
</style>
<g>
	<defs>
		<rect id="SVGID_1_" width="43.1" height="43.1"/>
	</defs>
	<clipPath id="SVGID_00000064312457956784174860000003406705161941580185_">
		<use xlink:href="#SVGID_1_"  style="overflow:visible;"/>
	</clipPath>
	<path style="clip-path:url(#SVGID_00000064312457956784174860000003406705161941580185_);fill:#F7A600;" d="M0,21.9v-0.8
		c0.2-0.7,0.5-1.3,1-1.8c0.3-0.2,0.5-0.5,0.7-0.8C5.6,14.8,9.5,10.9,13.3,7c2.1-2.1,4.3-4.2,6.5-6.4c0.3-0.3,0.7-0.5,1.2-0.6
		c1-0.2,1.8,0.1,2.5,0.7c2,1.9,3.9,3.8,5.9,5.8c0.1,0.1,0.1,0.1,0.3,0.2c0-0.1,0-0.2,0-0.3c0-0.4,0.1-0.9,0-1.3
		c-0.1-1.1,1.2-2.5,2.6-2.5c1.1,0.1,2.2,0,3.3,0c0.1,0,0.2,0,0.2,0c0.4,0.2,0.8,0.4,1.1,0.7c0.5,0.5,0.8,1.1,0.8,1.8
		c0,3.1,0,6.3,0,9.4c0,0.1,0.1,0.3,0.2,0.4c0.3,0.3,0.5,0.5,0.8,0.8c1.2,1.3,2.5,2.6,3.7,3.9c0.3,0.3,0.5,0.7,0.6,1.1
		c0,0.1,0.1,0.2,0.1,0.3v0.7c0,0.1,0,0.1-0.1,0.2c-0.2,1.1-1.2,2.1-2.5,2.1c-0.9,0-1.7,0-2.6,0c-0.1,0-0.2,0-0.3,0
		c0,0.1,0,0.2,0,0.3c0,5.3,0,10.6,0,15.9c0,0.5-0.1,0.9-0.3,1.3c-0.4,0.7-1,1-1.6,1.3c-0.1,0-0.1,0-0.2,0c-2.8,0-5.6,0-8.4,0.1
		c-0.1,0-0.2,0-0.2,0c0-0.1,0-0.2,0-0.4c0-4.5,0-9,0-13.5c0-0.1,0-0.2,0-0.3c-0.3-0.8-0.8-1.4-1.6-1.7c-0.2-0.1-0.3-0.1-0.5-0.1
		c-2.1,0-4.3,0-6.4,0c-0.1,0-0.2,0-0.3,0c-0.6,0.3-1.2,0.7-1.6,1.3c-0.2,0.4-0.4,0.7-0.4,1.2c0,4.4,0,8.8,0,13.2c0,0.1,0,0.3,0,0.4
		c-0.1,0-0.1,0-0.2,0c-2.8,0-5.6,0-8.5-0.1c-0.1,0-0.1,0-0.2,0c-0.4-0.2-0.8-0.4-1-0.7c-0.5-0.5-0.9-1.1-0.9-1.8c0-5.3,0-10.7,0-16
		c0-0.1,0-0.2,0-0.3c-0.1,0-0.2,0-0.3,0c-0.8,0-1.7-0.1-2.5,0c-1.2,0-2.2-1-2.4-1.9C0.1,22.2,0,22.1,0,21.9"/>
</g>
</svg>
