<?xml version="1.0" encoding="utf-8"?>
<!-- Generator: Adobe Illustrator 27.5.0, SVG Export Plug-In . SVG Version: 6.00 Build 0)  -->
<svg version="1.1" id="Ebene_1" xmlns="http://www.w3.org/2000/svg" xmlns:xlink="http://www.w3.org/1999/xlink" x="0px" y="0px"
	 viewBox="0 0 67.2 38.8" style="enable-background:new 0 0 67.2 38.8;" xml:space="preserve">
<style type="text/css">
	.st0{clip-path:url(#SVGID_00000124881170448015939800000010656059510469004474_);fill:#F7A600;}
</style>
<g>
	<defs>
		<rect id="SVGID_1_" width="67.2" height="38.8"/>
	</defs>
	<clipPath id="SVGID_00000163054716873181744200000013545676672551537067_">
		<use xlink:href="#SVGID_1_"  style="overflow:visible;"/>
	</clipPath>
	<path style="clip-path:url(#SVGID_00000163054716873181744200000013545676672551537067_);fill:#F7A600;" d="M47.4,19.4
		C53,24.2,58.5,29,64.1,33.7c0.3-1,0.3-27.9-0.1-28.6C58.5,9.9,53,14.6,47.4,19.4 M31.2,21.4c-5.6,4.8-11.1,9.6-16.8,14.4h47.6
		c-5.7-4.9-11.3-9.7-16.8-14.4c-1.4,1.2-2.7,2.4-4.1,3.5c-1.8,1.5-4.1,1.5-5.8-0.1C33.8,23.7,32.5,22.6,31.2,21.4 M61.9,3H14.5
		c0,0.1-0.1,0.1-0.1,0.2c0.2,0.1,0.4,0.3,0.6,0.4c7.2,6.2,14.4,12.3,21.6,18.5c1.3,1.1,1.8,1.1,3,0c5.2-4.5,10.5-9,15.7-13.5
		C57.5,6.8,59.6,5,61.9,3 M28.8,19.4C23.2,14.6,17.7,9.9,12.1,5C12,5.7,12,6.2,12,6.7c0,0.6,0,1.1,0,1.7c-0.1,0.7-0.6,1.2-1.4,1.3
		C9.8,9.7,9.1,9.3,9,8.6C8.8,6.3,8.7,3.9,10.5,2c1.2-1.3,2.6-2,4.4-2c15.5,0,31,0,46.5,0c3.2,0,5.8,2.5,5.8,5.7
		c0.1,3.9,0,7.8,0,11.7c0,5.1,0,10.2,0,15.2c0,3.2-1.9,5.6-5,6.1c-0.4,0.1-0.9,0.1-1.3,0.1c-15.2,0-30.4,0-45.6,0
		c-3.8,0-6.3-2.5-6.4-6.3c0-0.6,0-1.2,0-1.8c0-0.9,0.6-1.5,1.5-1.5c0.8,0,1.5,0.5,1.5,1.4c0,1,0,2,0,3c0.1,0,0.2,0,0.3,0.1
		C17.7,29,23.2,24.2,28.8,19.4"/>
	<path style="clip-path:url(#SVGID_00000163054716873181744200000013545676672551537067_);fill:#F7A600;" d="M8.2,24.7
		c-2.1,0-4.3,0-6.4,0c-0.7,0-1.3-0.2-1.6-0.9C-0.2,23,0.2,22,1,21.8c0.2-0.1,0.5-0.1,0.7-0.1c4.3,0,8.6,0,12.9,0
		c1,0,1.7,0.5,1.7,1.3c0.1,1-0.6,1.7-1.7,1.7C12.5,24.7,10.3,24.7,8.2,24.7"/>
	<path style="clip-path:url(#SVGID_00000163054716873181744200000013545676672551537067_);fill:#F7A600;" d="M10.5,14.2
		c1.4,0,2.8,0,4.2,0c1.1,0,1.8,0.6,1.8,1.5c0,0.9-0.7,1.5-1.8,1.5c-2.8,0-5.6,0-8.4,0c-1.1,0-1.8-0.6-1.8-1.5c0-0.9,0.7-1.5,1.8-1.5
		C7.7,14.2,9.1,14.2,10.5,14.2"/>
</g>
</svg>
