<?xml version="1.0" encoding="utf-8"?>
<!-- Generator: Adobe Illustrator 27.5.0, SVG Export Plug-In . SVG Version: 6.00 Build 0)  -->
<svg version="1.1" id="Ebene_1" xmlns="http://www.w3.org/2000/svg" xmlns:xlink="http://www.w3.org/1999/xlink" x="0px" y="0px"
	 viewBox="0 0 73.5 95.8" style="enable-background:new 0 0 73.5 95.8;" xml:space="preserve">
<style type="text/css">
	.st0{clip-path:url(#SVGID_00000113350715502856704320000008186366097387257781_);fill:#F7A600;}
</style>
<g>
	<defs>
		<rect id="SVGID_1_" width="73.5" height="95.8"/>
	</defs>
	<clipPath id="SVGID_00000041277662620824080670000010998560344357281454_">
		<use xlink:href="#SVGID_1_"  style="overflow:visible;"/>
	</clipPath>
	<path style="clip-path:url(#SVGID_00000041277662620824080670000010998560344357281454_);fill:#F7A600;" d="M48.3,49.9
		c-5.9,0-10.7,4.8-10.7,10.7c0,5.9,4.8,10.7,10.7,10.7c5.9,0,10.8-4.8,10.8-10.7C59.1,54.7,54.3,49.9,48.3,49.9 M50.4,74.3
		c-0.9,0-1.8,0-2.7,0c-3.4-0.2-6.4-1.5-9.2-3.5c-2.2-1.6-3.9-3.5-5-6.1c-0.7-1.8-1.6-3.5-2.8-5c-0.6-0.8-1.3-1.5-2.3-1.8
		c-1.4-0.5-2.8-0.1-3.7,1.1c-1,1.4-1.3,2.9-1.2,4.6c0.1,1.9,0.8,3.6,2,5.1c0.6,0.7,1.1,1.4,1.5,2.1c0.6,1.1,0.4,1.7-0.6,2.4
		c-1.6,1.1-3.4,1.6-5.3,1.9c-1.7,0.3-3.4,0.4-5.1,0.6c-0.4,0-0.7,0.2-0.8,0.6c-0.1,0.5,0.1,0.7,0.5,1c1.4,0.9,2.9,1.5,4.5,1.8
		c2.3,0.6,4.5,1.1,6.8,1.5c1.2,0.2,2.4,0.1,3.6,0.1c1.9,0,3.8-0.1,5.6,0.1c2.2,0.1,4.1,0.9,5.6,2.6c1.3,1.5,2,3.2,1.6,5.2
		C43.3,90,42.2,91.1,41,92c-2.7,2-5.8,3.1-9.2,3.6c-4.3,0.6-8.4-0.2-12.5-1.3C14,92.8,9.1,90.3,4.8,86.7c-2-1.6-3.1-3.8-3.8-6.1
		c-1-3.2-1.1-6.4-0.9-9.7c0.2-3.2,1.5-6,2.7-8.9c2.4-5.6,5.2-11,8-16.3c1.7-3.2,4-5.9,7-7.9c2.3-1.6,4.8-2.4,7.6-2.4
		c8.5,0,17,0,25.5,0c2.8,0,5.2,1.2,7.4,2.8c2.9,2.1,5.1,4.8,7,7.9c2.7,4.3,5.1,8.8,6.8,13.6c0.7,2,1.2,4.1,1.4,6.3
		c0.2,3.2-0.7,6.1-2.3,8.7c-3.2,5.1-7.5,9.1-13,11.7c-3.1,1.5-6.2,1.5-9.3,0c-1.5-0.7-2.7-1.8-2.9-3.6c-0.1-1.1,0.2-2.2,0.7-3.2
		c0.9-1.8,2.1-3.4,3.4-5C50.2,74.5,50.3,74.4,50.4,74.3"/>
	<path style="clip-path:url(#SVGID_00000041277662620824080670000010998560344357281454_);fill:#F7A600;" d="M36.6,0
		c8.8,0,16,7.2,16,16c0,8.8-7.1,16-16,16c-8.8,0-16-7.1-16-16C20.6,7.2,27.8,0,36.6,0"/>
</g>
</svg>
