<?xml version="1.0" encoding="utf-8"?>
<!-- Generator: Adobe Illustrator 27.5.0, SVG Export Plug-In . SVG Version: 6.00 Build 0)  -->
<svg version="1.1" id="Ebene_1" xmlns="http://www.w3.org/2000/svg" xmlns:xlink="http://www.w3.org/1999/xlink" x="0px" y="0px"
	 viewBox="0 0 90.2 93.3" style="enable-background:new 0 0 90.2 93.3;" xml:space="preserve">
<style type="text/css">
	.st0{clip-path:url(#SVGID_00000074439679938844585570000008787395512125213343_);fill:#F7A600;}
</style>
<g>
	<defs>
		<rect id="SVGID_1_" width="90.2" height="93.3"/>
	</defs>
	<clipPath id="SVGID_00000181083816669470326180000005572835353822043781_">
		<use xlink:href="#SVGID_1_"  style="overflow:visible;"/>
	</clipPath>
	<path style="clip-path:url(#SVGID_00000181083816669470326180000005572835353822043781_);fill:#F7A600;" d="M5.9,32.7
		c0,15.1,11.8,27,26.8,27.1c15,0,27.1-12,27.1-26.9c0-14.8-12-26.9-26.8-27C18,5.8,6,17.8,5.9,32.7 M58,54.3c1.5,1.7,2.5,3.6,5.2,3
		c0.7-0.2,1.8,0.7,2.4,1.4c7.5,7.8,15,15.7,22.5,23.6c2.7,2.9,2.7,6.7,0.1,9.3c-2.6,2.5-6.4,2.4-9.2-0.6c-7.5-7.8-15-15.7-22.5-23.6
		c-1.2-1.2-1.4-2.5-1.2-4.2c0.1-1.3-1.3-2.8-2.1-4.2c-17.7,12.3-37.6,6.2-47-6.8c-9.7-13.5-7.9-32.4,4.5-43.5
		C23.1-2.6,42-2.9,54.4,8C66.8,18.9,70.5,38.5,58,54.3"/>
	<path style="clip-path:url(#SVGID_00000181083816669470326180000005572835353822043781_);fill:#F7A600;" d="M27,39.9
		c5.5-5.6,10.9-11,16.2-16.3c0.5-0.5,0.9-0.9,1.4-1.4c1.4-1.3,3-1.5,4.3,0c1.3,1.4,1.1,2.9-0.2,4.2c-6.5,6.5-13,13-19.5,19.5
		c-1.4,1.4-2.9,1.4-4.3,0c-3.3-3.3-6.7-6.6-10-9.9c-1.3-1.4-1.6-3-0.2-4.4c1.4-1.4,3-1.1,4.3,0.3C21.6,34.4,24.2,37.1,27,39.9"/>
</g>
</svg>
