<?xml version="1.0" encoding="utf-8"?>
<!-- Generator: Adobe Illustrator 27.5.0, SVG Export Plug-In . SVG Version: 6.00 Build 0)  -->
<svg version="1.1" id="Ebene_1" xmlns="http://www.w3.org/2000/svg" xmlns:xlink="http://www.w3.org/1999/xlink" x="0px" y="0px"
	 viewBox="0 0 255.5 111.1" style="enable-background:new 0 0 255.5 111.1;" xml:space="preserve">
<style type="text/css">
	.st0{clip-path:url(#SVGID_00000069365378291086907600000012274366899403214743_);}
	.st1{clip-path:url(#SVGID_00000069365378291086907600000012274366899403214743_);fill:#F7A600;}
</style>
<g>
	<defs>
		<rect id="SVGID_1_" width="255.5" height="111.1"/>
	</defs>
	<clipPath id="SVGID_00000132789351356826755280000014823088836428058556_">
		<use xlink:href="#SVGID_1_"  style="overflow:visible;"/>
	</clipPath>
	<path style="clip-path:url(#SVGID_00000132789351356826755280000014823088836428058556_);" d="M255.2,105.5h-3.3v1.1h1.8v2.4
		c-0.1,0.3-0.3,0.5-0.6,0.7c-0.3,0.2-0.7,0.3-1.2,0.3c-0.7,0-1.2-0.2-1.6-0.7c-0.4-0.5-0.6-1.2-0.6-2.1V104c0-0.9,0.2-1.6,0.6-2
		c0.4-0.5,0.9-0.7,1.5-0.7c0.6,0,1.1,0.2,1.5,0.5c0.3,0.3,0.5,0.9,0.5,1.5h1.4l0,0c0-1-0.3-1.8-0.9-2.3c-0.6-0.5-1.4-0.8-2.5-0.8
		c-1.1,0-1.9,0.3-2.6,1c-0.6,0.7-1,1.6-1,2.9v3.2c0,1.3,0.3,2.2,1,2.9c0.7,0.7,1.6,1,2.7,1c0.9,0,1.6-0.2,2.1-0.5
		c0.5-0.3,0.9-0.7,1.2-1.2V105.5z M245.4,100.3h-1.5v7.9l0,0l-4-7.9h-1.5v10.7h1.5V103l0,0l4,7.9h1.5V100.3z M235.1,100.3h-1.5v10.7
		h1.5V100.3z M230.4,100.3h-1.5v4.8h-4.1v-4.8h-1.5v10.7h1.5v-4.7h4.1v4.7h1.5V100.3z M219.2,107.7c0,0.8-0.2,1.4-0.4,1.7
		c-0.3,0.4-0.7,0.5-1.4,0.5c-0.6,0-1.1-0.2-1.5-0.7c-0.3-0.5-0.5-1.2-0.5-2.1v-3c0-0.9,0.2-1.6,0.5-2.1c0.3-0.5,0.8-0.7,1.4-0.7
		c0.6,0,1.1,0.2,1.4,0.6c0.3,0.4,0.4,0.9,0.5,1.7h1.4l0,0c0-1.1-0.3-1.9-0.9-2.5c-0.6-0.6-1.4-0.9-2.4-0.9c-1,0-1.9,0.4-2.5,1.1
		c-0.6,0.7-0.9,1.7-0.9,3v3c0,1.3,0.3,2.2,0.9,2.9c0.6,0.7,1.5,1.1,2.5,1.1c1,0,1.8-0.3,2.4-0.9c0.6-0.6,0.8-1.4,0.9-2.5l0,0H219.2z
		 M208.2,102.4L208.2,102.4l1.4,4.7h-2.7L208.2,102.4z M210.7,110.9h1.5l-3.3-10.7h-1.4l-3.3,10.7h1.5l0.8-2.7h3.4L210.7,110.9z
		 M201,107.1c0,0.9-0.2,1.7-0.6,2.1c-0.4,0.5-0.9,0.7-1.6,0.7c-0.7,0-1.2-0.2-1.5-0.7c-0.4-0.5-0.5-1.2-0.5-2.1v-3
		c0-0.9,0.2-1.6,0.5-2.1c0.4-0.5,0.9-0.7,1.5-0.7c0.7,0,1.2,0.2,1.6,0.7c0.4,0.5,0.6,1.2,0.6,2.1V107.1z M202.4,104.1
		c0-1.3-0.3-2.2-1-3c-0.7-0.7-1.5-1.1-2.6-1.1c-1.1,0-1.9,0.4-2.6,1.1c-0.6,0.7-1,1.7-1,3v2.9c0,1.3,0.3,2.2,1,3
		c0.6,0.7,1.5,1.1,2.6,1.1c1.1,0,2-0.4,2.6-1.1c0.7-0.7,1-1.7,1-3V104.1z M191.5,107.7c0,0.8-0.2,1.4-0.4,1.7
		c-0.3,0.4-0.7,0.5-1.4,0.5c-0.6,0-1.1-0.2-1.5-0.7c-0.3-0.5-0.5-1.2-0.5-2.1v-3c0-0.9,0.2-1.6,0.5-2.1c0.3-0.5,0.8-0.7,1.4-0.7
		c0.6,0,1.1,0.2,1.4,0.6c0.3,0.4,0.4,0.9,0.5,1.7h1.4l0,0c0-1.1-0.3-1.9-0.9-2.5c-0.6-0.6-1.4-0.9-2.4-0.9c-1,0-1.9,0.4-2.5,1.1
		s-0.9,1.7-0.9,3v3c0,1.3,0.3,2.2,0.9,2.9c0.6,0.7,1.5,1.1,2.5,1.1c1,0,1.8-0.3,2.4-0.9c0.6-0.6,0.8-1.4,0.9-2.5l0,0H191.5z
		 M177.8,100.3h-1.5v10.7h1.5V100.3z M166.7,110.9h1.8l-3.6-5.6l3.4-5.1h-1.8l-2.8,4.7h-0.9v-4.7h-1.5v10.7h1.5v-4.8h1L166.7,110.9z
		 M158,100.3h-1.5v10.7h1.5V100.3z M154.1,100.3h-7v1.1h2.7v9.5h1.5v-9.5h2.7V100.3z M143.3,109.5c-0.3,0.3-0.8,0.5-1.3,0.5
		c-0.6,0-1.1-0.2-1.5-0.5c-0.4-0.3-0.6-0.9-0.6-1.6h-1.4l0,0c0,1,0.3,1.8,1,2.4c0.7,0.6,1.5,0.8,2.5,0.8c1,0,1.8-0.3,2.4-0.8
		c0.6-0.5,0.9-1.2,0.9-2.1c0-0.8-0.3-1.5-0.8-2c-0.5-0.5-1.2-0.9-2.2-1.2c-0.7-0.3-1.3-0.5-1.6-0.8c-0.3-0.3-0.5-0.7-0.5-1.1
		c0-0.5,0.1-0.9,0.5-1.2c0.3-0.3,0.7-0.5,1.3-0.5c0.6,0,1,0.2,1.4,0.6c0.3,0.4,0.5,0.9,0.5,1.5h1.4l0,0c0-0.9-0.3-1.6-0.9-2.3
		c-0.6-0.6-1.4-0.9-2.4-0.9c-0.9,0-1.7,0.3-2.3,0.8c-0.6,0.5-0.9,1.2-0.9,2.1c0,0.8,0.3,1.5,0.8,2c0.5,0.5,1.3,0.9,2.3,1.2
		c0.7,0.2,1.2,0.5,1.5,0.8c0.3,0.3,0.4,0.7,0.4,1.2C143.8,108.8,143.6,109.2,143.3,109.5 M134.7,107.1c0,0.9-0.2,1.7-0.6,2.1
		c-0.4,0.5-0.9,0.7-1.6,0.7c-0.7,0-1.2-0.2-1.5-0.7c-0.4-0.5-0.5-1.2-0.5-2.1v-3c0-0.9,0.2-1.6,0.5-2.1c0.4-0.5,0.9-0.7,1.5-0.7
		c0.7,0,1.2,0.2,1.6,0.7c0.4,0.5,0.6,1.2,0.6,2.1V107.1z M136.2,104.1c0-1.3-0.3-2.2-1-3c-0.7-0.7-1.5-1.1-2.6-1.1
		c-1.1,0-1.9,0.4-2.6,1.1c-0.6,0.7-1,1.7-1,3v2.9c0,1.3,0.3,2.2,1,3c0.6,0.7,1.5,1.1,2.6,1.1c1.1,0,2-0.4,2.6-1.1c0.7-0.7,1-1.7,1-3
		V104.1z M126.2,100.3h-1.5v7.9l0,0l-4-7.9h-1.5v10.7h1.5V103l0,0l4,7.9h1.5V100.3z M116.1,105.5h-3.3v1.1h1.8v2.4
		c-0.1,0.3-0.3,0.5-0.6,0.7c-0.3,0.2-0.7,0.3-1.2,0.3c-0.7,0-1.2-0.2-1.6-0.7c-0.4-0.5-0.6-1.2-0.6-2.1V104c0-0.9,0.2-1.6,0.6-2
		c0.4-0.5,0.9-0.7,1.5-0.7c0.6,0,1.1,0.2,1.5,0.5c0.3,0.3,0.5,0.9,0.5,1.5h1.4l0,0c0-1-0.3-1.8-0.9-2.3c-0.6-0.5-1.4-0.8-2.5-0.8
		c-1.1,0-1.9,0.3-2.6,1c-0.6,0.7-1,1.6-1,2.9v3.2c0,1.3,0.3,2.2,1,2.9c0.7,0.7,1.6,1,2.7,1c0.9,0,1.6-0.2,2.1-0.5
		c0.5-0.3,0.9-0.7,1.2-1.2V105.5z M103.2,102.4L103.2,102.4l1.4,4.7h-2.7L103.2,102.4z M105.7,110.9h1.5l-3.3-10.7h-1.4l-3.3,10.7
		h1.5l0.8-2.7h3.4L105.7,110.9z M96.7,100.3h-1.5v10.7h1.5V100.3z M88.5,101.4c0.7,0,1.3,0.3,1.8,1c0.4,0.6,0.6,1.5,0.6,2.5v1.5
		c0,1-0.2,1.8-0.6,2.5c-0.4,0.6-1,1-1.8,1h-1.4v-8.4H88.5z M88.6,110.9c1.1,0,2.1-0.4,2.8-1.3c0.7-0.8,1.1-1.9,1.1-3.3v-1.5
		c0-1.3-0.4-2.4-1.1-3.3c-0.7-0.9-1.6-1.3-2.8-1.3h-2.9v10.7H88.6z M76.8,100.3h-1.5v10.7h1.5V100.3z M66.5,104.8h-4v-3.4h4.5v-1.1
		h-6v10.7h6.1v-1.1h-4.6V106h4V104.8z M57.8,100.3h-1.5v10.7h1.5V100.3z M48.4,101.4h2c0.6,0,1,0.2,1.3,0.6c0.3,0.4,0.4,0.9,0.4,1.5
		c0,0.6-0.1,1.1-0.4,1.5c-0.3,0.4-0.7,0.6-1.3,0.6h-2V101.4z M50.4,106.7c1,0,1.8-0.3,2.3-0.9c0.6-0.6,0.8-1.4,0.8-2.3
		c0-1-0.3-1.7-0.8-2.3c-0.6-0.6-1.3-0.9-2.3-0.9h-3.5v10.7h1.5v-4.2H50.4z M40.7,102.4L40.7,102.4l1.4,4.7h-2.7L40.7,102.4z
		 M43.2,110.9h1.5l-3.3-10.7H40l-3.3,10.7h1.5l0.8-2.7h3.4L43.2,110.9z M29.5,101.4h1.8c0.6,0,1,0.2,1.3,0.5
		c0.3,0.3,0.4,0.8,0.4,1.4c0,0.6-0.1,1.1-0.4,1.4c-0.3,0.3-0.7,0.5-1.3,0.5h-1.8V101.4z M31.5,106.3c0.5,0,0.8,0.2,1.1,0.5
		s0.4,0.8,0.4,1.4v0.9c0,0.4,0,0.7,0.1,1c0,0.3,0.2,0.6,0.3,0.7h1.5v-0.2c-0.2-0.2-0.3-0.4-0.3-0.7c-0.1-0.3-0.1-0.6-0.1-0.9v-0.9
		c0-0.6-0.1-1.2-0.4-1.6c-0.2-0.4-0.6-0.7-1.2-0.9c0.5-0.2,0.9-0.6,1.1-1c0.3-0.4,0.4-0.9,0.4-1.5c0-1-0.3-1.7-0.8-2.2
		c-0.6-0.5-1.3-0.8-2.3-0.8H28v10.7h1.5v-4.6H31.5z M24.9,104.8h-4v-3.4h4.5v-1.1h-6v10.7h6.1v-1.1h-4.6V106h4V104.8z M16.3,100.3
		h-1.5v4.8h-4.1v-4.8H9.3v10.7h1.5v-4.7h4.1v4.7h1.5V100.3z M7,100.3H0v1.1h2.7v9.5h1.5v-9.5H7V100.3z"/>
	<path style="clip-path:url(#SVGID_00000132789351356826755280000014823088836428058556_);fill:#F7A600;" d="M251.6,2.1l-0.1,53.3v1
		c0,5.3-0.3,8.9-1,10.6l2.5,2c1.7-1.4,2.6-2.4,2.6-3l-1-6.1l0.5-10.2l-0.5-28.9l0.1-8.3L254.5,0l-1.8,0.4
		C252.6,0.4,252.2,1,251.6,2.1 M221.8,11.2c1.3,0,2.6,17.4,4.1,52.3l-1,2.5c0,1.8,0.8,3.1,2.5,4.1h1.6c0.7-0.1,1.4-1,2-2.5
		c-0.5,0-0.8-2.4-1-7.1c0.9-14.7,3.4-22.8,7.6-24.4c2.7,0,4.1,7.6,4.1,22.8v3.6c0.3,3.4,1.3,5.1,3,5.1l1.6-2.6l-1-5.5
		c-0.5-18.6-2.4-28-5.6-28c-4.5,0-7.9,4.2-10.2,12.7h-1l-0.5-1.6l-1-25.4v-3.5l1-4.1V9.2l-1.6-1.5h-1.5
		C223.4,8.5,222.4,9.7,221.8,11.2 M214.3,23.3c0.7,1.7,1.7,2.9,3.2,3.5c1.8-1.1,2.7-2.3,2.7-3.5l-2.2-2.8h-1.6L214.3,23.3z
		 M202.9,23.6c0.7,1.7,1.7,2.9,3.2,3.6c1.8-1.1,2.7-2.3,2.7-3.6l-2.2-2.8h-1.6L202.9,23.6z M214.7,34.7c0.7,1.3,1,3.2,1,5.6v5.1
		c-0.7,11.9-2.2,18.4-4.6,19.3h-1c-3-6.5-4.6-13.1-4.6-19.8v-5.1l0.5-3.6l-1.5-1h-1c-1.4,0.5-2,2-2,4.6v3c2,17.3,5.2,25.9,9.6,25.9
		c4.4,0,7.3-9.1,8.6-27.4l-0.5-4.1v-1.5l1-4.1l-1-1C216.2,31.2,214.7,32.5,214.7,34.7 M178.8,7.8l0.5,27.9
		c-1.2,23.7-2.4,35.5-3.6,35.5c0.2,1.4,0.7,2,1.5,2h2l0.5-0.5l2.5-21.8h0.5c4,11.8,8.1,17.8,12.2,17.8l2.5-0.5v-2
		c-4.9,0-8.8-6.3-11.7-18.8v-1.5c8.5-18.4,13.9-29.2,16.2-32.5l-2-2.5c-1.3,0-2.6,0.7-4.1,2c0,5.4-4.1,15.2-12.2,29.4h-1.5V15.9
		l1-7.6c-0.2-1-0.9-1.7-2-2L178.8,7.8z M141.7,29.8c2.6,0,4.1,1.7,4.6,5.1v0.5c0,5.9-2,9.8-6.1,11.7h-3c-0.8,0-1.3-0.8-1.5-2.5
		C135.6,34.7,137.7,29.8,141.7,29.8 M134.1,32.3c-1,7.7-2.2,12.1-3.6,13.2c0.1,1.7,0.4,2.5,1,2.5c2.5,13.9,5.7,20.8,9.6,20.8
		c4.4,0,7.8-3.9,10.2-11.7h-0.5l-0.5-0.5c-3.5,5.4-6.2,8.1-8.1,8.1h-1.5c-3-2.4-4.6-6.6-4.6-12.7v-1h3.6c6.8-3,10.2-8.2,10.2-15.7
		v-1.5c0-3.8-2.7-6.5-8.1-8.1C139.3,25.7,136.7,27.9,134.1,32.3 M124.4,34c-2,0-3,3.5-3,10.6c0.8,15.9,2,23.9,3.6,23.9h1.5l1.6-1.6
		v-1c-1.9-6.1-2.9-12.3-3-18.7c0-6,0.7-9.8,2-11.2l-1.6-2H124.4z M122.9,23.8c0.8,1.7,1.6,2.5,2.5,2.5c2.4-1.4,3.6-2.5,3.6-3.5
		c-1.1-1.4-2.3-2-3.6-2C124.4,21,123.5,22,122.9,23.8 M102.4,36.8h-1l-0.5-0.5l0.5-7.6c0-0.5-0.7-1.1-2-1.6l-2,2v3L98.8,55
		l-0.5,13.7c0.3,1.4,1.3,2,3,2c0.7,0,1.4-1,2-3l-0.5-2V51.4c0.8-13,3-20.5,6.6-22.3h0.5c2.4,1,3.6,7.4,3.6,19.3v16.8
		c0,1.9,0.8,3.1,2.5,3.5l1.6-1l-0.5-4.5l0.5-2l-0.5-5.6v-9.1c-0.7-15.2-3.1-22.8-7.1-22.8h-0.5C104.7,27.4,102.4,31.8,102.4,36.8
		 M81.6,34.7h1.5c0.8,0,1.3,2.4,1.5,7.1v0.5c-2.2,17.6-4.4,26.4-6.6,26.4c-1,0-1.5-1.9-1.5-5.6V56C76.5,41.8,78.2,34.7,81.6,34.7
		 M81.6,31.2C75.9,33.2,73,42,73,57.6v5.6c0,7.1,1.2,10.7,3.6,10.7c4.1,0,7.2-5.8,9.1-17.3h0.5c1,7.4,2.2,11.2,3.6,11.2h2
		c1.4-0.5,2-1.7,2-3.6v-0.5h-1c-2.1,0-3.6-9-4.6-26.9l0.5-7.6l-1.5-1h-1.5C83.9,30.2,82.5,31.2,81.6,31.2 M63.3,2.1l-0.1,53.3v1
		c0,5.3-0.3,8.9-1,10.6l2.5,2c1.7-1.4,2.6-2.4,2.6-3l-1-6.1l0.5-10.2l-0.5-28.9l0.1-8.3L66.2,0l-1.8,0.4C64.3,0.4,63.9,1,63.3,2.1
		 M47.7,29.8c2.6,0,4.1,1.7,4.6,5.1v0.5c0,5.9-2,9.8-6.1,11.7h-3c-0.8,0-1.3-0.8-1.5-2.5C41.6,34.7,43.6,29.8,47.7,29.8 M40.1,32.3
		c-1,7.7-2.2,12.1-3.6,13.2c0.1,1.7,0.4,2.5,1,2.5c2.5,13.9,5.7,20.8,9.6,20.8c4.4,0,7.8-3.9,10.2-11.7h-0.5l-0.5-0.5
		c-3.5,5.4-6.2,8.1-8.1,8.1h-1.5c-3-2.4-4.6-6.6-4.6-12.7v-1h3.6c6.8-3,10.2-8.2,10.2-15.7v-1.5c0-3.8-2.7-6.5-8.1-8.1
		C45.3,25.7,42.7,27.9,40.1,32.3 M27.4,5.1c-1.7,0-2.5,0.7-2.5,2l0.5,3v1.5l-6.6,31h-1.6c-2-8.3-3.9-14.1-5.6-17.3
		C9.3,15.3,7.2,10.2,5.6,10.2H4c-0.7,0.1-1.4,1-2,2.5C3,14.8,3.5,24,3.5,40.1v6.6L3,47.2h0.5L1.5,68L2,70.5h1.6c2,0,3-10.6,3-31.9
		v-9.1L6,21.8h0.5c1,0.9,3.4,7,7.1,18.3c0.5,8.8,1.7,13.2,3.5,13.2l3-1.5c2.4-16,4.6-27.1,6.6-33.5h0.5c2,11.4,3,24.4,3,39.1v1.6
		l-0.5,7.6l1.5,1h1c1-0.3,1.6-1.3,1.6-3v-3.5L30.4,8.1c0-1.6-1-2.8-3-3.6V5.1z"/>
</g>
</svg>
