<?xml version="1.0" encoding="utf-8"?>
<!-- Generator: Adobe Illustrator 27.8.0, SVG Export Plug-In . SVG Version: 6.00 Build 0)  -->
<svg version="1.1" id="Ebene_1" xmlns="http://www.w3.org/2000/svg" xmlns:xlink="http://www.w3.org/1999/xlink" x="0px" y="0px"
	 viewBox="0 0 45.7 45" style="enable-background:new 0 0 45.7 45;" xml:space="preserve">
<style type="text/css">
	.st0{fill:#FFFFFF;}
	.st1{fill:#DD0B2F;}
</style>
<g>
	<path class="st0" d="M0.5,22.5c0-12.2,10-22.2,22.3-22.2c12.3,0,22.3,9.9,22.3,22.2c0,12.3-10,22.2-22.3,22.2
		C10.5,44.7,0.5,34.8,0.5,22.5"/>
	<path class="st1" d="M1.4,22.5C1.4,10.8,11,1.3,22.8,1.3c11.8,0,21.4,9.5,21.4,21.3c0,11.8-9.6,21.3-21.4,21.3
		C11,43.8,1.4,34.3,1.4,22.5"/>
	<path class="st0" d="M4.1,22.5c0-10.3,8.4-18.6,18.7-18.6c10.3,0,18.7,8.3,18.7,18.6c0,10.3-8.4,18.6-18.7,18.6
		C12.4,41.1,4.1,32.8,4.1,22.5"/>
	<path class="st1" d="M30.2,17.8c-1.7-1-4.6-0.8-5.8-1.2l0.1-0.3c0.1-0.1,0.3-0.3,0.4-0.4c0.5-0.4,2.4,0.3,4,0.3
		c1.6,0,2.4-2,3.6-2.5c1.2-0.5,1.5-2.4,1.5-2.4s-0.8,0.9-2.3,1.3c-1.4,0.4-2.6-0.3-5.2,0.8c-0.5,0.2-1,0.5-1.3,0.8
		c0.2-0.5,0.3-1.1,0.4-1.7c0.3-2,0.5-6.6-0.1-6.9c-0.5-0.2-1.9-0.1-1.8,0.7c0.2,0.7,1.4,3.1,0.7,6.5c-0.2,1.3-0.8,2.8-1,3.3
		c-0.5-0.3-1.3-0.6-2.1-1c-0.3-0.5-0.9-1.2-2.4-1.5C17,13.3,16.1,14,15,14c-1.2-0.1-2-0.7-2-0.7s0.6,1.4,1.6,1.6
		c0.1,0,0.2,0.1,0.3,0.1c-2.4,1.5-5.6,6.5-4,11.3c1.5,4.7,1.2,6.3,2.8,8c0.8,0.9,3.8,0.9,4.7,1.2c0.6,0.2,2.8,1.7,4.4,1.5
		c0.8-0.1,5.6-2.8,8.3-6.3C34.8,25.8,33.6,19.8,30.2,17.8"/>
</g>
</svg>
