<?xml version="1.0" encoding="utf-8"?>
<!-- Generator: Adobe Illustrator 27.5.0, SVG Export Plug-In . SVG Version: 6.00 Build 0)  -->
<svg version="1.1" id="Ebene_1" xmlns="http://www.w3.org/2000/svg" xmlns:xlink="http://www.w3.org/1999/xlink" x="0px" y="0px"
	 viewBox="0 0 101.3 103.4" style="enable-background:new 0 0 101.3 103.4;" xml:space="preserve">
<style type="text/css">
	.st0{clip-path:url(#SVGID_00000114795255892212994190000015401323473155621052_);fill:#F7A600;}
</style>
<g>
	<defs>
		<rect id="SVGID_1_" width="101.3" height="103.4"/>
	</defs>
	<clipPath id="SVGID_00000116957719006613775910000003297986054525109400_">
		<use xlink:href="#SVGID_1_"  style="overflow:visible;"/>
	</clipPath>
	<path style="clip-path:url(#SVGID_00000116957719006613775910000003297986054525109400_);fill:#F7A600;" d="M77.3,57.6
		c0.4-4.5,4.1-6.2,6.9-8.6c4.8-4.2,7.8-9.6,10.4-16.4c-4.8-0.1-9-0.1-13.2-0.1c-0.5,0-1.1,0.9-1.5,1.6c-1.1,1.9-2.1,3.9-3,5.9
		c-1.4,3-3.4,4.1-6.7,2.3c6.6-8.1,7.6-17.4,5.5-28.2c-3.9,2.2-7.6,4.1-11,6.4c-0.7,0.4-0.7,2.3-0.6,3.5c0.5,5.1,0.2,10-2,14.8
		c-2.3-1-3.1-2.2-2.5-4.9c1.7-8.7-2.5-20.4-9.4-26.1c-2,3.3-4.2,6.5-5.9,9.9c-2.6,5-3.7,10.5-2.5,16.1c0.6,2.6-0.4,3.9-2.5,5.3
		c-1.8-4.7-2.9-9.4-2-14.2c0.6-3.1-0.3-5-3-6.3c-2.8-1.3-5.5-2.7-8.7-4.3c-1.8,10.7-1.2,20.1,6,28.2c-5.2,0.8-5.2,0.8-7.9-3.8
		c-0.4-0.7-0.9-1.4-1.1-2.2c-0.8-3.5-3.1-4.8-6.5-4.5c-2.9,0.2-5.9,0.4-9.1,0.7c3.1,8.2,7.1,14.9,14.3,19.4c1.5,0.9,2,3.3,3.2,5.4
		c-6.2-1.5-10.9-4.7-14.8-9.1c-4.2-4.6-7.1-9.9-9.2-15.7c-1.2-3.4-0.3-4.9,3.3-5.3C9,27,14.2,26.8,19.1,26.5
		c0.3-4.9,0.5-10.2,1-15.4c0.4-3.6,2.1-4.5,5.4-3c4.7,2.2,9.2,4.7,13.5,6.9C42,10.7,45,6.1,48.2,1.7c1.7-2.3,3.5-2.3,5.2-0.1
		c3.2,4.4,6.2,9,9.1,13.3c4.4-2.2,9-4.6,13.8-6.8c3-1.4,4.7-0.6,5.1,2.7c0.5,4.4,0.6,8.8,0.8,13.2c0.1,1,0,1.9,0,2.5
		c5.1,0.3,9.9,0.5,14.6,0.7c3.5,0.2,5.7,1.9,3.9,6.2c-3.8,9.1-8.8,17-17.6,21.8c-1.3,0.7-2.7,1.2-4.1,1.8
		C78.4,57.4,77.8,57.5,77.3,57.6"/>
	<path style="clip-path:url(#SVGID_00000116957719006613775910000003297986054525109400_);fill:#F7A600;" d="M40,69.6
		c-0.3-0.8-0.6-2.3-1.4-3.3c-2.9-3.5-5.9-6.8-8.9-10.2c-0.6-0.7-1-1.5-1.6-2.1c-1.8-1.9-1.2-3.8,0.3-5.3c1.6-1.5,3.8-1.5,5.4,0.1
		c2.2,2.2,4.2,4.6,6.1,7c3.4,4.6,11.2,7.3,16.3,4.9c2.1-1,3.6-3.1,5.3-4.9c1.9-2,3.6-4.3,5.4-6.4c1.8-2,3.9-2.4,6.1-0.9
		c1.9,1.3,1.9,3.6-0.1,6c-2.9,3.6-5.8,7.2-9,10.5c-2,2-2.5,4.3-2.1,6.8c1.3,9,2.8,18,4.1,27.1c0.3,2.2-0.8,3.7-2.8,4.3
		c-2.5,0.7-4.2-0.7-4.9-2.9c-1.2-3.5-2.1-7.2-3.1-10.8c-0.2-0.9-0.4-1.7-0.6-2.6c-0.5-2-1.4-3.6-3.7-3.5c-2.1,0.1-3,1.6-3.5,3.5
		c-1.2,4.3-2.4,8.6-3.6,12.8c-0.9,3-2.7,4.2-4.9,3.5c-2.5-0.8-3.1-2.3-2.6-5.7c1-6.2,1.7-12.4,2.6-18.6C39,76,39.5,73.1,40,69.6"/>
	<path style="clip-path:url(#SVGID_00000116957719006613775910000003297986054525109400_);fill:#F7A600;" d="M60.4,48.8
		c-0.1,6.1-4.5,9.6-9.6,9.7c-4.8,0.1-9.8-3.2-9.8-10.1c0-5.2,4.7-10,9.7-9.6C55.9,39.1,60.4,42.4,60.4,48.8"/>
</g>
</svg>
