<svg id="Group_22" data-name="Group 22" xmlns="http://www.w3.org/2000/svg" xmlns:xlink="http://www.w3.org/1999/xlink" width="716.533" height="523.018" viewBox="0 0 716.533 523.018">
  <defs>
    <clipPath id="clip-path">
      <rect id="Rectangle_20" data-name="Rectangle 20" width="716.533" height="523.018" fill="none"/>
    </clipPath>
    <clipPath id="clip-path-2">
      <rect id="Rectangle_19" data-name="Rectangle 19" width="716.534" height="523.019" fill="none"/>
    </clipPath>
    <clipPath id="clip-path-3">
      <rect id="Rectangle_17" data-name="Rectangle 17" width="27.807" height="28.152" fill="none"/>
    </clipPath>
  </defs>
  <g id="Group_27" data-name="Group 27" clip-path="url(#clip-path)">
    <g id="Group_26" data-name="Group 26" transform="translate(0 -0.001)">
      <g id="Group_25" data-name="Group 25" clip-path="url(#clip-path-2)">
        <path id="Path_235" data-name="Path 235" d="M113.752,448.132C48.362,430.823.989,372.971.015,305.335c-.314-21.79,4.114-43.42,17.126-61.275,45.541-62.492,75.171-44,121.747-94.092S183.793,21.959,312.754,1.446c114.8-18.261,194.786,142.32,251.844,135.391,0,0,117.832-16.817,144.744,112.222s-141.979,256.57-325.856,57.55C262.292,175.433,343.352,508.9,113.752,448.132" transform="translate(0 0.003)" fill="#ffd800"/>
        <path id="Path_236" data-name="Path 236" d="M1305.452,77.837c-15.509,39.98-15.509,105.4,0,145.383l28.206,72.691,28.206-72.691c15.513-39.982,15.512-105.4,0-145.383L1333.657,5.143Z" transform="translate(-794.41 -3.157)" fill="#689c39" fill-rule="evenodd"/>
        <path id="Path_237" data-name="Path 237" d="M1514.673,342.8c-33.377,14.719-72.729,54.071-87.449,87.45l-28.271,63.715s15.156-4.462,27.389-10.694,34.814-19.088,34.814-19.088c33.38-14.718,72.731-54.071,87.449-87.45l26.76-60.693Z" transform="translate(-858.962 -194.047)" fill="#689c39" fill-rule="evenodd"/>
        <path id="Path_238" data-name="Path 238" d="M1536.358,725.16c-23.9-9.272-63.011-9.272-86.914,0l-43.456,16.862,43.456,16.862c23.9,9.275,63.014,9.275,86.914,0l43.457-16.862Z" transform="translate(-863.281 -440.98)" fill="#689c39" fill-rule="evenodd"/>
        <path id="Path_239" data-name="Path 239" d="M1467.047,837.267c-6.251-14.175-22.963-30.887-37.138-37.139l-25.775-11.363,11.364,25.774c6.251,14.176,22.963,30.888,37.139,37.139l25.775,11.364Z" transform="translate(-862.143 -484.303)" fill="#689c39" fill-rule="evenodd"/>
        <path id="Path_240" data-name="Path 240" d="M998.766,342.8c33.378,14.719,72.73,54.071,87.451,87.451l26.758,60.691-60.691-26.759c-33.381-14.718-72.733-54.071-87.45-87.45l-26.76-60.693Z" transform="translate(-575.981 -194.047)" fill="#689c39" fill-rule="evenodd"/>
        <path id="Path_241" data-name="Path 241" d="M981.194,725.16c23.9-9.272,63.011-9.272,86.914,0l43.456,16.862-43.456,16.862c-23.9,9.275-63.012,9.275-86.914,0l-43.457-16.862Z" transform="translate(-575.774 -440.98)" fill="#689c39" fill-rule="evenodd"/>
        <path id="Path_242" data-name="Path 242" d="M1208.861,837.267c6.251-14.175,22.963-30.887,37.139-37.139l25.774-11.363-11.364,25.774c-6.251,14.176-22.963,30.888-37.138,37.139L1197.5,863.042Z" transform="translate(-735.267 -484.303)" fill="#689c39" fill-rule="evenodd"/>
        <path id="Path_243" data-name="Path 243" d="M1613.1,898.021a6.3,6.3,0,1,1-6.3-6.3A6.3,6.3,0,0,1,1613.1,898.021Z" transform="translate(-982.712 -547.517)" fill="none" stroke="#006837" stroke-linecap="round" stroke-linejoin="round" stroke-width="2.999"/>
        <path id="Path_244" data-name="Path 244" d="M806.12,169.6a6.3,6.3,0,1,1-6.3-6.3A6.3,6.3,0,0,1,806.12,169.6Z" transform="translate(-487.221 -100.263)" fill="none" stroke="#006837" stroke-linecap="round" stroke-linejoin="round" stroke-width="2.999"/>
        <path id="Path_245" data-name="Path 245" d="M115.1,625.954a6.3,6.3,0,1,1-6.3-6.3A6.3,6.3,0,0,1,115.1,625.954Z" transform="translate(-62.933 -380.467)" fill="none" stroke="#006837" stroke-linecap="round" stroke-linejoin="round" stroke-width="2.999"/>
        <path id="Path_246" data-name="Path 246" d="M844.314,1138.687,562.253,1062.04c-11.544-3.137-14.68-10.066-7.006-15.476l49.076-34.6c7.674-5.41,23.254-7.253,34.8-4.116L921.182,1084.5c11.544,3.137,14.68,10.066,7.006,15.476l-49.076,34.6c-7.675,5.411-23.254,7.254-34.8,4.117" transform="translate(-338.344 -617.883)" fill="#f2f2f2"/>
        <path id="Path_247" data-name="Path 247" d="M841.831,442.634,513.973,354.308c-2.963-.92-5.153-1.167-7.884.153-.059.029-2.171,2.282-2.218,2.328-.951.922-4.845,5.241-5.117,5.412,3.027-2.248,3.674-1.977,7.157-.855l335.555,92.2c.5.137,1.432-10.619.365-10.912M511.744,354.645Z" transform="translate(-306.237 -217.076)" fill="#b3b3b3"/>
        <path id="Path_248" data-name="Path 248" d="M1372.247,592.16l-.005-.034q-.034-.184-.076-.368t-.092-.367c0-.017-.01-.034-.015-.051s-.01-.034-.015-.051c-.024-.085-.048-.17-.075-.255q-.055-.178-.119-.356c-.02-.056-.042-.112-.062-.167l-.027-.073c-.015-.038-.028-.076-.043-.114q-.069-.177-.146-.352t-.151-.33l-.006-.013,0-.009q-.083-.176-.174-.35t-.184-.343l-.053-.091-.038-.065c-.035-.061-.07-.122-.106-.183q-.1-.162-.2-.323c-.052-.081-.106-.162-.16-.242l-.023-.034-.024-.036q-.1-.152-.211-.3t-.212-.286c-.03-.041-.062-.08-.093-.12l-.041-.052c-.029-.037-.057-.075-.087-.112q-.117-.147-.238-.291t-.248-.287l-.025-.027-.039-.043c-.09-.1-.18-.2-.273-.3s-.18-.181-.269-.271c-.06-.06-.118-.121-.179-.181-.029-.028-.055-.057-.084-.085-.151-.145-.308-.284-.466-.423-.051-.046-.1-.093-.152-.138l-.024-.021q-.3-.262-.623-.51l-.092-.07-.083-.063c-.074-.056-.147-.113-.223-.168q-.188-.137-.38-.269c-.049-.034-.1-.066-.147-.1l-.077-.051c-.047-.031-.092-.063-.14-.093q-.186-.121-.377-.238c-.1-.059-.193-.115-.291-.172l-.052-.031-.048-.029c-.135-.077-.272-.153-.409-.227s-.286-.15-.43-.222l-.009,0-.01,0q-.208-.1-.419-.2c-.148-.068-.3-.134-.447-.2l-.055-.022-.063-.026c-.108-.045-.216-.09-.326-.132q-.222-.086-.446-.165l-.125-.042-.041-.015-.013,0c-.088-.03-.176-.06-.264-.088q-.221-.071-.446-.133l-2.4-.656-11,7.62s3.147.87,3.295.917.3.1.443.148.3.108.446.165.3.118.445.18c.062.026.123.054.185.081.236.1.47.211.7.325h0c.233.116.462.239.688.366l.086.048q.324.184.637.383l.1.06q.306.2.6.4l.105.075q.292.209.574.43c.1.076.19.156.285.233.115.095.231.188.343.285.13.113.254.229.38.345.082.075.166.149.245.226s.136.137.2.206c.121.121.242.242.358.366.031.033.061.067.092.1.158.172.312.346.461.523l.036.044q.233.28.448.569l.044.059q.208.281.4.57l.049.074q.186.284.355.573l.051.088q.166.288.313.581l.044.09c.1.2.188.394.272.592q.019.043.036.087.125.3.23.6l.026.081q.1.306.185.615c.028.1.054.206.078.309q.042.184.076.368t.063.387c.018.129.033.259.045.388s.022.281.028.421c0,.109.007.218.006.327,0,0,0,.217,0,.591L1360.6,851.915l7.835-7.814a9.052,9.052,0,0,0,2.859-6.249l1.079-241.56c0-1.056.005-2.643.005-2.643,0-.109,0-.218-.006-.327,0-.092-.012-.185-.019-.277,0-.005,0-.011,0-.016s0-.025,0-.037c0-.031,0-.061-.006-.091q-.018-.194-.045-.388c-.014-.1-.032-.2-.05-.308,0-.015,0-.03-.007-.045" transform="translate(-827.906 -356.786)" fill="#b3b3b3"/>
        <path id="Path_249" data-name="Path 249" d="M1026.745,1139.7s-1.736,1.271-1.855,1.446c-.055.081-.617.844-.88,1.144-.2.223-.857.9-.979,1.011-.355.335-77.068,60.851-77.068,60.851l1.863,12.042,75.6-60.048a2.673,2.673,0,0,0,1.468-.8c.121-.115.22-.23.335-.345.221-.222.448-.443.644-.665l.006-.006c.26-.3.49-.6.706-.9.058-.081.113-.161.168-.243s.133-.184.192-.277.083-.165.132-.248q.209-.353.375-.7c.038-.08.094-.162.129-.242.028-.064.04-.127.066-.192.083-.206.149-.41.21-.614.029-.1.077-.2.1-.295.012-.049.012-.1.023-.147.044-.194.068-.385.092-.577.013-.108.045-.218.052-.325,0-.038,0-.074,0-.112a5.342,5.342,0,0,0-.016-.6c-.007-.107,0-.216-.009-.322-.007-.051-.013-.1-.021-.154Z" transform="translate(-580.824 -699.779)" fill="#999"/>
        <path id="Path_250" data-name="Path 250" d="M779.658,1279.616c-.51.39-1.052.762-1.616,1.121-.173.109-.347.218-.524.325-.626.376-1.272.739-1.949,1.076-.037.019-.072.04-.11.058q-.851.419-1.747.8c-.086.036-.177.067-.264.1-.515.212-1.034.417-1.566.607-.066.024-.135.043-.2.066-.685.24-1.383.459-2.09.662-.26.074-.521.145-.783.214q-.618.164-1.242.309c-.294.068-.588.134-.884.2-.36.075-.722.144-1.084.208-.313.056-.625.111-.938.16-.337.052-.674.1-1.011.142-.322.042-.643.082-.965.116s-.67.063-1,.089c-.317.025-.634.049-.95.065-.36.019-.717.03-1.074.038-.3.007-.594.014-.889.014-.435,0-.864-.016-1.293-.033-.24-.01-.482-.014-.72-.03-.769-.049-1.524-.125-2.26-.231-.367-.053-.725-.118-1.081-.185-.183-.034-.371-.062-.552-.1-.545-.116-1.08-.247-1.6-.4l-69.159-20.31c-4.274-1.255-6.079.153-6.484-2.465l1.285,8.383c.4,2.617,2.788,4.868,7.062,6.124l69.159,20.31c.516.152,1.051.283,1.6.4.181.039.369.066.553.1.312.059.619.123.938.171.046.007.1.008.142.014q1.105.159,2.26.232c.051,0,.1.012.149.015.188.011.382.007.571.014.428.017.857.032,1.293.033.1,0,.193.008.292.007.2,0,.4-.016.6-.021.356-.008.712-.019,1.071-.038.121-.007.24-.005.362-.013.2-.012.395-.037.592-.053.333-.026.665-.054,1-.089.13-.013.259-.02.389-.034.194-.022.387-.057.581-.082.336-.044.67-.089,1.006-.141.134-.021.268-.034.4-.057.181-.03.359-.071.54-.1.362-.065.722-.133,1.082-.208.145-.03.291-.052.435-.084s.3-.077.449-.112q.624-.144,1.239-.308c.165-.044.334-.078.5-.124.1-.027.19-.063.287-.091.706-.2,1.4-.422,2.089-.661.054-.019.112-.033.166-.053l.035-.014c.532-.19,1.052-.4,1.566-.607.087-.036.178-.066.264-.1q.9-.377,1.747-.8l.023-.01c.029-.014.054-.031.083-.046.679-.338,1.325-.7,1.952-1.078.178-.107.351-.215.524-.326.564-.358,1.105-.731,1.616-1.12.061-.047.134-.087.195-.135l.121-.1-1.863-12.042c-.1.08-.213.152-.316.23" transform="translate(-414.835 -775.012)" fill="#b3b3b3"/>
        <path id="Path_251" data-name="Path 251" d="M853.423,1093.184c8.308,2.44,9.513,8.683,2.717,14.081l-75.6,60.048c-7.076,5.619-20.058,8.158-28.707,5.618l-69.158-20.31c-8.649-2.54-9.554-9.158-2-14.635l80.778-58.528c7.26-5.261,19.664-7.508,27.972-5.069Z" transform="translate(-414.789 -659.073)" fill="#e6e6e6"/>
        <path id="Path_252" data-name="Path 252" d="M760.007,1160.984l99.855,27.941,21.124-16.846-96.172-28.572Z" transform="translate(-466.647 -702.116)" fill="#b3b3b3"/>
        <g id="Group_24" data-name="Group 24" transform="translate(393.215 466.462)" opacity="0.29" style="mix-blend-mode: multiply;isolation: isolate">
          <g id="Group_23" data-name="Group 23">
            <g id="Group_22-2" data-name="Group 22" clip-path="url(#clip-path-3)">
              <path id="Path_253" data-name="Path 253" d="M1018.7,1228.806l1.234,7.8,26.575-20.665-1.183-7.488Z" transform="translate(-1018.701 -1208.459)" fill="#666"/>
            </g>
          </g>
        </g>
        <path id="Path_254" data-name="Path 254" d="M839.737,750.031c.031,7.714-9.626,14.123-17.869,11.858l-319.64-87.828c-5.927-1.629-10.722-6.972-10.711-11.94l.444-225.332c.011-4.968,4.818-7.672,10.746-6.044L838.818,523.1Z" transform="translate(-301.793 -264.187)" fill="#ccc"/>
        <path id="Path_255" data-name="Path 255" d="M839.025,673.424c-.024,11.712-14.268,21.235-26.688,17.844L501.048,606.276c-5.927-1.629-10.722-6.972-10.711-11.94L490.781,369c.011-4.968,4.818-7.672,10.746-6.044l323.616,88.921a19.591,19.591,0,0,1,14.3,18.486Z" transform="translate(-301.069 -222.567)" fill="gray"/>
        <path id="Path_256" data-name="Path 256" d="M842.178,699.513c-.063,7.668-9.113,13.848-17.122,11.691L527.644,631.137c-5.627-1.521-10.168-6.2-10.144-10.459l1.027-193.123c.024-4.258,4.6-6.475,10.224-4.953l301.815,80.813A17.946,17.946,0,0,1,843.648,520.5Z" transform="translate(-317.747 -259.183)" fill="#f2f2f2"/>
        <path id="Path_257" data-name="Path 257" d="M931.623,497.127a2.453,2.453,0,0,1-3.1,2.469,4.04,4.04,0,0,1-2.753-4.027,2.453,2.453,0,0,1,3.1-2.469,4.039,4.039,0,0,1,2.753,4.027" transform="translate(-568.421 -302.707)" fill="#fff"/>
        <path id="Path_258" data-name="Path 258" d="M875.408,757.794,691.744,708.578l1.742-166.839,181.873,48.736c7.816,2.094,14.417,11.3,14.326,19.984l-1.427,136.628c-.083,7.965-5.681,12.628-12.851,10.707" transform="translate(-424.733 -332.628)" fill="#666"/>
        <path id="Path_259" data-name="Path 259" d="M895.108,574.9,716.914,525.678l1.9-250.115L897.01,324.782Z" transform="translate(-440.188 -169.196)" fill="#ccc"/>
        <path id="Path_260" data-name="Path 260" d="M873.895,592.071,695.7,542.852l1.9-250.115L875.8,341.956Z" transform="translate(-427.162 -179.741)" fill="#fff"/>
        <path id="Path_261" data-name="Path 261" d="M805.121,432.877l-72.465-18.929.821-55.526,72.465,18.929Z" transform="translate(-449.853 -220.071)" fill="#f2f2f2"/>
        <path id="Path_262" data-name="Path 262" d="M1008.175,489.029,935.71,470.1l.821-55.526L1009,433.5Z" transform="translate(-574.529 -254.549)" fill="#f2f2f2"/>
        <path id="Path_263" data-name="Path 263" d="M1009.313,653.745l-72.465-18.929.821-55.526,72.465,18.929Z" transform="translate(-575.228 -355.685)" fill="#f2f2f2"/>
        <path id="Path_264" data-name="Path 264" d="M800.875,599.628,728.41,580.7l.821-55.526L801.7,544.1Z" transform="translate(-447.246 -322.457)" fill="#f2f2f2"/>
        <path id="Path_265" data-name="Path 265" d="M819,779.617l-183.556-49.2c-6.453-1.729-12.028-8.718-12.908-16.181L606.617,579.29,791.7,628.9c5.583,1.5,10.406,7.544,11.168,14Z" transform="translate(-372.465 -355.685)" fill="gray"/>
        <path id="Path_266" data-name="Path 266" d="M700.739,589.916l-94.55-25.343-5.5-46.583c-1.315-6.978,4.238-9.863,8.986-8.156l47.446,12.717c20.341,5.452,39.093,29.045,41.883,52.7Z" transform="translate(-368.708 -312.744)" fill="gray"/>
        <line id="Line_16" data-name="Line 16" x1="71.753" y1="17.725" transform="translate(255.062 230.717)" fill="none" stroke="#4d4d4d" stroke-miterlimit="10" stroke-width="2.669"/>
        <rect id="Rectangle_18" data-name="Rectangle 18" width="43.191" height="53.259" transform="translate(127.019 385.615)" fill="#ccc"/>
        <path id="Path_267" data-name="Path 267" d="M547.6,801.431h0c.633,1.593.134,3.305-1.109,3.8l-5.087.671c-1.244.5-.42.027-1.053-1.569s-1.9-1.318.268-2.811l3.548-1.327a4.322,4.322,0,0,1,1.442-.291c.921-.015,1.493.269,1.991,1.523" transform="translate(-331.195 -491.145)" fill="#d16d53"/>
        <path id="Path_268" data-name="Path 268" d="M407.271,809.421l25.086,7.293,25.736-11.079,2.465,5.013s-18.412,18.837-25.1,20.425c-.987.234-22.152-3.349-22.152-3.349Z" transform="translate(-250.066 -494.661)" fill="#fff"/>
        <path id="Path_269" data-name="Path 269" d="M259.2,1273.79c11.476-6.053,31.334-6.642,44.354-1.314a27.407,27.407,0,0,1,5.623,3.034c8.134-2.562,19.248-2.372,26.959.784,9.148,3.743,10.027,10.226,1.963,14.479-7.75,4.088-20.926,4.618-30.062,1.331-.531.333-1.089.661-1.69.978-11.477,6.054-31.334,6.642-44.354,1.315s-14.27-14.553-2.793-20.606" transform="translate(-154.331 -779.068)" fill="#e6e6e6"/>
        <path id="Path_270" data-name="Path 270" d="M426.5,1280.57l-8.224-8.236a8.191,8.191,0,0,0-5.942-2.446,13.129,13.129,0,0,0-2.328.251,1.716,1.716,0,0,0-1.5,1.786l-.154,1.752c-.163,2.934-.5,3.911,1.486,4.791l11.776,5.226c2.448,1.631,9.07.506,4.888-3.125" transform="translate(-250.647 -779.714)" fill="#4d4d4d"/>
        <path id="Path_271" data-name="Path 271" d="M392.208,1102.427a3.9,3.9,0,0,0,3.994,3.364c.955-.094,1.618-.649,1.773-2.445-.085-20.168,2.048-36.959,1.981-55.811-.076-21.168-.71-14.932-.877-47.381l-19.321-4.195c3.9,23.435,5.569,52.95,5.569,52.95-5.318,21.627,2.649,28.169,6.882,53.518" transform="translate(-233.172 -611.521)" fill="#d16d53"/>
        <path id="Path_272" data-name="Path 272" d="M374.859,958.153l6.026,49.634a42.04,42.04,0,0,1-.295,14.854c-1.495,7.815-.665,23.54,5.974,46.372,3.072,2.445,6.289,2.411,9.631.262,0,0,3.163-50.7,3.17-60.48s-2.051-62.467-2.051-62.467Z" transform="translate(-230.165 -581.047)" fill="#a67c52"/>
        <path id="Path_273" data-name="Path 273" d="M318.8,1299.2l-.238,6.379a31.819,31.819,0,0,1-1.131,4.782,4.309,4.309,0,0,1-3.768,2.458c-1.858.07-5.546-3.1-4.161-6.877,1.207-3.292,3.6-8.532,3.6-8.532,2.6,1.194,3.808,1.74,5.7,1.789" transform="translate(-189.85 -796.614)" fill="#4d4d4d"/>
        <path id="Path_274" data-name="Path 274" d="M312.893,1131.274c-.39,2.5,3.66,3.668,5.376,1.168,2.2-19.981,6-38.055,8.074-56.732,2.328-20.97,4.2-19.686,7.722-51.837l-21.209.743c1.23,23.545-.456,52.918-.456,52.918-8.063,21.779-.4,25.749.494,53.739" transform="translate(-189.57 -628.66)" fill="#d16d53"/>
        <path id="Path_275" data-name="Path 275" d="M307.152,974.261s2.028,42.423.714,51.73c-1.021,7.233-3.622,19.087-4.731,24.011a25.391,25.391,0,0,0-.611,4.878c-.2,7.227.414,27.1,2.976,39.3,2.248,3.362,7.255,2.724,11.042.81l8.763-48.5c.131-.567,6.916-41.429,6.916-41.429,9.325,1.837,10.863-1.156,12.243-2.665l-7.034-28.531s-31.751,3.063-30.279.4" transform="translate(-185.729 -597.951)" fill="#a67c52"/>
        <path id="Path_276" data-name="Path 276" d="M330.677,809.438c-2.656-.064-5.1-.431-5.838-.919a10.009,10.009,0,0,0-9.34-.612l-6.581,2.805c-12.245,4.105-17.594,18.292-17.755,25.569,0,0,4.374,8.253,4.871,15.116.429,5.934,4.3,19.306,3.37,21.22-.693,1.433-.216,9.548,6.88,12.625,14.366,6.228,27.074-.557,34.84-3.541,12.827-4.929,8.447-4.064,7.648-13.878-.5-6.176-2.386-24.408-2.505-29.3s-1.99-27.826-11.808-28.576Z" transform="translate(-178.775 -495.515)" fill="#006837"/>
        <path id="Path_277" data-name="Path 277" d="M356.28,799.672l.54-.559c1.435.377,2.7.2,2.946-1.215l1.4-7.972a2.943,2.943,0,0,0-2.157-3.256l-.425-.112c-1.435-.377-5.4-.228-5.649,1.185l-.823,8.42c-.249,1.414,2.731,3.13,4.166,3.507" transform="translate(-216.191 -482.84)" fill="#d16d53"/>
        <path id="Path_278" data-name="Path 278" d="M364.489,800.477a8.049,8.049,0,0,1-5.7-3.853s2.2,5.246,5.37,6.012Z" transform="translate(-220.301 -489.129)" fill="#ba422d"/>
        <path id="Path_279" data-name="Path 279" d="M351.749,760.093c1.27-2.138,3.212-2.5,5.015-1.259,1.766-.742,3.9.375,5.477,3.19,2.2,3.919,3.259,10.126,1.407,13.243a5.186,5.186,0,0,1-3.957,2.17c-1.143.018-2.143-.737-3.246-1.162-3.949-1.521-4.016-.937-5.478-3.548-2.2-3.919-1.069-9.517.784-12.635" transform="translate(-214.753 -465.488)" fill="#d16d53"/>
        <path id="Path_280" data-name="Path 280" d="M347.472,762.611a84.428,84.428,0,0,0-3.042,11.675s-6.07-4.232-5.727-7.586c1.142-11.18,7.756-5.177,7.756-5.177Z" transform="translate(-207.957 -466.588)" fill="#24386b"/>
        <path id="Path_281" data-name="Path 281" d="M346.841,753.029c-2.332.552-3.747,2.3-4.483,5.366-.094.391-.918,2.157-.95,2.488l1.5-.432c-.253,2.646.836-1.266,3.5-.775,4.122-1.5,7.585,4.456,12.257,2.221a2.151,2.151,0,0,0,1.194-1.6,2.9,2.9,0,0,0-.989-2.8c-2.9-2.3-4.362-3.532-7.533-4.378l-.77-.121a9.742,9.742,0,0,0-3.729.028" transform="translate(-209.626 -462.243)" fill="#24386b"/>
        <path id="Path_282" data-name="Path 282" d="M375.37,796.6h0a2.073,2.073,0,0,0,1.332-2.452l-3.32.69c.181,1.164,1.071,1.953,1.988,1.762" transform="translate(-229.258 -487.608)" fill="#fff"/>
        <path id="Path_283" data-name="Path 283" d="M349.042,787.266a2.356,2.356,0,0,0,2.088,2.5,2.192,2.192,0,0,0,2.436-2.02,2.356,2.356,0,0,0-2.088-2.5,2.191,2.191,0,0,0-2.436,2.02" transform="translate(-214.309 -482.134)" fill="#d16d53"/>
        <path id="Path_284" data-name="Path 284" d="M370.509,808.2l2.361.714s1.295,4.144-.579,5.754l-3.541-2.214s2.089-2.063,1.759-4.254" transform="translate(-226.414 -496.238)" fill="#fff"/>
        <path id="Path_285" data-name="Path 285" d="M353.758,811.985l-2.038,3.455s-7.163-2.391-7.386-6.4l3.174-1.6s3.467,4.878,6.25,4.55" transform="translate(-211.422 -495.767)" fill="#fff"/>
        <path id="Path_286" data-name="Path 286" d="M275.522,850.818l-3.744,25.238-7.147,23.552,9.771,1.165,9.837-19.279,2.175-17.476Z" transform="translate(-162.484 -522.404)" fill="#fff"/>
        <path id="Path_287" data-name="Path 287" d="M397.457,813.536s6.876,2.224,9.149,18.883,6.425,80.147,5.135,94.045c0,0-2.17,8.078-18.015,8.078l3.344-72.53s.109-37.933-8.967-49.572a.663.663,0,0,1,.617-1.064,46.531,46.531,0,0,1,8.739,2.16" transform="translate(-238.208 -498.182)" fill="#fff"/>
        <line id="Line_17" data-name="Line 17" x2="0.945" y2="3.978" transform="translate(166.271 330.084)" fill="none" stroke="#b4c5d6" stroke-linecap="round" stroke-linejoin="round" stroke-width="2.274"/>
        <path id="Path_288" data-name="Path 288" d="M306.5,814.663c3.422,2.475,5.725,52.968,5.077,77.02-.6,22.063-1.4,47.4-1.4,47.4s-17.066,1.685-22.8-5.413c0,0,1.859-90.723,1.791-101.43-.025-3.874.473-9.649,7.942-13.006Z" transform="translate(-176.452 -500.205)" fill="#fff"/>
        <line id="Line_18" data-name="Line 18" x1="0.232" y1="15.353" transform="translate(124.528 332.729)" fill="none" stroke="#b4c5d6" stroke-linecap="round" stroke-linejoin="round" stroke-width="2.274"/>
        <path id="Path_289" data-name="Path 289" d="M288.47,957.7l.066-.752-1.346.669-.234-.416-31.389-6.678a2.54,2.54,0,0,0-1.551.394l-14.7,9.2.016-.168-2.685,1.361-.078.8.018,0a.281.281,0,0,0,.228.152l32.664,6.949a2.541,2.541,0,0,0,1.551-.394l17.024-10.655c.259-.162.4-.328.413-.458Z" transform="translate(-145.256 -583.611)" fill="#4d69ba"/>
        <path id="Path_290" data-name="Path 290" d="M269.645,967.153,236.98,960.2c-.378-.08-.3-.389.176-.686l17.024-10.655a2.541,2.541,0,0,1,1.551-.394l32.664,6.949c.378.081.3.389-.176.687L271.2,966.759a2.542,2.542,0,0,1-1.551.394" transform="translate(-145.36 -582.35)" fill="#b3b3b3"/>
        <path id="Path_291" data-name="Path 291" d="M251.463,931.072a2.329,2.329,0,0,0-1.671-1.322l-34.5-7a1.188,1.188,0,0,0-.749.051h0l0,0a.575.575,0,0,0-.167.122l-1.056.989,1.007-.24,4.177,13.439a2.33,2.33,0,0,0,1.671,1.323l32.621,6.618,1.08.6,2.247,5.706a2.328,2.328,0,0,0,1.309-.789Z" transform="translate(-130.976 -566.549)" fill="#b3b3b3"/>
        <path id="Path_292" data-name="Path 292" d="M214.125,925.4l34.5,7a2.327,2.327,0,0,1,1.671,1.323l4.223,13.587c0,.01,0,.018.005.028l1.69,5.439c.18.58-.276.928-1.018.777l-34.5-7a2.329,2.329,0,0,1-1.671-1.322L214.8,931.646c0-.01,0-.018-.005-.028l-1.69-5.439c-.18-.58.276-.928,1.018-.777" transform="translate(-130.824 -568.177)" fill="#4d4d4d"/>
        <path id="Path_293" data-name="Path 293" d="M262.8,960.285c.021,1.41-1.2,2.245-2.719,1.866a3.707,3.707,0,0,1-2.8-3.239c-.021-1.41,1.2-2.245,2.719-1.866a3.708,3.708,0,0,1,2.8,3.239" transform="translate(-157.973 -587.572)" fill="#fff"/>
        <path id="Path_294" data-name="Path 294" d="M253.977,982.866h0c-.442-1.839.281-3.355,1.609-3.371l5.261,1.308c1.33-.016,2.3-.047,2.74,1.794s-.08,2.9-2.494,2.889l-3.778-.054a4.541,4.541,0,0,1-1.5-.27,2.686,2.686,0,0,1-1.833-2.3" transform="translate(-155.863 -601.412)" fill="#d16d53"/>
        <path id="Path_295" data-name="Path 295" d="M855.075,799.992c.621,17.281-11.916,27.924-28,23.773s-29.632-21.527-30.253-38.808,11.916-27.925,28-23.773,29.632,21.527,30.253,38.808" transform="translate(-489.236 -466.817)" fill="#d16d53"/>
        <path id="Path_296" data-name="Path 296" d="M864.666,836.439h0a3.906,3.906,0,0,1-2.786-3.742l.762-25.341a2.306,2.306,0,0,1,2.967-2.289,3.905,3.905,0,0,1,2.786,3.742l-.762,25.342a2.305,2.305,0,0,1-2.967,2.289" transform="translate(-529.197 -494.26)" fill="#fff"/>
        <path id="Path_297" data-name="Path 297" d="M831.551,832.469h0a2.186,2.186,0,0,1,2.814-2.17l24.474,6.181a3.7,3.7,0,0,1,2.642,3.548,2.186,2.186,0,0,1-2.814,2.17l-24.474-6.181a3.7,3.7,0,0,1-2.641-3.548" transform="translate(-510.574 -509.755)" fill="#fff"/>
      </g>
    </g>
  </g>
</svg>
