<svg width="177" height="177" viewBox="0 0 177 177" fill="none" xmlns="http://www.w3.org/2000/svg">
<circle cx="88.5" cy="88.5" r="75" fill="#C4C4C4" stroke="#A5A5A5"/>
<circle cx="88.5" cy="88.5" r="88" stroke="#707070"/>
<path d="M61.5122 95.2515C61.5122 96.3094 61.2477 97.2127 60.7188 97.9614C60.1979 98.702 59.4655 99.2676 58.5215 99.6582C57.5775 100.049 56.4666 100.244 55.189 100.244C54.5135 100.244 53.8747 100.212 53.2725 100.146C52.6702 100.081 52.1169 99.9878 51.6123 99.8657C51.1077 99.7437 50.6642 99.5931 50.2817 99.4141V97.4243C50.8921 97.6766 51.6367 97.9126 52.5156 98.1323C53.3945 98.3439 54.3141 98.4497 55.2744 98.4497C56.1696 98.4497 56.9264 98.3317 57.5449 98.0957C58.1634 97.8516 58.6313 97.5057 58.9487 97.0581C59.2743 96.6024 59.437 96.0571 59.437 95.4224C59.437 94.812 59.3027 94.3034 59.0342 93.8965C58.7656 93.4814 58.318 93.1071 57.6914 92.7734C57.0729 92.4316 56.2266 92.0695 55.1523 91.687C54.3955 91.4185 53.7282 91.1255 53.1504 90.8081C52.5726 90.4826 52.0884 90.1164 51.6978 89.7095C51.3071 89.3026 51.0101 88.8306 50.8066 88.2935C50.6113 87.7563 50.5137 87.1419 50.5137 86.4502C50.5137 85.498 50.7537 84.6842 51.2339 84.0088C51.7222 83.3252 52.3936 82.8044 53.248 82.4463C54.1107 82.0801 55.0994 81.897 56.2144 81.897C57.1665 81.897 58.0454 81.9865 58.8511 82.1655C59.6649 82.3446 60.4095 82.5846 61.085 82.8857L60.438 84.668C59.7951 84.3994 59.1115 84.1756 58.3872 83.9966C57.6711 83.8175 56.9305 83.728 56.1655 83.728C55.4006 83.728 54.7536 83.842 54.2246 84.0698C53.7038 84.2896 53.305 84.6029 53.0283 85.0098C52.7516 85.4167 52.6133 85.9009 52.6133 86.4624C52.6133 87.089 52.7435 87.6099 53.0039 88.0249C53.2725 88.4399 53.6956 88.8102 54.2734 89.1357C54.8594 89.4531 55.6325 89.7868 56.5928 90.1367C57.6426 90.5192 58.5337 90.9261 59.2661 91.3574C59.9985 91.7806 60.556 92.3014 60.9385 92.9199C61.321 93.5303 61.5122 94.3075 61.5122 95.2515ZM65.1621 100V82.1533H67.2373V100H65.1621ZM82.0811 100H72.1445V82.1533H82.0811V83.9844H74.2197V89.7583H81.6294V91.5649H74.2197V98.1689H82.0811V100ZM93.6655 90.6494H99.9033V99.3042C98.9674 99.6216 98.0031 99.8576 97.0103 100.012C96.0256 100.167 94.9229 100.244 93.7021 100.244C91.8467 100.244 90.2801 99.8739 89.0024 99.1333C87.7329 98.3927 86.7686 97.3389 86.1094 95.9717C85.4502 94.5964 85.1206 92.9647 85.1206 91.0767C85.1206 89.2293 85.4827 87.618 86.207 86.2427C86.9395 84.8674 87.9933 83.8013 89.3687 83.0444C90.7521 82.2795 92.4123 81.897 94.3491 81.897C95.342 81.897 96.2819 81.9906 97.1689 82.1777C98.0641 82.3568 98.8942 82.6131 99.6592 82.9468L98.8657 84.7534C98.2065 84.4686 97.4782 84.2244 96.6807 84.021C95.8913 83.8175 95.0734 83.7158 94.2271 83.7158C92.7703 83.7158 91.5212 84.0169 90.4795 84.6191C89.446 85.2214 88.6525 86.0718 88.0991 87.1704C87.5539 88.269 87.2812 89.5711 87.2812 91.0767C87.2812 92.5659 87.5213 93.8639 88.0015 94.9707C88.4816 96.0693 89.2303 96.9238 90.2476 97.5342C91.2648 98.1445 92.575 98.4497 94.1782 98.4497C94.9839 98.4497 95.6756 98.4049 96.2534 98.3154C96.8312 98.2178 97.3561 98.1038 97.8281 97.9736V92.5049H93.6655V90.6494ZM114.161 100H104.225V82.1533H114.161V83.9844H106.3V89.7583H113.709V91.5649H106.3V98.1689H114.161V100ZM118.116 100V82.1533H120.191V98.1445H128.114V100H118.116Z" fill="black"/>
</svg>
