<svg id="Group_377" data-name="Group 377" xmlns="http://www.w3.org/2000/svg" xmlns:xlink="http://www.w3.org/1999/xlink" width="39.42" height="39.42" viewBox="0 0 39.42 39.42">
  <defs>
    <clipPath id="clip-path">
      <path id="Path_647" data-name="Path 647" d="M6.427,29.329A16.418,16.418,0,1,1,10.683,33.4L4.929,34.871ZM19.708,0A19.712,19.712,0,0,0,2.829,29.887L.374,39.357l9.808-2.389A19.711,19.711,0,1,0,19.708,0Z" fill="none"/>
    </clipPath>
    <linearGradient id="linear-gradient" x1="0.023" y1="0.977" x2="0.024" y2="0.977" gradientUnits="objectBoundingBox">
      <stop offset="0" stop-color="#2ad846"/>
      <stop offset="1" stop-color="#00ab24"/>
    </linearGradient>
    <clipPath id="clip-path-2">
      <path id="Path_648" data-name="Path 648" d="M213.679,213.854c-1.662.371-2.537,2.7-2.593,4.186a8.784,8.784,0,0,0,1.67,4.743,28.138,28.138,0,0,0,3.285,4.188,15.471,15.471,0,0,0,7.936,4.232,5.735,5.735,0,0,0,1.714.062,4.11,4.11,0,0,0,2.525-1.391c.588-.683,1.352-1.962.786-2.848a1.793,1.793,0,0,0-.746-.577c-.276-.135-.568-.247-.8-.369l-2-1.055a1.359,1.359,0,0,0-.648-.212c-.88.022-1.29,1.275-1.865,1.76a1.431,1.431,0,0,1-.815.4,1.559,1.559,0,0,1-.724-.2,12,12,0,0,1-3.139-2.154,17.423,17.423,0,0,1-1.958-2.27,2.622,2.622,0,0,1-.6-1.222c-.123-1.121,1.47-1.513,1.513-2.641a2.659,2.659,0,0,0-.347-1.175,15.942,15.942,0,0,1-.753-1.979c-.311-1.015-.852-1.557-1.773-1.557a3.1,3.1,0,0,0-.673.081" transform="translate(-211.082 -213.773)" fill="none"/>
    </clipPath>
    <linearGradient id="linear-gradient-2" x1="-0.587" y1="1.51" x2="-0.584" y2="1.51" xlink:href="#linear-gradient"/>
  </defs>
  <g id="Group_368" data-name="Group 368">
    <g id="Group_367" data-name="Group 367" clip-path="url(#clip-path)">
      <rect id="Rectangle_221" data-name="Rectangle 221" width="41.339" height="41.339" transform="translate(-1.966 39.321) rotate(-87.138)" fill="url(#linear-gradient)"/>
    </g>
  </g>
  <g id="Group_369" data-name="Group 369" transform="translate(10.883 11.021)" clip-path="url(#clip-path-2)">
    <rect id="Rectangle_222" data-name="Rectangle 222" width="18.475" height="19.422" transform="translate(-0.957 17.526) rotate(-87.138)" fill="url(#linear-gradient-2)"/>
  </g>
</svg>
